<svg width="24" height="24" viewBox="0 0 24 24" fill="none" xmlns="http://www.w3.org/2000/svg">
<path d="M6.34303 4.93808C6.43601 5.03095 6.50976 5.14124 6.56009 5.26264C6.61041 5.38403 6.63632 5.51416 6.63632 5.64558C6.63632 5.77699 6.61041 5.90712 6.56009 6.02852C6.50976 6.14991 6.43601 6.2602 6.34303 6.35308C4.84247 7.85389 3.99948 9.88928 3.99948 12.0116C3.99948 14.1339 4.84247 16.1693 6.34303 17.6701C6.43854 17.7623 6.51472 17.8727 6.56713 17.9947C6.61954 18.1167 6.64713 18.2479 6.64828 18.3807C6.64943 18.5135 6.62413 18.6451 6.57385 18.768C6.52357 18.8909 6.44932 19.0026 6.35542 19.0965C6.26153 19.1904 6.14988 19.2646 6.02698 19.3149C5.90409 19.3652 5.77241 19.3905 5.63963 19.3893C5.50685 19.3882 5.37563 19.3606 5.25362 19.3082C5.13162 19.2558 5.02128 19.1796 4.92903 19.0841C1.02203 15.1781 1.02203 8.84408 4.92903 4.93808C5.11656 4.7506 5.37087 4.64529 5.63603 4.64529C5.90119 4.64529 6.1555 4.7506 6.34303 4.93808ZM19.075 4.93808C22.981 8.84508 22.981 15.1781 19.075 19.0841C18.8875 19.2717 18.6332 19.3772 18.3679 19.3773C18.1026 19.3774 17.8482 19.2721 17.6605 19.0846C17.4729 18.8971 17.3674 18.6427 17.3673 18.3774C17.3672 18.1122 17.4725 17.8577 17.66 17.6701C19.1606 16.1693 20.0036 14.1339 20.0036 12.0116C20.0036 9.88928 19.1606 7.85389 17.66 6.35308C17.4724 6.16544 17.367 5.91094 17.367 5.64558C17.367 5.38021 17.4724 5.12572 17.66 4.93808C17.8477 4.75044 18.1022 4.64502 18.3675 4.64502C18.6329 4.64502 18.8874 4.75044 19.075 4.93808ZM9.31003 7.81208C9.4975 7.9996 9.60282 8.25391 9.60282 8.51908C9.60282 8.78424 9.4975 9.03855 9.31003 9.22608C8.94598 9.59009 8.6572 10.0222 8.46018 10.4979C8.26315 10.9735 8.16175 11.4833 8.16175 11.9981C8.16175 12.5129 8.26315 13.0227 8.46018 13.4983C8.6572 13.9739 8.94598 14.4061 9.31003 14.7701C9.40287 14.863 9.47651 14.9733 9.52673 15.0946C9.57695 15.216 9.60278 15.3461 9.60273 15.4774C9.60269 15.6088 9.57677 15.7388 9.52646 15.8602C9.47615 15.9815 9.40244 16.0917 9.30953 16.1846C9.21662 16.2774 9.10633 16.3511 8.98496 16.4013C8.8636 16.4515 8.73352 16.4773 8.60218 16.4773C8.47083 16.4772 8.34077 16.4513 8.21944 16.401C8.09811 16.3507 7.98787 16.277 7.89503 16.1841C6.78486 15.0739 6.16117 13.5681 6.16117 11.9981C6.16117 10.428 6.78486 8.92229 7.89503 7.81208C7.9879 7.7191 8.09819 7.64534 8.21959 7.59502C8.34099 7.54469 8.47111 7.51879 8.60253 7.51879C8.73394 7.51879 8.86407 7.54469 8.98547 7.59502C9.10687 7.64534 9.21716 7.7191 9.31003 7.81208ZM16.268 7.81208C17.3782 8.92229 18.0019 10.428 18.0019 11.9981C18.0019 13.5681 17.3782 15.0739 16.268 16.1841C16.0794 16.3662 15.8268 16.467 15.5646 16.4648C15.3024 16.4625 15.0516 16.3573 14.8662 16.1719C14.6808 15.9865 14.5756 15.7357 14.5734 15.4735C14.5711 15.2113 14.6719 14.9587 14.854 14.7701C15.2181 14.4061 15.5069 13.9739 15.7039 13.4983C15.9009 13.0227 16.0023 12.5129 16.0023 11.9981C16.0023 11.4833 15.9009 10.9735 15.7039 10.4979C15.5069 10.0222 15.2181 9.59009 14.854 9.22608C14.6719 9.03747 14.5711 8.78487 14.5734 8.52268C14.5756 8.26048 14.6808 8.00967 14.8662 7.82426C15.0516 7.63885 15.3024 7.53368 15.5646 7.5314C15.8268 7.52912 16.0794 7.62992 16.268 7.81208ZM12.082 10.5821C12.279 10.5821 12.4741 10.6209 12.6561 10.6963C12.838 10.7716 13.0034 10.8821 13.1427 11.0214C13.282 11.1607 13.3925 11.3261 13.4678 11.5081C13.5432 11.69 13.582 11.8851 13.582 12.0821C13.582 12.2791 13.5432 12.4741 13.4678 12.6561C13.3925 12.8381 13.282 13.0034 13.1427 13.1427C13.0034 13.282 12.838 13.3925 12.6561 13.4679C12.4741 13.5433 12.279 13.5821 12.082 13.5821C11.6842 13.5821 11.3027 13.424 11.0214 13.1427C10.7401 12.8614 10.582 12.4799 10.582 12.0821C10.582 11.6843 10.7401 11.3027 11.0214 11.0214C11.3027 10.7401 11.6842 10.5821 12.082 10.5821Z" fill="black"/>
</svg>
