<svg width="32" height="32" viewBox="0 0 32 32" fill="none" xmlns="http://www.w3.org/2000/svg">
<path d="M24.9484 25.9993C23.8417 27.6527 22.6684 29.266 20.8818 29.2927C19.0951 29.3327 18.5217 28.2393 16.4951 28.2393C14.4551 28.2393 13.8284 29.266 12.1351 29.3327C10.3884 29.3993 9.06842 27.5727 7.94842 25.9593C5.66842 22.666 3.92175 16.5993 6.26842 12.5194C7.42842 10.4927 9.50842 9.21268 11.7617 9.17268C13.4684 9.14602 15.0951 10.3327 16.1484 10.3327C17.1884 10.3327 19.1617 8.90602 21.2284 9.11935C22.0951 9.15935 24.5217 9.46602 26.0817 11.7593C25.9617 11.8393 23.1884 13.466 23.2151 16.8393C23.2551 20.866 26.7484 22.2127 26.7884 22.226C26.7484 22.3193 26.2284 24.146 24.9484 25.9993ZM17.3351 4.66602C18.3084 3.55935 19.9217 2.71935 21.2551 2.66602C21.4284 4.22602 20.8017 5.79935 19.8684 6.91935C18.9484 8.05268 17.4284 8.93268 15.9351 8.81268C15.7351 7.27935 16.4818 5.67935 17.3351 4.66602Z" fill="#52B69A"/>
</svg>
