<svg width="35" height="35" viewBox="0 0 35 35" fill="none" xmlns="http://www.w3.org/2000/svg">
<path d="M27.7075 16.0412H11.4179L18.5346 8.92451C19.1033 8.35576 19.1033 7.42243 18.5346 6.85368C18.3996 6.71849 18.2394 6.61123 18.063 6.53805C17.8865 6.46487 17.6974 6.4272 17.5064 6.4272C17.3154 6.4272 17.1263 6.46487 16.9499 6.53805C16.7735 6.61123 16.6132 6.71849 16.4783 6.85368L6.86789 16.4641C6.73269 16.599 6.62544 16.7593 6.55226 16.9357C6.47908 17.1121 6.44141 17.3012 6.44141 17.4922C6.44141 17.6832 6.47908 17.8723 6.55226 18.0488C6.62544 18.2252 6.73269 18.3854 6.86789 18.5203L16.4783 28.1308C16.6133 28.2658 16.7736 28.3729 16.95 28.4459C17.1264 28.519 17.3155 28.5566 17.5064 28.5566C17.6974 28.5566 17.8864 28.519 18.0628 28.4459C18.2393 28.3729 18.3995 28.2658 18.5346 28.1308C18.6696 27.9957 18.7767 27.8355 18.8497 27.6591C18.9228 27.4826 18.9604 27.2936 18.9604 27.1026C18.9604 26.9117 18.9228 26.7226 18.8497 26.5462C18.7767 26.3698 18.6696 26.2095 18.5346 26.0745L11.4179 18.9578H27.7075C28.5096 18.9578 29.1658 18.3016 29.1658 17.4995C29.1658 16.6974 28.5096 16.0412 27.7075 16.0412Z" fill="#52B69A"/>
</svg>
