<svg width="92" height="60" viewBox="0 0 92 60" fill="none" xmlns="http://www.w3.org/2000/svg">
<path d="M16.9886 15.5344C39.6362 2.38534 76.3618 2.38534 99.0174 15.5344V13.1702C110.865 20.0443 116.502 29.1531 115.955 38.1566C116.494 47.1602 110.857 56.269 99.0174 63.1431C76.3699 76.2922 39.6442 76.2922 16.9886 63.1431C-5.65886 49.994 -5.66691 28.6835 16.9886 15.5344Z" fill="#004680"/>
<path opacity="0.3" d="M16.9886 15.5344C39.6362 2.38534 76.3618 2.38534 99.0174 15.5344V13.1702C110.865 20.0443 116.502 29.1531 115.955 38.1566C116.494 47.1602 110.857 56.269 99.0174 63.1431C76.3699 76.2922 39.6442 76.2922 16.9886 63.1431C-5.65886 49.994 -5.66691 28.6835 16.9886 15.5344Z" fill="white"/>
<path d="M16.9888 13.1621C-5.6587 26.3112 -5.6587 47.6217 16.9888 60.7708C39.6444 73.9199 76.362 73.9199 99.0175 60.7708C121.665 47.6217 121.665 26.3112 99.0175 13.1621C76.362 0.0130265 39.6363 0.0130265 16.9888 13.1621Z" fill="#FAFAFA"/>
<path d="M57.9991 4.29619C73.3257 4.29619 87.718 7.75349 98.5182 14.0203C109.157 20.19 115.013 28.3434 115.013 36.9664C115.013 45.5894 109.157 53.7347 98.5182 59.9044C87.7099 66.1794 73.3176 69.6286 57.9991 69.6286C42.6807 69.6286 28.2884 66.1713 17.4801 59.9044C6.84897 53.7347 0.993801 45.5894 0.993801 36.9664C0.993801 28.3434 6.84897 20.1981 17.4881 14.0203C28.2964 7.74539 42.6807 4.29619 57.9991 4.29619ZM57.9991 3.30029C43.1559 3.30029 28.3126 6.58756 16.9888 13.1621C-5.6587 26.3112 -5.6587 47.6217 16.9888 60.7708C28.3126 67.3453 43.1559 70.6326 57.9991 70.6326C72.8424 70.6326 87.6857 67.3453 99.0095 60.7708C121.657 47.6217 121.657 26.3112 99.0095 13.1621C87.6857 6.58756 72.8344 3.30029 57.9991 3.30029Z" fill="#E0E0E0"/>
<path d="M85.8171 24.6999C101.385 33.7359 101.385 48.3828 85.8171 57.4188C70.2489 66.4547 45.0161 66.4547 29.448 57.4188C13.8798 48.3828 13.8798 33.7359 29.448 24.6999C45.0161 15.664 70.2489 15.664 85.8171 24.6999Z" fill="#E0E0E0"/>
<path d="M83.8922 25.8173C98.3973 34.2379 98.3973 47.8889 83.8922 56.3095C69.3872 64.7301 45.8618 64.7301 31.3568 56.3095C16.8518 47.8889 16.8518 34.2379 31.3568 25.8173C45.8618 17.3967 69.3872 17.3967 83.8922 25.8173Z" fill="#FAFAFA"/>
<path d="M108.585 31.9302C106.854 31.1367 104.703 30.6833 102.956 29.8979C100.499 28.7968 98.961 27.0479 98.8643 25.2342C98.7838 23.8497 99.4845 22.3842 98.5663 21.113C98.1234 20.4976 97.3341 19.9957 96.4482 19.5665C93.6052 18.1982 89.6588 17.6152 85.9942 18.0443C81.0733 18.6111 76.99 20.8134 72.0449 21.2992C68.6542 21.6312 65.175 21.1211 61.7601 21.3802C55.4298 21.866 50.1384 25.3557 50.1223 29.0559C50.1142 30.6266 50.9277 32.1488 51.129 33.7034C46.8202 33.1852 40.9247 33.6629 37.7676 35.0879C35.1501 36.2701 32.9031 37.6627 30.3903 38.9015C28.6023 39.784 26.5002 40.4318 24.7042 41.3305C21.5471 42.9175 18.7282 45.2655 18.5591 47.735C18.4303 49.5972 19.8961 51.4514 22.3847 52.6011C24.1163 53.3946 26.2667 53.848 28.0144 54.6334C30.4708 55.7346 32.0091 57.4834 32.1138 59.2971C32.1943 60.6817 31.4936 62.1472 32.4118 63.4183C32.8548 64.0337 33.644 64.5357 34.53 64.9648C37.373 66.3332 41.3194 66.9161 44.9839 66.487C49.9048 65.9202 53.9881 63.7179 58.9332 63.2321C62.3239 62.9002 65.8032 63.4102 69.218 63.1511C75.5484 62.6653 80.8398 59.1757 80.8559 55.4755C80.8639 53.9047 80.0505 52.3825 79.8491 50.8279C84.158 51.3461 90.0534 50.8684 93.2105 49.4434C95.828 48.2613 98.0751 46.8687 100.588 45.6299C102.376 44.7473 104.478 44.0996 106.274 43.2008C109.431 41.6139 112.25 39.2658 112.419 36.7963C112.548 34.9341 111.082 33.0799 108.593 31.9302H108.585Z" fill="#004680"/>
<g opacity="0.9">
<path d="M108.585 31.9302C106.854 31.1367 104.703 30.6833 102.956 29.8979C100.499 28.7968 98.961 27.0479 98.8643 25.2342C98.7838 23.8497 99.4845 22.3842 98.5663 21.113C98.1234 20.4976 97.3341 19.9957 96.4482 19.5665C93.6052 18.1982 89.6588 17.6152 85.9942 18.0443C81.0733 18.6111 76.99 20.8134 72.0449 21.2992C68.6542 21.6312 65.175 21.1211 61.7601 21.3802C55.4298 21.866 50.1384 25.3557 50.1223 29.0559C50.1142 30.6266 50.9277 32.1488 51.129 33.7034C46.8202 33.1852 40.9247 33.6629 37.7676 35.0879C35.1501 36.2701 32.9031 37.6627 30.3903 38.9015C28.6023 39.784 26.5002 40.4318 24.7042 41.3305C21.5471 42.9175 18.7282 45.2655 18.5591 47.735C18.4303 49.5972 19.8961 51.4514 22.3847 52.6011C24.1163 53.3946 26.2667 53.848 28.0144 54.6334C30.4708 55.7346 32.0091 57.4834 32.1138 59.2971C32.1943 60.6817 31.4936 62.1472 32.4118 63.4183C32.8548 64.0337 33.644 64.5357 34.53 64.9648C37.373 66.3332 41.3194 66.9161 44.9839 66.487C49.9048 65.9202 53.9881 63.7179 58.9332 63.2321C62.3239 62.9002 65.8032 63.4102 69.218 63.1511C75.5484 62.6653 80.8398 59.1757 80.8559 55.4755C80.8639 53.9047 80.0505 52.3825 79.8491 50.8279C84.158 51.3461 90.0534 50.8684 93.2105 49.4434C95.828 48.2613 98.0751 46.8687 100.588 45.6299C102.376 44.7473 104.478 44.0996 106.274 43.2008C109.431 41.6139 112.25 39.2658 112.419 36.7963C112.548 34.9341 111.082 33.0799 108.593 31.9302H108.585Z" fill="white"/>
</g>
<path opacity="0.5" d="M36.777 37.6222C35.7059 38.2942 34.5622 39.1848 34.4494 40.4479C34.4253 40.7475 34.4736 41.0795 34.7072 41.2738C34.8602 41.4033 35.0615 41.4438 35.2548 41.4681C36.9461 41.6948 38.5569 40.788 40.1194 40.116C44.4363 38.2537 49.2364 37.9784 53.9157 37.5979C54.1814 37.5736 54.4956 37.5169 54.6003 37.2659C54.7452 36.9016 54.2861 36.6101 53.9237 36.4886C48.3585 34.6669 41.9476 34.3592 36.777 37.6141V37.6222Z" fill="white"/>
<path opacity="0.5" d="M108.408 33.6953C108.593 32.6833 104.059 31.4283 103.262 31.1854C101.691 30.7077 99.9355 30.1733 98.7516 28.9831C97.5918 27.8171 97.1005 26.1006 97.1167 24.457C97.1167 23.7607 97.2052 23.0239 96.9073 22.3923C96.6254 21.7932 96.0455 21.3964 95.4737 21.0807C93.3233 19.8742 90.2225 18.8298 87.7822 19.6556C87.3392 19.8095 86.8641 20.0686 86.7433 20.522C86.5822 21.1292 87.1379 21.6879 87.6775 22.0037C88.6279 22.5624 89.699 22.87 90.6977 23.3154C91.7044 23.7607 92.687 24.4084 93.1703 25.3962C93.5085 26.0763 93.581 26.8617 93.7662 27.5985C94.1367 29.0559 95.0629 30.7805 96.4723 31.4121C98.1073 32.157 99.9355 32.2703 101.691 32.5132C103.238 32.7318 104.921 32.9343 106.419 33.3634C107.055 33.5496 107.748 33.8573 108.416 33.6872L108.408 33.6953ZM109.6 35.6143C109.399 35.3066 109.101 35.0799 108.803 34.8775C108.231 34.4807 107.031 34.2783 106.25 34.4969C106.129 34.5293 106.016 34.5779 105.92 34.6346C105.815 34.6912 105.742 34.8208 105.767 34.9341C105.791 35.0151 105.855 35.0799 105.92 35.1285C106.669 35.7195 107.74 35.7276 108.497 36.3025C108.682 36.4401 108.843 36.6102 109.052 36.7073C109.206 36.7721 109.375 36.7883 109.536 36.7802C109.576 36.7802 109.624 36.7802 109.657 36.7478C109.689 36.7235 109.705 36.6911 109.721 36.6587C109.874 36.3268 109.793 35.9219 109.592 35.6143H109.6Z" fill="white"/>
<path opacity="0.5" d="M72.6489 56.7872C71.763 57.5564 70.716 58.1555 69.6368 58.5442C67.8569 59.1919 65.9562 59.4672 64.136 59.9935C63.8702 60.0744 63.5964 60.1635 63.4111 60.374C62.6299 61.3051 65.1347 61.4347 65.634 61.4833C67.0837 61.6128 68.5495 61.6047 69.9992 61.4671C71.7308 61.3051 73.4704 60.9246 74.9846 60.0663C76.7081 59.0866 78.1417 57.273 78.3752 55.2569C78.488 54.3258 78.343 53.1032 77.7229 52.3502C77.0866 51.5729 75.9993 51.2247 75.347 52.2044C75.0409 52.6578 74.9362 53.2084 74.759 53.7266C74.3483 54.9249 73.5832 55.9532 72.6328 56.7791L72.6489 56.7872Z" fill="white"/>
<path opacity="0.3" d="M83.0224 47.8241C82.515 47.5326 81.6935 47.5326 81.1941 47.8241C80.6868 48.1156 80.6868 48.5933 81.1941 48.8848C81.7015 49.1762 82.523 49.1762 83.0224 48.8848C83.5298 48.5933 83.5298 48.1156 83.0224 47.8241ZM84.907 48.8686C84.6493 48.7147 84.2305 48.7147 83.9727 48.8686C83.715 49.0224 83.715 49.2653 83.9727 49.411C84.2305 49.5568 84.6493 49.5649 84.907 49.411C85.1647 49.2572 85.1647 49.0143 84.907 48.8686Z" fill="#004680"/>
<path opacity="0.3" d="M22.8921 45.0388C22.3847 44.7473 21.5632 44.7473 21.0639 45.0388C20.5565 45.3303 20.5565 45.808 21.0639 46.0995C21.5713 46.3909 22.3928 46.3909 22.8921 46.0995C23.3915 45.808 23.3995 45.3303 22.8921 45.0388ZM24.2613 46.7148C24.0036 46.561 23.5848 46.561 23.327 46.7148C23.0693 46.8686 23.0693 47.1115 23.327 47.2573C23.5848 47.4111 24.0036 47.4111 24.2613 47.2573C24.519 47.1035 24.519 46.8606 24.2613 46.7148ZM25.2922 43.298C25.0345 43.1442 24.6157 43.1442 24.3579 43.298C24.1002 43.4518 24.1002 43.6947 24.3579 43.8405C24.6157 43.9862 25.0345 43.9943 25.2922 43.8405C25.5499 43.6866 25.5499 43.4437 25.2922 43.298Z" fill="#004680"/>
<path opacity="0.3" d="M54.2459 26.7888C53.7385 26.4973 52.917 26.4973 52.4096 26.7888C51.9022 27.0803 51.9022 27.558 52.4096 27.8495C52.917 28.141 53.7385 28.141 54.2459 27.8495C54.7533 27.558 54.7533 27.0803 54.2459 26.7888ZM55.615 28.4648C55.3573 28.311 54.9385 28.311 54.6808 28.4648C54.4231 28.6187 54.4231 28.8616 54.6808 29.0073C54.9385 29.153 55.3573 29.1611 55.615 29.0073C55.8728 28.8535 55.8728 28.6106 55.615 28.4648ZM55.2446 25.218C54.9868 25.0642 54.568 25.0642 54.3103 25.218C54.0526 25.3719 54.0526 25.6148 54.3103 25.7605C54.568 25.9063 54.9868 25.9144 55.2446 25.7605C55.5023 25.6067 55.5023 25.3638 55.2446 25.218Z" fill="#004680"/>
<path opacity="0.3" d="M53.3196 63.6127C52.9492 63.726 52.5626 63.8556 52.176 63.7827C51.8458 63.7179 51.5639 63.5074 51.2417 63.386C50.4202 63.0702 49.3974 63.4507 48.9786 64.228C48.8497 64.4628 48.7692 64.7381 48.5759 64.9324C48.3585 65.151 48.0282 65.2077 47.7303 65.2644C46.3691 65.4992 44.9678 65.7421 43.6067 65.4668C43.0429 65.3535 42.4066 65.1672 41.9395 65.4992C41.7784 65.6125 41.6496 65.7826 41.4724 65.8554C40.8684 66.1064 40.4012 65.2077 39.765 65.062C39.1126 64.9162 38.4039 65.6045 37.832 65.2644C37.6387 65.151 37.5179 64.9405 37.3246 64.8272C36.8414 64.5357 36.1327 64.9405 35.6817 64.6005C35.0293 64.1066 35.8186 62.9163 35.3192 62.2767C34.9246 61.7747 34.0709 62.0176 33.5554 61.6371C33.0964 61.297 33.0883 60.6088 33.2413 60.0582C33.3863 59.5076 33.6521 58.957 33.5635 58.3903C33.491 57.9126 33.185 57.5158 32.887 57.1434C32.2024 56.277 31.4856 55.3783 30.503 54.8844C30.2856 54.7791 30.06 54.6901 29.8829 54.52C29.6735 54.3176 29.5607 54.0342 29.3996 53.7913C28.9647 53.1517 28.111 52.8278 27.362 53.0383C27.0882 53.1193 26.8143 53.257 26.5324 53.2165C26.017 53.1436 25.7432 52.5202 25.2358 52.3906C24.9217 52.3096 24.527 52.423 24.3176 52.172C23.9713 51.7591 24.6801 51.0385 24.3257 50.6336C24.076 50.3502 23.6089 50.5769 23.3673 50.8765C23.1337 51.168 22.9082 51.5485 22.5297 51.5809C21.8451 51.6376 21.6599 50.5203 20.9994 50.3098C20.7739 50.2369 20.5081 50.2855 20.3149 50.1397C19.8075 49.7673 20.5484 48.8361 20.1538 48.3422C19.9846 48.1317 19.6786 48.1074 19.4692 47.9455C19.0343 47.6216 19.139 46.9577 19.2356 46.4314C19.2759 46.2128 19.284 45.9618 19.2437 45.7351C18.841 46.3828 18.5913 47.0549 18.543 47.735C18.4141 49.5972 19.8799 51.4514 22.3686 52.6011C24.1002 53.3946 26.2506 53.848 27.9983 54.6334C30.4547 55.7346 31.993 57.4834 32.0977 59.2971C32.1782 60.6816 31.4775 62.1472 32.3957 63.4183C32.8386 64.0337 33.6279 64.5357 34.5138 64.9648C37.3569 66.3332 41.3033 66.9161 44.9678 66.487C49.8887 65.9202 53.972 63.7179 58.9171 63.2321C59.9399 63.1349 60.9708 63.1107 62.0098 63.1188C59.1265 62.5682 56.1143 62.7301 53.3116 63.6046L53.3196 63.6127Z" fill="#004680"/>
<path opacity="0.3" d="M72.0368 21.3073C68.6462 21.6393 65.1669 21.1292 61.752 21.3883C57.7332 21.696 54.125 23.2263 52.031 25.2423C52.8203 24.5784 53.8673 24.2141 54.8982 24.2626C55.2606 24.2788 55.623 24.3355 55.9694 24.2626C56.8231 24.0602 57.2821 23.0886 58.0795 22.7162C59.3117 22.1332 60.9144 23.1372 62.0822 22.4328C62.3239 22.287 62.5252 22.0846 62.7829 21.9794C63.3548 21.7527 63.983 22.1008 64.587 22.2223C65.5213 22.4085 66.4716 22.0441 67.422 21.9389C69.4838 21.7122 71.6422 22.7243 73.5993 22.036C74.2194 21.8174 74.7752 21.445 75.3792 21.194C76.2168 20.8539 77.1349 20.7568 77.9967 20.4734C78.8182 20.1981 79.5753 19.7609 80.3243 19.3156C77.6262 20.1171 74.9765 21.0159 72.0207 21.3073H72.0368Z" fill="#004680"/>
<path opacity="0.3" d="M112.411 36.7963C112.411 36.7315 112.411 36.6586 112.411 36.5939C112.113 37.2173 111.622 37.7436 111.01 38.0513C110.736 38.1889 110.406 38.3428 110.357 38.6423C110.325 38.8529 110.454 39.0634 110.406 39.2658C110.365 39.4115 110.244 39.5168 110.124 39.6139C109.181 40.3588 108.102 40.9337 106.958 41.29C106.612 41.4033 106.25 41.4924 105.944 41.7029C105.565 41.962 105.324 42.3749 104.945 42.634C103.745 43.4761 101.772 42.4802 100.757 43.549C100.54 43.7838 100.378 44.0995 100.072 44.1967C99.8469 44.2615 99.5972 44.1886 99.3798 44.2615C99.0979 44.3586 98.9529 44.6663 98.7274 44.8525C98.212 45.2897 97.3905 45.063 96.7945 45.3869C96.0374 45.7998 95.9247 46.9496 95.1676 47.3787C94.781 47.5973 94.2978 47.5811 93.9112 47.7997C93.4441 48.0669 93.1702 48.6418 92.6548 48.7956C91.8655 49.0304 90.9474 48.1236 90.2628 48.5932C89.8842 48.8523 89.8037 49.4191 89.4171 49.6701C89.2077 49.8077 88.9419 49.8158 88.6923 49.8239C87.2023 49.8644 85.7204 49.913 84.2304 49.9535C83.9969 49.9535 83.7714 49.9696 83.5378 49.9777C82.9096 49.9939 82.2733 50.0101 81.6693 49.8401C80.9283 49.6296 80.2518 49.1357 79.4867 49.0952C79.1082 49.079 78.7377 49.1762 78.3592 49.1924C77.8437 49.2247 76.6759 49.3948 76.1685 49.3543C74.9765 49.2652 74.0342 49.0628 72.7295 48.6013C74.7832 49.6944 77.5618 50.3826 79.833 50.836C84.1418 51.3542 90.0373 50.8765 93.1944 49.4515C95.8119 48.2693 98.0589 46.8767 100.572 45.6379C102.36 44.7554 104.462 44.1076 106.258 43.2089C109.415 41.6219 112.234 39.2739 112.403 36.8044L112.411 36.7963Z" fill="#004680"/>
<path opacity="0.2" d="M58.0634 44.2048C62.5333 46.7958 62.5333 50.998 58.0634 53.5889C53.5935 56.1799 46.3531 56.1799 41.8912 53.5889C37.4213 50.998 37.4213 46.7958 41.8912 44.2048C46.3611 41.6139 53.6016 41.6139 58.0634 44.2048Z" fill="#004680"/>
<path d="M40.377 48.0103C40.3528 49.573 41.3596 51.1518 43.4053 52.3744C47.4886 54.8115 54.1491 54.9006 58.2888 52.5688C60.3587 51.4028 61.4057 49.8564 61.4298 48.2856C61.5023 42.4398 56.8552 37.6384 51.0403 37.5655C45.2254 37.4927 40.4495 42.1645 40.377 48.0103Z" fill="#FFA92C"/>
<g opacity="0.3">
<path d="M40.377 48.0103C40.3528 49.573 41.3596 51.1518 43.4053 52.3744C47.4886 54.8115 54.1491 54.9006 58.2888 52.5688C60.3587 51.4028 61.4057 49.8564 61.4298 48.2856C61.5023 42.4398 56.8552 37.6384 51.0403 37.5655C45.2254 37.4927 40.4495 42.1645 40.377 48.0103Z" fill="white"/>
</g>
<path opacity="0.5" d="M58.2888 52.5688C58.3291 52.5445 58.3694 52.5202 58.4177 52.4959C54.6243 52.9412 50.4282 52.0506 47.5047 49.7754C46.3933 48.909 45.4026 47.8241 44.855 46.5205C43.8804 44.221 44.4684 41.5248 45.8617 39.5249C45.9745 39.363 46.4335 38.8205 46.7959 38.4076C43.067 39.9945 40.4334 43.6867 40.377 48.0184C40.3528 49.5811 41.3596 51.1599 43.4053 52.3825C47.4886 54.8196 54.1491 54.9087 58.2888 52.5768V52.5688Z" fill="#D6CD00"/>
<g opacity="0.3">
<path d="M51.145 41.039C51.145 41.3791 51.2336 41.7192 51.4108 42.0107C51.6927 42.4722 52.1437 42.7879 52.6028 43.0713C54.0686 44.0024 55.6713 44.7878 56.8472 46.0671C57.3304 46.5934 57.7411 47.1926 58.1841 47.7593C58.4982 48.1642 58.5868 48.7066 59.1828 48.7957C60.6083 49.0143 60.407 46.6501 60.262 45.7999C59.9801 44.132 59.2553 42.5369 58.0391 41.3548C56.7908 40.1403 54.9867 39.0149 53.1907 39.1201C52.6189 39.1525 52.039 39.3468 51.6444 39.7598C51.3222 40.0998 51.1531 40.5694 51.1531 41.039H51.145Z" fill="white"/>
</g>
<g opacity="0.3">
<path d="M52.6592 40.4318C53.6821 40.7557 54.6727 41.1686 55.623 41.6625C55.8163 41.7678 56.0821 41.8569 56.2351 41.6949C56.2915 41.6382 56.3076 41.5492 56.3157 41.4682C56.3882 40.5371 54.9143 39.776 54.1411 39.6303C53.7384 39.5574 53.2552 39.5574 52.8525 39.5979C52.2485 39.6545 51.9746 40.2132 52.6592 40.4318Z" fill="white"/>
</g>
<path opacity="0.2" d="M87.5325 28.7481C92.0025 31.3391 92.0025 35.5413 87.5325 38.1322C83.0626 40.7232 75.8222 40.7232 71.3604 38.1322C66.8905 35.5413 66.8905 31.3391 71.3604 28.7481C75.8303 26.1572 83.0707 26.1572 87.5325 28.7481Z" fill="#807300"/>
<path d="M69.8382 32.5536C69.814 34.1163 70.8208 35.6952 72.8665 36.9178C76.9498 39.3549 83.6103 39.4439 87.75 37.1121C89.8199 35.9462 90.8669 34.3997 90.891 32.8289C90.9635 26.9831 86.3164 22.1817 80.5015 22.1089C74.6866 22.036 69.9107 26.7078 69.8382 32.5536Z" fill="#FFA92C"/>
<g opacity="0.3">
<path d="M69.8382 32.5536C69.814 34.1163 70.8208 35.6952 72.8665 36.9178C76.9498 39.3549 83.6103 39.4439 87.75 37.1121C89.8199 35.9462 90.8669 34.3997 90.891 32.8289C90.9635 26.9831 86.3164 22.1817 80.5015 22.1089C74.6866 22.036 69.9107 26.7078 69.8382 32.5536Z" fill="white"/>
</g>
<path opacity="0.5" d="M87.7581 37.1121C87.7983 37.0878 87.8386 37.0635 87.8869 37.0392C84.0936 37.4845 79.8975 36.5939 76.9739 34.3187C75.8625 33.4524 74.8719 32.3674 74.3242 31.0638C73.3497 28.7644 73.9376 26.0682 75.3309 24.0683C75.4437 23.9063 75.9028 23.3639 76.2652 22.9509C72.5362 24.5379 69.9026 28.23 69.8462 32.5617C69.8221 34.1244 70.8369 35.7033 72.8745 36.9259C76.9578 39.363 83.6184 39.452 87.7581 37.1202V37.1121Z" fill="#807300"/>
<g opacity="0.3">
<path d="M80.6062 25.5824C80.6062 25.9224 80.6948 26.2625 80.872 26.554C81.1539 27.0155 81.6129 27.3313 82.064 27.6147C83.5298 28.5458 85.1325 29.3312 86.3083 30.6104C86.7916 31.1367 87.2023 31.7359 87.6453 32.3027C87.9594 32.7075 88.048 33.25 88.644 33.339C90.0695 33.5576 89.8682 31.1934 89.7232 30.3433C89.4413 28.6753 88.7165 27.0803 87.5003 25.8982C86.252 24.6836 84.4479 23.5582 82.6519 23.6635C82.0801 23.6958 81.5002 23.8902 81.1055 24.3031C80.7834 24.6432 80.6143 25.1128 80.6143 25.5824H80.6062Z" fill="white"/>
</g>
<g opacity="0.3">
<path d="M82.1285 24.9832C83.1513 25.3071 84.1419 25.72 85.0923 26.2139C85.2856 26.3192 85.5514 26.4082 85.7044 26.2463C85.7608 26.1896 85.7769 26.1006 85.7849 26.0196C85.8574 25.0885 84.3835 24.3274 83.6104 24.1817C83.2077 24.1088 82.7244 24.1088 82.3218 24.1493C81.7177 24.2059 81.4439 24.7646 82.1285 24.9832Z" fill="white"/>
</g>
<path d="M12.2288 39.0958C12.0436 38.5776 12.1966 37.938 12.7362 37.2903L30.495 15.9878C31.3326 14.9838 32.8387 14.2794 34.2481 14.1417C33.4266 13.5588 33.3702 12.5386 34.2239 11.5103C36.4629 8.8222 41.0536 7.13808 44.4846 7.74534L72.1094 12.6196C73.8249 12.9191 74.9282 13.745 75.3148 14.8219C75.3632 14.9514 75.5001 15.332 75.6692 15.8016L12.2288 39.0958Z" fill="#004680"/>
<path opacity="0.3" d="M12.2288 39.0958C12.0436 38.5776 12.1966 37.938 12.7362 37.2903L30.495 15.9878C31.3326 14.9838 32.8387 14.2794 34.2481 14.1417C33.4266 13.5588 33.3702 12.5386 34.2239 11.5103C36.4629 8.8222 41.0536 7.13808 44.4846 7.74534L72.1094 12.6196C73.8249 12.9191 74.9282 13.745 75.3148 14.8219C75.3632 14.9514 75.5001 15.332 75.6692 15.8016L12.2288 39.0958Z" fill="white"/>
<path d="M43.9933 27.4365L37.3408 9.08934C39.5798 7.92341 42.2778 7.35664 44.4846 7.74529L72.1094 12.6195C73.8249 12.9191 74.9283 13.745 75.3149 14.8218C75.3632 14.9514 75.5001 15.3319 75.6692 15.8015L43.9853 27.4284L43.9933 27.4365Z" fill="#AF6152"/>
<path d="M12.2288 39.0958C12.0436 38.5776 12.1966 37.938 12.7362 37.2903L30.495 15.9878C31.3326 14.9838 32.8387 14.2794 34.2481 14.1417C33.4266 13.5588 33.3702 12.5386 34.2239 11.5103C36.4629 8.8222 41.0536 7.13808 44.4846 7.74534L72.1094 12.6196C74.3484 13.0163 75.5403 14.2875 75.4759 15.8744L12.2288 39.0958Z" fill="#F0997A"/>
<path d="M13.2195 38.7314C13.0906 38.359 13.1953 37.9056 13.5819 37.4441L31.3407 16.1416C31.9125 15.4534 32.9998 14.919 34.0307 14.8218C34.9247 14.7328 35.5931 13.9555 35.0938 13.5911C34.4736 13.1539 34.4656 12.3928 35.0777 11.6641C37.0026 9.34844 40.9812 7.89104 43.937 8.41732L71.5618 13.2915C73.5672 13.6478 74.5981 14.8218 74.4531 16.263L13.2195 38.7314Z" fill="#FFBDA7"/>
<g opacity="0.5">
<path d="M13.2195 38.7314C13.0906 38.359 13.1953 37.9056 13.5819 37.4441L31.3407 16.1416C31.9125 15.4534 32.9998 14.919 34.0307 14.8218C34.9247 14.7328 35.5931 13.9555 35.0938 13.5911C34.4736 13.1539 34.4656 12.3928 35.0777 11.6641C37.0026 9.34844 40.9812 7.89104 43.937 8.41732L71.5618 13.2915C73.5672 13.6478 74.5981 14.8218 74.4531 16.263L13.2195 38.7314Z" fill="white"/>
</g>
<g opacity="0.5">
<path d="M44.8147 27.1288C45.7248 21.9065 46.4416 16.6598 46.949 11.3807C45.5879 16.7408 44.4362 22.1575 43.5019 27.6066L44.8067 27.1288H44.8147ZM34.6427 30.8614L35.6736 30.4809C35.7219 30.1975 35.7783 29.9222 35.8266 29.6388C36.4468 26.0034 36.9944 22.3599 37.2521 18.6759C36.2454 22.2303 35.5286 25.8415 34.8762 29.4769C34.7957 29.9384 34.7152 30.3999 34.6427 30.8614ZM27.1204 33.6224L27.7808 33.3795C27.8533 33.0071 27.9177 32.6265 27.9902 32.2541C28.3687 30.0113 28.7231 27.6875 28.86 25.4204C28.2237 27.5985 27.7647 29.9141 27.362 32.1488C27.2814 32.6346 27.2009 33.1285 27.1204 33.6305V33.6224ZM53.6901 23.8659C54.2217 20.6596 54.6727 17.4452 54.8982 14.1984C53.9639 17.5019 53.2713 20.862 52.6592 24.2383L53.6901 23.8578V23.8659ZM60.5923 21.3316L61.2044 21.1049C61.4138 19.6637 61.591 18.2063 61.6796 16.7812C61.2446 18.2548 60.8983 19.7932 60.5923 21.3316Z" fill="#FFBDA7"/>
</g>
<path d="M75.6773 15.8015L76.8209 18.9592L76.9659 19.9632L75.476 15.8744L75.6773 15.8015Z" fill="#AF6152"/>
<path d="M75.4736 15.8775L74.4447 16.2552L75.9282 20.3394L76.957 19.9617L75.4736 15.8775Z" fill="#C8856A"/>
<path d="M13.2163 38.7283L12.2252 39.0922L13.7087 43.1763L14.6997 42.8125L13.2163 38.7283Z" fill="#C8856A"/>
<path d="M74.4459 16.26L13.2201 38.736L14.7036 42.8201L75.9294 20.3442L74.4459 16.26Z" fill="#FFBDA7"/>
<path opacity="0.15" d="M13.7107 43.1847L12.2288 39.0959C12.0436 38.5777 12.1966 37.938 12.7362 37.2903L30.495 15.9878C31.1232 15.2348 32.1299 14.6519 33.185 14.3442C33.5394 14.2389 33.8937 14.1742 34.2481 14.1418C34.0468 13.996 33.8857 13.826 33.781 13.6317C33.4588 13.0487 33.5877 12.2795 34.232 11.5104C35.2871 10.2473 36.8656 9.21089 38.5972 8.52267C40.4576 7.78586 42.5114 7.42151 44.5007 7.74538L58.1037 10.1501L36.3743 30.2785L37.8401 34.335L14.7094 42.8285L13.7188 43.1928L13.7107 43.1847Z" fill="black"/>
<path d="M8.18581 47.7352C7.81533 47.3303 7.71063 46.6745 7.9603 45.8729L16.2075 19.3481C16.5941 18.1012 17.7216 16.8624 18.97 16.1903C17.9954 15.9717 17.5444 15.0487 17.9471 13.7694C18.9861 10.4255 22.5861 7.09773 25.9849 6.32854L53.352 0.158846C55.0513 -0.221699 56.3802 0.110266 57.1534 0.952325C57.25 1.05758 57.5158 1.34906 57.8541 1.72151L8.18581 47.7352Z" fill="#004680"/>
<path opacity="0.3" d="M8.18581 47.7352C7.81533 47.3303 7.71063 46.6745 7.9603 45.8729L16.2075 19.3481C16.5941 18.1012 17.7216 16.8624 18.97 16.1903C17.9954 15.9717 17.5444 15.0487 17.9471 13.7694C18.9861 10.4255 22.5861 7.09773 25.9849 6.32854L53.352 0.158846C55.0513 -0.221699 56.3802 0.110266 57.1534 0.952325C57.25 1.05758 57.5158 1.34906 57.8541 1.72151L8.18581 47.7352Z" fill="white"/>
<path d="M33.0562 24.6918L19.8961 10.3282C21.5149 8.38499 23.7861 6.82232 25.9768 6.32033L53.3519 0.158724C55.0513 -0.221821 56.3802 0.110144 57.1534 0.952202C57.25 1.05746 57.5158 1.34894 57.854 1.72139L33.0562 24.6999V24.6918Z" fill="#AF6152"/>
<path d="M8.18581 47.7351C7.81533 47.3302 7.71063 46.6744 7.9603 45.8728L16.2075 19.348C16.5941 18.1011 17.7216 16.8623 18.97 16.1903C17.9954 15.9716 17.5444 15.0486 17.9471 13.7693C18.9861 10.4254 22.5861 7.09764 25.9849 6.32845L53.352 0.158754C55.5748 -0.343242 57.1614 0.377366 57.701 1.86716L8.18581 47.7351Z" fill="#F0997A"/>
<path d="M8.96705 47.0145C8.70128 46.723 8.62879 46.2534 8.80598 45.6866L17.0531 19.1618C17.3189 18.3035 18.1163 17.3967 19.0263 16.9028C19.8156 16.4818 20.1378 15.494 19.5337 15.3563C18.7928 15.1863 18.4948 14.49 18.7767 13.5832C19.6707 10.7007 22.7875 7.81829 25.7111 7.16246L53.0942 0.984661C55.0836 0.539341 56.4769 1.21947 56.8957 2.6121L8.96705 47.0145Z" fill="#FFBDA7"/>
<g opacity="0.5">
<path d="M8.96705 47.0145C8.70128 46.723 8.62879 46.2534 8.80598 45.6866L17.0531 19.1618C17.3189 18.3035 18.1163 17.3967 19.0263 16.9028C19.8156 16.4818 20.1378 15.494 19.5337 15.3563C18.7928 15.1863 18.4948 14.49 18.7767 13.5832C19.6707 10.7007 22.7875 7.81829 25.7111 7.16246L53.0942 0.984661C55.0836 0.539341 56.4769 1.21947 56.8957 2.6121L8.96705 47.0145Z" fill="white"/>
</g>
<g opacity="0.5">
<path d="M32.6777 25.048L33.7005 24.1007C32.5488 18.9269 31.1958 13.8017 29.6575 8.73314C30.4468 14.2065 31.4616 19.6475 32.6777 25.048ZM23.4802 19.2265C23.907 22.8943 24.6238 26.5135 25.4131 30.1085C25.5178 30.5619 25.6225 31.0234 25.7272 31.4768L26.5326 30.7319C26.4762 30.4566 26.4118 30.1733 26.3473 29.898C25.5339 26.303 24.648 22.7243 23.4721 19.2265H23.4802ZM18.3096 28.6915C18.5512 30.9505 19.0183 33.2581 19.5015 35.4766C19.6143 35.9624 19.7271 36.4482 19.8479 36.934L20.3633 36.4563C20.2828 36.0839 20.2022 35.7114 20.1217 35.339C19.6143 33.1286 19.0505 30.8372 18.3096 28.6915ZM39.8376 18.4168L40.643 17.6719C39.9101 14.5061 39.0966 11.3727 38.0657 8.27973C38.4684 11.6965 39.1127 15.0567 39.8376 18.4168ZM45.3062 8.04492C45.4672 9.5752 45.7411 11.1298 46.0471 12.6681L46.5304 12.2228C46.176 10.814 45.7813 9.40517 45.3142 8.04492H45.3062Z" fill="#FFBDA7"/>
</g>
<path d="M57.8541 1.71338L60.1253 4.19097L60.6327 5.05732L57.701 1.85912L57.8541 1.71338Z" fill="#AF6152"/>
<path d="M57.7036 1.86367L56.8981 2.60986L59.8288 5.80728L60.6343 5.06109L57.7036 1.86367Z" fill="#C8856A"/>
<path d="M8.95593 47.0183L8.18005 47.7371L11.1108 50.9345L11.8867 50.2157L8.95593 47.0183Z" fill="#C8856A"/>
<path d="M56.8965 2.61021L8.96387 47.0142L11.8946 50.2116L59.8272 5.80763L56.8965 2.61021Z" fill="#FFBDA7"/>
</svg>
