<svg width="30" height="31" viewBox="0 0 30 31" fill="none" xmlns="http://www.w3.org/2000/svg">
<path d="M10 18C9.64584 18 9.34875 17.88 9.10875 17.64C8.86875 17.4 8.74917 17.1033 8.75 16.75C8.75 16.3958 8.87 16.0987 9.11 15.8587C9.35 15.6187 9.64667 15.4992 10 15.5C10.3542 15.5 10.6513 15.62 10.8913 15.86C11.1313 16.1 11.2508 16.3967 11.25 16.75C11.25 17.1042 11.13 17.4013 10.89 17.6413C10.65 17.8813 10.3533 18.0008 10 18ZM15 18C14.6458 18 14.3488 17.88 14.1088 17.64C13.8688 17.4 13.7492 17.1033 13.75 16.75C13.75 16.3958 13.87 16.0987 14.11 15.8587C14.35 15.6187 14.6467 15.4992 15 15.5C15.3542 15.5 15.6513 15.62 15.8913 15.86C16.1313 16.1 16.2508 16.3967 16.25 16.75C16.25 17.1042 16.13 17.4013 15.89 17.6413C15.65 17.8813 15.3533 18.0008 15 18ZM20 18C19.6458 18 19.3488 17.88 19.1088 17.64C18.8688 17.4 18.7492 17.1033 18.75 16.75C18.75 16.3958 18.87 16.0987 19.11 15.8587C19.35 15.6187 19.6467 15.4992 20 15.5C20.3542 15.5 20.6513 15.62 20.8913 15.86C21.1313 16.1 21.2508 16.3967 21.25 16.75C21.25 17.1042 21.13 17.4013 20.89 17.6413C20.65 17.8813 20.3533 18.0008 20 18ZM6.25 28C5.5625 28 4.97375 27.755 4.48375 27.265C3.99375 26.775 3.74917 26.1867 3.75 25.5V8C3.75 7.3125 3.995 6.72375 4.485 6.23375C4.975 5.74375 5.56334 5.49917 6.25 5.5H7.5V3H10V5.5H20V3H22.5V5.5H23.75C24.4375 5.5 25.0263 5.745 25.5163 6.235C26.0063 6.725 26.2508 7.31333 26.25 8V25.5C26.25 26.1875 26.005 26.7763 25.515 27.2663C25.025 27.7563 24.4367 28.0008 23.75 28H6.25ZM6.25 25.5H23.75V13H6.25V25.5Z" fill="#52B69A"/>
</svg>
