<svg width="35" height="35" viewBox="0 0 35 35" fill="none" xmlns="http://www.w3.org/2000/svg">
<circle cx="17.5" cy="17.5" r="17.5" fill="#52B69A"/>
<path d="M27.6445 22.0976C27.4704 23.4209 26.8205 24.6356 25.8163 25.5147C24.8121 26.3938 23.5222 26.8774 22.1875 26.875C14.4336 26.875 8.12501 20.5664 8.12501 12.8125C8.12262 11.4778 8.60615 10.1879 9.4853 9.18367C10.3644 8.17945 11.5791 7.52958 12.9024 7.35545C13.237 7.3146 13.5758 7.38305 13.8684 7.55061C14.1609 7.71816 14.3914 7.97583 14.5254 8.28514L16.5879 12.8896V12.9014C16.6905 13.1381 16.7329 13.3966 16.7113 13.6538C16.6896 13.9109 16.6046 14.1587 16.4639 14.375C16.4463 14.4014 16.4277 14.4258 16.4082 14.4502L14.375 16.8603C15.1065 18.3467 16.6611 19.8877 18.167 20.6211L20.544 18.5986C20.5673 18.579 20.5918 18.5607 20.6172 18.5439C20.8333 18.3998 21.0819 18.3118 21.3406 18.2879C21.5993 18.2641 21.8598 18.3051 22.0986 18.4072L22.1113 18.4131L26.7119 20.4746C27.0218 20.6082 27.2801 20.8384 27.4482 21.131C27.6163 21.4236 27.6852 21.7627 27.6445 22.0976Z" fill="white"/>
</svg>
