<svg width="30" height="30" viewBox="0 0 30 30" fill="none" xmlns="http://www.w3.org/2000/svg">
<g filter="url(#filter0_d_928_2531)">
<path d="M15 12.5C14.0717 12.5 13.1815 12.8687 12.5251 13.5251C11.8687 14.1815 11.5 15.0717 11.5 16C11.5 16.9283 11.8687 17.8185 12.5251 18.4749C13.1815 19.1313 14.0717 19.5 15 19.5C15.9283 19.5 16.8185 19.1313 17.4749 18.4749C18.1313 17.8185 18.5 16.9283 18.5 16C18.5 15.0717 18.1313 14.1815 17.4749 13.5251C16.8185 12.8687 15.9283 12.5 15 12.5ZM13.5 16C13.5 15.6022 13.658 15.2206 13.9393 14.9393C14.2206 14.658 14.6022 14.5 15 14.5C15.3978 14.5 15.7794 14.658 16.0607 14.9393C16.342 15.2206 16.5 15.6022 16.5 16C16.5 16.3978 16.342 16.7794 16.0607 17.0607C15.7794 17.342 15.3978 17.5 15 17.5C14.6022 17.5 14.2206 17.342 13.9393 17.0607C13.658 16.7794 13.5 16.3978 13.5 16Z" fill="white"/>
<path d="M20.526 5.1152L17.347 0.658203L5.658 9.9962L5.01 9.9892V9.9992H4.5V21.9992H25.5V9.9992H24.538L22.624 4.4002L20.526 5.1152ZM22.425 9.9992H12.397L19.866 7.4532L21.388 6.9662L22.425 9.9992ZM18.55 5.7892L10.84 8.4172L16.946 3.5392L18.55 5.7892ZM6.5 18.1682V13.8282C6.9219 13.6787 7.30511 13.4369 7.6217 13.1205C7.93828 12.8041 8.18027 12.421 8.33 11.9992H21.67C21.8197 12.4212 22.0616 12.8044 22.3782 13.121C22.6948 13.4376 23.078 13.6795 23.5 13.8292V18.1692C23.078 18.3189 22.6948 18.5608 22.3782 18.8774C22.0616 19.194 21.8197 19.5772 21.67 19.9992H8.332C8.18218 19.5769 7.93996 19.1933 7.62302 18.8766C7.30607 18.5598 6.9224 18.3178 6.5 18.1682Z" fill="white"/>
</g>
<defs>
<filter id="filter0_d_928_2531" x="-1" y="0" width="32" height="32" filterUnits="userSpaceOnUse" color-interpolation-filters="sRGB">
<feFlood flood-opacity="0" result="BackgroundImageFix"/>
<feColorMatrix in="SourceAlpha" type="matrix" values="0 0 0 0 0 0 0 0 0 0 0 0 0 0 0 0 0 0 127 0" result="hardAlpha"/>
<feOffset dy="4"/>
<feGaussianBlur stdDeviation="2"/>
<feComposite in2="hardAlpha" operator="out"/>
<feColorMatrix type="matrix" values="0 0 0 0 0 0 0 0 0 0 0 0 0 0 0 0 0 0 0.25 0"/>
<feBlend mode="normal" in2="BackgroundImageFix" result="effect1_dropShadow_928_2531"/>
<feBlend mode="normal" in="SourceGraphic" in2="effect1_dropShadow_928_2531" result="shape"/>
</filter>
</defs>
</svg>
