<svg width="35" height="36" viewBox="0 0 35 36" fill="none" xmlns="http://www.w3.org/2000/svg">
<path d="M24.791 15.0833C26.3952 15.0833 27.7077 13.7708 27.7077 12.1667V7.79167C27.7077 6.1875 26.3952 4.875 24.791 4.875H10.2077C8.60352 4.875 7.29102 6.1875 7.29102 7.79167V12.1667C7.29102 13.7708 8.60352 15.0833 10.2077 15.0833H11.666V18H10.2077C8.60352 18 7.29102 19.3125 7.29102 20.9167V31.125H10.2077V26.75H24.791V31.125H27.7077V20.9167C27.7077 19.3125 26.3952 18 24.791 18H23.3327V15.0833H24.791ZM10.2077 12.1667V7.79167H24.791V12.1667H10.2077ZM24.791 23.8333H10.2077V20.9167H24.791V23.8333ZM20.416 18H14.5827V15.0833H20.416V18Z" fill="#52B69A"/>
</svg>
