<svg width="30" height="30" viewBox="0 0 30 30" fill="none" xmlns="http://www.w3.org/2000/svg">
<path d="M11.2502 20.2128L6.91268 15.8753C6.67896 15.6416 6.36196 15.5103 6.03143 15.5103C5.7009 15.5103 5.3839 15.6416 5.15018 15.8753C4.91646 16.109 4.78516 16.426 4.78516 16.7565C4.78516 16.9202 4.81739 17.0823 4.88002 17.2335C4.94265 17.3847 5.03445 17.5221 5.15018 17.6378L10.3752 22.8628C10.8627 23.3503 11.6502 23.3503 12.1377 22.8628L25.3627 9.63778C25.5964 9.40406 25.7277 9.08706 25.7277 8.75653C25.7277 8.426 25.5964 8.109 25.3627 7.87528C25.129 7.64156 24.812 7.51025 24.4814 7.51025C24.1509 7.51025 23.8339 7.64156 23.6002 7.87528L11.2502 20.2128Z" fill="#2D3748"/>
</svg>
