<svg width="50" height="20" viewBox="0 0 50 20" fill="none" xmlns="http://www.w3.org/2000/svg">
<path d="M26.3949 14.5046C25.9468 14.5046 25.5336 14.4365 25.1543 14.2997C24.7755 14.1629 24.4649 13.9586 24.1892 13.7197C23.9136 13.4467 23.7067 13.1396 23.5342 12.7298C23.3961 12.32 23.293 11.8768 23.293 11.3302V11.0912C23.293 10.5793 23.3617 10.1695 23.5342 9.76028C23.7067 9.38514 23.913 9.07747 24.1892 8.80448C24.4649 8.53148 24.8092 8.36062 25.1543 8.22443C25.533 8.08763 25.9124 8.01953 26.3261 8.01953C26.7743 8.01953 27.153 8.08763 27.498 8.19039C27.843 8.29315 28.1181 8.46338 28.3593 8.66829C28.6006 8.87319 28.7731 9.11214 28.9106 9.38514C29.0481 9.65813 29.1174 9.96518 29.1862 10.2722H27.6012C27.498 9.99923 27.3599 9.76028 27.1874 9.58942C27.0149 9.41857 26.7393 9.35047 26.3605 9.35047C26.1536 9.35047 25.9818 9.38452 25.7749 9.45261C25.6024 9.52071 25.4305 9.62347 25.2924 9.75966C25.1543 9.89585 25.0511 10.1008 24.9824 10.3057C24.9136 10.5106 24.8792 10.7836 24.8792 11.0906V11.3295C24.8792 11.6706 24.9136 11.9436 24.9824 12.1826C25.0511 12.4215 25.1549 12.6264 25.2924 12.7626C25.4305 12.8994 25.568 13.0356 25.7749 13.1037C25.9474 13.1718 26.1536 13.2059 26.3605 13.2059C26.6705 13.2059 26.9462 13.1378 27.153 12.9669C27.3599 12.7961 27.5318 12.5918 27.6012 12.2841H29.1862C29.1518 12.6252 29.0481 12.9329 28.9106 13.2059C28.7731 13.4789 28.5662 13.7178 28.3249 13.9227C28.0837 14.1276 27.808 14.2638 27.4637 14.3666C27.188 14.4687 26.8087 14.5034 26.3955 14.5034L26.3949 14.5046Z" fill="black"/>
<path d="M32.4279 14.437C32.0491 14.437 31.7385 14.4029 31.4972 14.3348C31.2216 14.2668 31.0147 14.164 30.8422 13.9938C30.6697 13.8235 30.5322 13.6186 30.4635 13.311C30.3947 13.038 30.3604 12.6969 30.3604 12.253V6.17773H31.911V12.0822C31.911 12.2871 31.911 12.4573 31.9454 12.5601C31.9798 12.6969 32.0141 12.799 32.0835 12.8671C32.1523 12.9352 32.2216 13.0039 32.3591 13.038C32.4623 13.072 32.6004 13.106 32.7729 13.106H33.0141C33.0829 13.106 33.1523 13.106 33.1867 13.072V14.3689C33.1523 14.3689 33.0835 14.3689 33.0141 14.4029C32.9454 14.4029 32.876 14.4029 32.8416 14.437H32.4279Z" fill="black"/>
<path d="M34.3215 8.15757H35.8721V14.369H34.3215V8.15757ZM35.114 7.50881C34.8384 7.50881 34.5971 7.44072 34.4246 7.26986C34.2521 7.09901 34.1833 6.89472 34.1833 6.65577C34.1833 6.41682 34.2521 6.21192 34.4246 6.04168C34.5971 5.87145 34.8384 5.80273 35.114 5.80273C35.3896 5.80273 35.6309 5.87083 35.8034 6.04168C35.9759 6.21254 36.0446 6.41682 36.0446 6.65577C36.0446 6.89472 35.9759 7.09963 35.8034 7.26986C35.6309 7.4401 35.3896 7.50881 35.114 7.50881Z" fill="black"/>
<path d="M40.181 14.5046C39.7329 14.5046 39.3198 14.4365 38.9404 14.2997C38.5616 14.1629 38.251 13.9586 37.9754 13.7197C37.6997 13.4467 37.4929 13.1396 37.3204 12.7298C37.1822 12.32 37.0791 11.8768 37.0791 11.3302V11.0912C37.0791 10.5793 37.1479 10.1695 37.3204 9.76028C37.4929 9.38514 37.6991 9.07747 37.9754 8.80448C38.251 8.53148 38.5954 8.36062 38.9404 8.22443C39.3191 8.08763 39.6985 8.01953 40.1123 8.01953C40.5604 8.01953 40.9392 8.08763 41.2842 8.19039C41.6292 8.29315 41.9042 8.46338 42.1454 8.66829C42.3867 8.87319 42.5592 9.11214 42.6967 9.38514C42.8342 9.65813 42.9036 9.96518 42.9723 10.2722H41.3873C41.2842 9.99923 41.146 9.76028 40.9735 9.58942C40.801 9.41857 40.5254 9.35047 40.1467 9.35047C39.9398 9.35047 39.7679 9.38452 39.561 9.45261C39.3885 9.52071 39.2166 9.62347 39.0785 9.75966C38.9404 9.89585 38.8373 10.1008 38.7685 10.3057C38.6998 10.5106 38.6654 10.7836 38.6654 11.0906V11.3295C38.6654 11.6706 38.6998 11.9436 38.7685 12.1826C38.8373 12.4215 38.941 12.6264 39.0785 12.7626C39.2166 12.8994 39.3541 13.0356 39.561 13.1037C39.7335 13.1718 39.9398 13.2059 40.1467 13.2059C40.4567 13.2059 40.7323 13.1378 40.9392 12.9669C41.146 12.7961 41.3179 12.5918 41.3873 12.2841H42.9723C42.938 12.6252 42.8342 12.9329 42.6967 13.2059C42.5592 13.4789 42.3523 13.7178 42.1111 13.9227C41.8698 14.1276 41.5942 14.2638 41.2498 14.3666C40.9742 14.4687 40.5948 14.5034 40.1817 14.5034L40.181 14.5046Z" fill="black"/>
<path d="M44.0731 14.3689V6.17773H45.6582V10.7172L47.9326 8.15743H49.7588L47.4157 10.7853L50.0001 14.3689H48.1394L46.3475 11.8432L45.6582 12.5941V14.3689H44.0731Z" fill="black"/>
<path fill-rule="evenodd" clip-rule="evenodd" d="M3.44568 3.41278C1.13689 5.66547 0 7.81602 0 9.96595V10C0 12.1499 1.13689 14.3345 3.44568 16.5872C5.7201 18.8399 7.92514 19.966 10.0964 20H10.1308C12.3015 20 14.5071 18.874 16.7815 16.5872C21.3304 12.0818 21.3647 7.95221 16.7815 3.37873C14.4727 1.12604 12.2677 0 10.0964 0C7.92514 0 5.7201 1.12604 3.44568 3.41278ZM6.44386 13.5836C3.92819 11.092 3.96257 8.8393 6.44386 6.38232C8.92515 3.92472 11.1996 3.89068 13.7146 6.38232C16.2303 8.87396 16.1959 11.1267 13.7146 13.5836C12.474 14.8124 11.2677 15.4265 10.0964 15.4265C8.89015 15.4606 7.71888 14.8465 6.44386 13.5836Z" fill="url(#paint0_linear_305_3279)"/>
<defs>
<linearGradient id="paint0_linear_305_3279" x1="3.36693" y1="17.0051" x2="16.1066" y2="3.51538" gradientUnits="userSpaceOnUse">
<stop stop-color="#0078FF"/>
<stop offset="1" stop-color="#00DEFF"/>
</linearGradient>
</defs>
</svg>
