<svg width="24" height="24" viewBox="0 0 24 24" fill="none" xmlns="http://www.w3.org/2000/svg">
<path d="M6.99937 5.00004C5.85008 4.99928 4.73562 5.39448 3.84356 6.11912C2.95151 6.84375 2.33632 7.85358 2.10154 8.97863C1.86676 10.1037 2.02673 11.2753 2.55452 12.2962C3.08231 13.3171 3.9457 14.1251 4.99937 14.584V17.25H18.9994V14.584C20.1107 14.0991 21.0079 13.2269 21.5242 12.1298C22.0405 11.0327 22.1405 9.78538 21.8058 8.61999C21.4711 7.4546 20.7245 6.45049 19.7047 5.79452C18.685 5.13855 17.4616 4.8754 16.2624 5.05404C15.96 4.16335 15.3862 3.38975 14.6216 2.84188C13.857 2.29401 12.94 1.99939 11.9994 1.99939C11.0587 1.99939 10.1418 2.29401 9.37716 2.84188C8.61256 3.38975 8.03877 4.16335 7.73637 5.05404C7.49236 5.01803 7.24603 4.99998 6.99937 5.00004ZM18.9974 18.75H5.00137C5.01137 20.147 5.08237 20.912 5.58537 21.414C6.17137 22 7.11337 22 8.99937 22H14.9994C16.8854 22 17.8274 22 18.4134 21.414C18.9164 20.912 18.9874 20.147 18.9974 18.75Z" fill="#52B69A"/>
</svg>