<svg width="30" height="30" viewBox="0 0 30 30" fill="none" xmlns="http://www.w3.org/2000/svg">
<path d="M8.75019 6.24959C7.31358 6.24865 5.9205 6.74265 4.80543 7.64844C3.69036 8.55423 2.92137 9.81652 2.6279 11.2228C2.33443 12.6291 2.53439 14.0936 3.19413 15.3698C3.85387 16.646 4.9331 17.6559 6.25019 18.2296V21.5621H23.7502V18.2296C25.1393 17.6234 26.2609 16.5332 26.9062 15.1618C27.5515 13.7904 27.6767 12.2313 27.2583 10.7745C26.8399 9.31779 25.9065 8.06265 24.6319 7.24269C23.3572 6.42273 21.828 6.09379 20.3289 6.31709C19.9509 5.20373 19.2337 4.23673 18.278 3.55189C17.3222 2.86706 16.176 2.49878 15.0002 2.49878C13.8244 2.49878 12.6782 2.86706 11.7224 3.55189C10.7667 4.23673 10.0494 5.20373 9.67144 6.31709C9.36642 6.27207 9.05851 6.24951 8.75019 6.24959ZM23.7477 23.4371H6.25269C6.26519 25.1833 6.35394 26.1396 6.98269 26.7671C7.71519 27.4996 8.89269 27.4996 11.2502 27.4996H18.7502C21.1077 27.4996 22.2852 27.4996 23.0177 26.7671C23.6464 26.1396 23.7352 25.1833 23.7477 23.4371Z" fill="#2D3748"/>
</svg>
