<svg width="24" height="24" viewBox="0 0 24 24" fill="none" xmlns="http://www.w3.org/2000/svg">
<path d="M12 2C6.477 2 2 6.477 2 12C2 12.463 2.694 12.54 2.933 12.143C3.44275 11.2987 4.13797 10.5814 4.96599 10.0455C5.794 9.50967 6.73311 9.16926 7.71217 9.0501C8.69123 8.93093 9.68457 9.03613 10.617 9.35772C11.5493 9.67932 12.3963 10.2089 13.0937 10.9063C13.7911 11.6037 14.3207 12.4507 14.6423 13.383C14.9639 14.3154 15.0691 15.3088 14.9499 16.2878C14.8307 17.2669 14.4903 18.206 13.9545 19.034C13.4186 19.862 12.7013 20.5572 11.857 21.067C11.46 21.307 11.537 22 12 22C17.523 22 22 17.523 22 12C22 6.477 17.523 2 12 2Z" fill="#52B69A"/>
</svg>
