<svg width="37" height="26" viewBox="0 0 37 26" fill="none" xmlns="http://www.w3.org/2000/svg">
<g clip-path="url(#clip0_1078_22067)" filter="url(#filter0_d_1078_22067)">
<path d="M31.9125 0.5H5.0875C4.48689 0.5 4 0.967707 4 1.54465V16.4553C4 17.0323 4.48689 17.5 5.0875 17.5H31.9125C32.5131 17.5 33 17.0323 33 16.4553V1.54465C33 0.967707 32.5131 0.5 31.9125 0.5Z" fill="white"/>
<path d="M14.7141 1.0429C17.8084 1.0429 20.9027 1.05334 23.9967 1.03593C24.8464 1.03106 25.6961 1.02653 26.5458 1.01643C26.6183 1.01539 26.69 1.02549 26.7622 1.03175C27.1076 1.06066 27.1975 1.326 27.2668 1.60562C27.9976 4.54562 27.7656 7.6768 26.4671 10.442C26.1209 11.1792 25.6982 11.8735 25.231 12.5428C24.8638 13.069 24.4636 13.5714 24.0257 14.0471C23.699 14.4019 23.3558 14.7407 22.9914 15.0573C22.306 15.6531 21.5784 16.1966 20.7302 16.5699C20.2803 16.7681 19.8087 16.892 19.3179 16.9582C18.8285 17.0244 18.3369 17.0237 17.8461 17.0132C15.1332 16.9568 12.4202 17.0007 9.70727 16.9888C8.30294 16.9829 6.89825 16.9874 5.49393 16.9888C5.34712 16.9888 5.20248 16.9777 5.064 16.9342C4.77618 16.8443 4.60182 16.602 4.5855 16.2806C4.58079 16.1893 4.58224 16.0978 4.58224 16.0065C4.58224 11.3303 4.58224 6.65408 4.58224 1.97821C4.58224 1.84449 4.58514 1.71182 4.61233 1.57776C4.67794 1.25705 4.94329 1.06588 5.28005 1.04638C5.39714 1.03941 5.51495 1.04255 5.6324 1.04255C8.65964 1.04255 11.6865 1.04255 14.7138 1.04185L14.7141 1.0429Z" fill="black"/>
<path d="M27.1739 13.7273C27.3425 13.6834 27.4795 13.5908 27.6082 13.4919C28.1574 13.0705 28.5656 12.5374 28.9139 11.9566C30.1696 9.86171 30.9091 7.51124 31.0541 5.08625C31.069 4.83937 31.0704 4.59318 31.0784 4.34664C31.0795 4.31007 31.0697 4.27107 31.1031 4.23138C31.2027 4.25923 31.2926 4.30624 31.3738 4.37519C32.3457 5.20256 32.5103 6.77372 32.4052 7.93502C32.1558 10.6842 30.5756 13.6183 28.0385 15.0376C27.9801 15.0704 27.921 15.102 27.8612 15.1327C27.4694 15.3336 27.0623 15.4914 26.6432 15.6265C26.5642 15.6519 26.4852 15.6777 26.4069 15.7031C26.7523 15.6846 27.2301 15.6268 27.7713 15.4558C29.2184 14.999 30.3712 13.9679 31.1716 12.7474C31.3684 12.4472 31.5449 12.1366 31.7175 11.8232C31.728 11.8044 31.7385 11.7846 31.7653 11.779C31.7972 11.7797 31.8103 11.8041 31.8212 11.8281C32.2232 12.7202 32.1195 13.635 31.5529 14.4411C30.4375 16.0273 28.0805 16.9741 26.1314 16.9817C24.3348 16.9887 22.5386 16.9866 20.7421 16.9863C20.6855 16.9863 20.5996 17.0148 20.584 16.9382C20.5674 16.8567 20.6591 16.8665 20.7116 16.8435C23.4373 15.6397 25.4995 13.5396 26.8437 10.975C28.0117 8.74637 28.5985 6.22388 28.3698 3.72925C28.2966 2.93009 28.1422 2.13754 27.9047 1.36833C27.8906 1.32202 27.8706 1.27675 27.8612 1.22939C27.8286 1.06364 27.8797 1.02185 28.0562 1.03857C28.4974 1.08 28.8867 1.23705 29.2336 1.49926C29.8901 1.99547 30.1421 2.89527 30.2936 3.65159C30.5771 5.06815 30.2874 6.63722 29.9427 8.02312C29.4943 9.82689 28.7374 11.5896 27.6459 13.1235C27.5295 13.2871 27.395 13.4386 27.27 13.596C27.2363 13.6385 27.2058 13.6831 27.1739 13.7266V13.7273Z" fill="black"/>
<path d="M11.6424 7.77913C11.6395 7.55662 11.5677 7.33272 11.3633 7.20771C11.1643 7.08618 10.8996 7.08862 10.743 7.27352C10.7303 7.28849 10.7032 7.31391 10.7111 7.33585C10.7191 7.35779 10.7684 7.35257 10.7891 7.36267C10.8246 7.37973 10.8387 7.41385 10.8376 7.45042C10.8362 7.4929 10.8358 7.89857 10.834 8.45781C10.3218 8.45502 9.80924 8.45189 9.29702 8.4491C9.28724 8.32688 9.28361 8.18968 9.29267 8.04065C9.30101 7.9031 9.3195 7.76625 9.34741 7.63114C9.35974 7.57194 9.37387 7.5131 9.38982 7.45494C9.40722 7.39087 9.45544 7.31217 9.45036 7.24497C9.44964 7.23591 9.44746 7.22686 9.44166 7.2199C9.42789 7.20353 9.40142 7.20632 9.3804 7.21154C9.2499 7.24357 9.12302 7.31043 9.02297 7.39714C8.99216 7.4236 8.90987 7.49882 8.83556 7.62696C8.63836 7.96613 8.62277 8.44667 8.62277 8.44667C8.61262 8.75728 8.59994 9.38686 8.94467 10.0405C8.94467 10.0405 9.1861 10.4987 9.53156 10.6115C9.59971 10.6338 9.6182 10.6192 9.624 10.6115C9.65082 10.5785 9.59319 10.5213 9.57615 10.4959C9.54461 10.4493 9.51779 10.3998 9.49459 10.3486C9.44674 10.2431 9.41484 10.1313 9.39127 10.0189C9.31914 9.67622 9.27237 9.3294 9.28252 8.97944H10.834V10.2947C10.834 10.3817 10.871 10.4656 10.9547 10.5067C11.0051 10.5314 11.0624 10.5402 11.1186 10.5468C11.2168 10.5586 11.3172 10.5649 11.4144 10.5468C11.4713 10.5363 11.5282 10.5165 11.5706 10.4785C11.6391 10.4176 11.6402 10.3347 11.6402 10.2515C11.6402 9.59091 11.6467 8.93034 11.6457 8.26977C11.6457 8.10576 11.6442 7.9421 11.6424 7.77809V7.77913Z" fill="white"/>
<path d="M9.51635 10.7767C8.89031 10.6008 8.64599 9.9636 8.51222 9.41098C8.48322 9.29049 8.45531 9.17175 8.43864 9.04883C8.38861 8.67728 8.39079 8.26882 8.51621 7.91016C8.42051 7.9307 8.37737 8.00975 8.32155 8.07382C8.11746 8.30782 8.10151 8.58117 8.09172 8.85278C8.06852 9.49072 8.31104 9.94445 8.36505 10.0419C8.48685 10.261 8.61952 10.4051 8.65867 10.4466C8.79787 10.5946 8.9378 10.6973 9.0451 10.7655C8.95991 10.7453 8.83956 10.7074 8.71087 10.6311C8.59161 10.5604 8.50642 10.4817 8.4506 10.4215C8.36976 10.3223 8.31285 10.2349 8.27587 10.1729C8.17619 10.0071 8.05221 9.80063 7.98914 9.5238C7.97137 9.44615 7.95941 9.3671 7.92751 9.36397C7.88147 9.35944 7.82964 9.51683 7.8184 9.55061C7.78215 9.6603 7.77309 9.76163 7.77345 9.81526C7.77599 10.0242 7.93911 10.4306 8.3288 10.7063C8.3288 10.7063 8.66955 10.9473 9.25245 10.9658C9.27637 10.9665 9.41739 10.9633 9.52215 10.8913C9.57362 10.8557 9.6077 10.8014 9.51635 10.776V10.7767Z" fill="white"/>
<path d="M8.51635 7.90796C8.51635 7.90796 8.51599 7.90935 8.51562 7.91005C8.51635 7.91005 8.51707 7.9097 8.5178 7.90935L8.51635 7.90796Z" fill="white"/>
<path d="M8.51562 7.90738L8.51724 7.909L8.52368 7.8999L8.51562 7.90738Z" fill="white"/>
<path d="M19.6548 7.70142C19.6573 7.62482 19.6548 7.5113 19.6262 7.37479C19.6233 7.36017 19.6196 7.32535 19.6011 7.28495C19.5914 7.26302 19.5638 7.20486 19.4996 7.16517C19.4652 7.14427 19.4268 7.13174 19.3862 7.13209C19.3579 7.13209 19.3296 7.13418 19.3017 7.13418C19.2626 7.13418 19.2234 7.13522 19.1843 7.13557C19.1081 7.13627 19.032 7.13452 18.9563 7.13731C18.8881 7.13975 18.8243 7.16203 18.7757 7.21113C18.7181 7.26928 18.6721 7.35216 18.5959 7.52975C18.5832 7.559 18.5731 7.58407 18.5662 7.60114C18.5372 7.66138 18.1279 8.51382 17.9732 8.76035C17.9619 8.77881 17.9365 8.81816 17.9054 8.81677C17.8738 8.81816 17.8488 8.77881 17.8376 8.76035C17.6832 8.51347 17.2735 7.66138 17.2445 7.60114C17.2376 7.58407 17.2275 7.55935 17.2148 7.52975C17.1387 7.35216 17.0926 7.26928 17.035 7.21113C16.9868 7.16203 16.923 7.13975 16.8545 7.13731C16.7784 7.13487 16.7022 7.13627 16.6265 7.13557C16.5873 7.13557 16.5482 7.13452 16.509 7.13418C16.4807 7.13418 16.4525 7.13244 16.4246 7.13209C16.384 7.13209 16.3459 7.14427 16.3111 7.16517C16.2469 7.20486 16.2194 7.26302 16.2096 7.28495C16.1911 7.32535 16.1875 7.36017 16.1846 7.37479C16.1563 7.51164 16.1534 7.62516 16.1559 7.70142C16.1262 8.57858 16.0965 9.45505 16.0664 10.3322C16.0675 10.3468 16.0704 10.367 16.0787 10.3897C16.1255 10.5182 16.2951 10.5812 16.4256 10.5829C16.5576 10.5847 16.7153 10.5244 16.7711 10.4081C16.7711 10.4081 16.782 10.3841 16.7874 10.359C16.8262 10.1804 16.8487 8.7419 16.857 8.11545C17.2144 8.81885 17.4939 9.34466 17.6233 9.57658C17.6494 9.62428 17.7056 9.72004 17.8089 9.75278C17.8387 9.76253 17.8717 9.76775 17.9054 9.7681C17.9391 9.7681 17.9721 9.76253 18.0018 9.75278C18.1051 9.72004 18.1609 9.62428 18.1874 9.57658C18.3164 9.34466 18.5963 8.81885 18.9537 8.11545C18.9621 8.74225 18.9845 10.1804 19.0233 10.359C19.0288 10.3841 19.0396 10.4081 19.0396 10.4081C19.0955 10.5244 19.2531 10.5847 19.3851 10.5829C19.516 10.5812 19.6852 10.5182 19.732 10.3897C19.7403 10.367 19.7432 10.3468 19.7443 10.3322C19.7146 9.45505 19.6849 8.57858 19.6548 7.70142Z" fill="white"/>
<path d="M13.2878 9.77759C13.2958 9.77863 13.3037 9.78003 13.311 9.78211C13.311 9.78281 13.311 9.78316 13.3103 9.78386C13.3041 9.79361 13.2831 9.78803 13.2878 9.77759Z" fill="white"/>
<path d="M15.354 7.23664C15.2797 7.14645 15.1529 7.14297 15.0307 7.13983C14.9151 7.1367 14.7679 7.13287 14.6758 7.23107C14.6247 7.28574 14.6106 7.35016 14.6062 7.38916C14.604 8.03649 14.6019 8.68348 14.5997 9.33082C14.6008 9.3942 14.5942 9.51363 14.5275 9.64491C14.4572 9.7835 14.3575 9.8622 14.3322 9.88135C14.3322 9.88135 14.1625 10.0102 13.9407 10.0273C13.9185 10.029 13.895 10.0297 13.895 10.0297C13.8892 10.0297 13.8834 10.0297 13.8776 10.03C13.8718 10.03 13.866 10.03 13.8602 10.0297C13.8602 10.0297 13.837 10.029 13.8145 10.0273C13.5927 10.0098 13.423 9.88135 13.423 9.88135C13.3973 9.86185 13.2979 9.7835 13.2276 9.64491C13.1609 9.51363 13.1544 9.3942 13.1555 9.33082C13.1533 8.68348 13.1511 8.03649 13.149 7.38916C13.1446 7.35016 13.1308 7.28574 13.0794 7.23107C12.9873 7.13287 12.8401 7.1367 12.7245 7.13983C12.6027 7.14297 12.4754 7.14645 12.4011 7.23664C12.3428 7.30733 12.3475 7.39473 12.3522 7.43268V9.46488C12.3522 9.65397 12.4087 9.90434 12.5976 10.1422C12.8097 10.4093 13.1109 10.5283 13.2037 10.5614C13.3918 10.6286 13.5771 10.6474 13.6336 10.6527C13.7319 10.6621 13.8156 10.6624 13.8776 10.6607C13.9396 10.6624 14.0233 10.6621 14.1215 10.6527C14.1781 10.6471 14.3633 10.6283 14.5515 10.5614C14.6443 10.5283 14.9455 10.4093 15.1576 10.1422C15.3461 9.90434 15.403 9.65397 15.403 9.46488V7.43268C15.4077 7.39473 15.4124 7.30733 15.354 7.23664Z" fill="white"/>
<path d="M13.459 10.6165C13.4655 10.6175 13.4717 10.6192 13.4775 10.6217L13.467 10.6279L13.4593 10.6165H13.459Z" fill="white"/>
<path d="M23.7476 8.21436C23.6454 7.88808 23.4366 7.60045 23.1531 7.3957C22.8315 7.16378 22.4328 7.04226 22.0322 7.0332C21.6317 7.04226 21.2329 7.16378 20.9114 7.3957C20.6275 7.60045 20.4187 7.88808 20.3169 8.21436C20.0251 9.15106 20.4641 10.3461 21.5146 10.6104C21.6842 10.6529 21.8586 10.671 22.0322 10.6665C22.2062 10.671 22.3806 10.6529 22.5499 10.6104C23.6004 10.3461 24.0394 9.15106 23.7476 8.21436ZM22.9675 9.26006C22.8576 9.70369 22.551 10.1804 22.0319 10.1856C21.5128 10.1804 21.2061 9.70369 21.0963 9.26006C20.9904 8.83279 21.01 8.32962 21.259 7.94832C21.4316 7.68402 21.7252 7.52767 22.0315 7.52558C22.3382 7.52767 22.6314 7.68437 22.804 7.94832C23.053 8.32962 23.0726 8.83279 22.9668 9.26006H22.9675Z" fill="white"/>
</g>
<defs>
<filter id="filter0_d_1078_22067" x="0" y="0.5" width="37" height="25" filterUnits="userSpaceOnUse" color-interpolation-filters="sRGB">
<feFlood flood-opacity="0" result="BackgroundImageFix"/>
<feColorMatrix in="SourceAlpha" type="matrix" values="0 0 0 0 0 0 0 0 0 0 0 0 0 0 0 0 0 0 127 0" result="hardAlpha"/>
<feOffset dy="4"/>
<feGaussianBlur stdDeviation="2"/>
<feComposite in2="hardAlpha" operator="out"/>
<feColorMatrix type="matrix" values="0 0 0 0 0 0 0 0 0 0 0 0 0 0 0 0 0 0 0.25 0"/>
<feBlend mode="normal" in2="BackgroundImageFix" result="effect1_dropShadow_1078_22067"/>
<feBlend mode="normal" in="SourceGraphic" in2="effect1_dropShadow_1078_22067" result="shape"/>
</filter>
<clipPath id="clip0_1078_22067">
<rect width="29" height="17" fill="white" transform="translate(4 0.5)"/>
</clipPath>
</defs>
</svg>
