<svg width="37" height="25" viewBox="0 0 37 25" fill="none" xmlns="http://www.w3.org/2000/svg">
<g clip-path="url(#clip0_110_1020)" filter="url(#filter0_d_110_1020)">
<path d="M31.9125 0H5.0875C4.48689 0 4 0.467707 4 1.04465V15.9553C4 16.5323 4.48689 17 5.0875 17H31.9125C32.5131 17 33 16.5323 33 15.9553V1.04465C33 0.467707 32.5131 0 31.9125 0Z" fill="white"/>
<path d="M14.7151 0.542897C17.8094 0.542897 20.9037 0.553344 23.9976 0.535933C24.8473 0.531058 25.697 0.526531 26.5467 0.516432C26.6192 0.515388 26.691 0.525486 26.7631 0.531754C27.1086 0.560656 27.1985 0.825998 27.2677 1.10562C27.9985 4.04562 27.7665 7.1768 26.4681 9.942C26.1219 10.6792 25.6992 11.3735 25.2319 12.0428C24.8647 12.569 24.4645 13.0714 24.0266 13.5471C23.7 13.9019 23.3567 14.2407 22.9924 14.5573C22.3069 15.1531 21.5794 15.6966 20.7311 16.0699C20.2813 16.2681 19.8097 16.392 19.3188 16.4582C18.8295 16.5244 18.3379 16.5237 17.8471 16.5132C15.1341 16.4568 12.4212 16.5007 9.70824 16.4888C8.30392 16.4829 6.89923 16.4874 5.49491 16.4888C5.34809 16.4888 5.20346 16.4777 5.06498 16.4342C4.77716 16.3443 4.60279 16.102 4.58648 15.7806C4.58177 15.6893 4.58322 15.5978 4.58322 15.5065C4.58322 10.8303 4.58322 6.15408 4.58322 1.47821C4.58322 1.34449 4.58612 1.21182 4.61331 1.07776C4.67892 0.757051 4.94427 0.565879 5.28103 0.546379C5.39812 0.539415 5.51593 0.542549 5.63338 0.542549C8.66062 0.542549 11.6875 0.542549 14.7147 0.541852L14.7151 0.542897Z" fill="black"/>
<path d="M27.1749 13.2273C27.3435 13.1834 27.4805 13.0908 27.6092 12.9919C28.1584 12.5705 28.5665 12.0374 28.9149 11.4566C30.1706 9.36171 30.9101 7.01124 31.0551 4.58625C31.07 4.33937 31.0714 4.09318 31.0794 3.84664C31.0805 3.81007 31.0707 3.77107 31.104 3.73138C31.2037 3.75923 31.2936 3.80624 31.3748 3.87519C32.3467 4.70256 32.5113 6.27372 32.4061 7.43502C32.1567 10.1842 30.5766 13.1183 28.0395 14.5376C27.9811 14.5704 27.922 14.602 27.8622 14.6327C27.4703 14.8336 27.0632 14.9914 26.6442 15.1265C26.5652 15.1519 26.4861 15.1777 26.4078 15.2031C26.7533 15.1846 27.2311 15.1268 27.7723 14.9558C29.2194 14.499 30.3721 13.4679 31.1725 12.2474C31.3694 11.9472 31.5459 11.6366 31.7185 11.3232C31.729 11.3044 31.7395 11.2846 31.7663 11.279C31.7982 11.2797 31.8113 11.3041 31.8221 11.3281C32.2242 12.2202 32.1205 13.135 31.5539 13.9411C30.4385 15.5273 28.0815 16.4741 26.1323 16.4817C24.3358 16.4887 22.5396 16.4866 20.7431 16.4863C20.6865 16.4863 20.6006 16.5148 20.585 16.4382C20.5683 16.3567 20.66 16.3665 20.7126 16.3435C23.4382 15.1397 25.5005 13.0396 26.8447 10.475C28.0126 8.24637 28.5995 5.72388 28.3708 3.22925C28.2976 2.43009 28.1431 1.63754 27.9057 0.868329C27.8916 0.822016 27.8716 0.776748 27.8622 0.72939C27.8296 0.563639 27.8807 0.521852 28.0572 0.538567C28.4984 0.580005 28.8877 0.737051 29.2346 0.999259C29.8911 1.49547 30.143 2.39527 30.2946 3.15159C30.578 4.56815 30.2884 6.13722 29.9437 7.52312C29.4953 9.32689 28.7384 11.0896 27.6469 12.6235C27.5305 12.7871 27.396 12.9386 27.271 13.096C27.2372 13.1385 27.2068 13.1831 27.1749 13.2266V13.2273Z" fill="black"/>
<path d="M11.6414 7.27913C11.6385 7.05662 11.5667 6.83272 11.3623 6.70771C11.1633 6.58618 10.8987 6.58862 10.7421 6.77352C10.7294 6.78849 10.7022 6.81391 10.7102 6.83585C10.7181 6.85779 10.7674 6.85257 10.7881 6.86267C10.8236 6.87973 10.8378 6.91385 10.8367 6.95042C10.8352 6.9929 10.8349 7.39857 10.833 7.95781C10.3208 7.95502 9.80826 7.95189 9.29605 7.9491C9.28626 7.82688 9.28263 7.68968 9.2917 7.54065C9.30003 7.4031 9.31852 7.26625 9.34643 7.13114C9.35876 7.07194 9.3729 7.0131 9.38885 6.95494C9.40625 6.89087 9.45446 6.81217 9.44938 6.74497C9.44866 6.73591 9.44648 6.72686 9.44068 6.7199C9.42691 6.70353 9.40045 6.70632 9.37942 6.71154C9.24892 6.74357 9.12205 6.81043 9.022 6.89714C8.99118 6.9236 8.9089 6.99882 8.83458 7.12696C8.63738 7.46613 8.6218 7.94667 8.6218 7.94667C8.61165 8.25728 8.59896 8.88686 8.9437 9.54046C8.9437 9.54046 9.18512 9.99872 9.53058 10.1115C9.59873 10.1338 9.61722 10.1192 9.62302 10.1115C9.64985 10.0785 9.59221 10.0213 9.57517 9.99593C9.54363 9.94927 9.51681 9.89982 9.49361 9.84863C9.44576 9.74312 9.41386 9.63135 9.3903 9.51887C9.31816 9.17622 9.2714 8.8294 9.28155 8.47944H10.833V9.79466C10.833 9.88171 10.87 9.96563 10.9538 10.0067C11.0041 10.0314 11.0614 10.0402 11.1176 10.0468C11.2158 10.0586 11.3163 10.0649 11.4134 10.0468C11.4703 10.0363 11.5272 10.0165 11.5696 9.97852C11.6382 9.91758 11.6392 9.83471 11.6392 9.75148C11.6392 9.09091 11.6458 8.43034 11.6447 7.76977C11.6447 7.60576 11.6432 7.4421 11.6414 7.27809V7.27913Z" fill="white"/>
<path d="M9.51537 10.2767C8.88933 10.1008 8.64501 9.4636 8.51125 8.91098C8.48225 8.79049 8.45433 8.67175 8.43766 8.54883C8.38763 8.17728 8.38981 7.76882 8.51523 7.41016C8.41953 7.4307 8.3764 7.50975 8.32057 7.57382C8.11648 7.80782 8.10053 8.08117 8.09075 8.35278C8.06755 8.99072 8.31006 9.44445 8.36407 9.54195C8.48587 9.76098 8.61855 9.90514 8.6577 9.94658C8.7969 10.0946 8.93682 10.1973 9.04412 10.2655C8.95893 10.2453 8.83858 10.2074 8.7099 10.1311C8.59063 10.0604 8.50545 9.98175 8.44962 9.9215C8.36878 9.82226 8.31187 9.73486 8.2749 9.67288C8.17521 9.50712 8.05123 9.30063 7.98816 9.0238C7.9704 8.94615 7.95843 8.8671 7.92653 8.86397C7.8805 8.85944 7.82866 9.01683 7.81742 9.05061C7.78117 9.1603 7.77211 9.26163 7.77247 9.31526C7.77501 9.52419 7.93813 9.93056 8.32782 10.2063C8.32782 10.2063 8.66857 10.4473 9.25147 10.4658C9.2754 10.4665 9.41641 10.4633 9.52117 10.3913C9.57265 10.3557 9.60672 10.3014 9.51537 10.276V10.2767Z" fill="white"/>
<path d="M8.51635 7.40796C8.51635 7.40796 8.51599 7.40935 8.51562 7.41005C8.51635 7.41005 8.51707 7.4097 8.5178 7.40935L8.51635 7.40796Z" fill="white"/>
<path d="M8.51562 7.40738L8.51724 7.409L8.52368 7.3999L8.51562 7.40738Z" fill="white"/>
<path d="M19.6538 7.20142C19.6564 7.12482 19.6538 7.0113 19.6252 6.87479C19.6223 6.86017 19.6187 6.82535 19.6002 6.78495C19.5904 6.76302 19.5628 6.70486 19.4987 6.66517C19.4642 6.64427 19.4258 6.63174 19.3852 6.63209C19.3569 6.63209 19.3287 6.63418 19.3007 6.63418C19.2616 6.63418 19.2224 6.63522 19.1833 6.63557C19.1072 6.63627 19.031 6.63452 18.9553 6.63731C18.8871 6.63975 18.8233 6.66203 18.7748 6.71113C18.7171 6.76928 18.6711 6.85216 18.595 7.02975C18.5823 7.059 18.5721 7.08407 18.5652 7.10114C18.5362 7.16138 18.127 8.01382 17.9722 8.26035C17.9609 8.27881 17.9356 8.31816 17.9044 8.31677C17.8729 8.31816 17.8478 8.27881 17.8366 8.26035C17.6822 8.01347 17.2726 7.16138 17.2436 7.10114C17.2367 7.08407 17.2265 7.05935 17.2138 7.02975C17.1377 6.85216 17.0917 6.76928 17.034 6.71113C16.9858 6.66203 16.922 6.63975 16.8535 6.63731C16.7774 6.63487 16.7013 6.63627 16.6255 6.63557C16.5863 6.63557 16.5472 6.63452 16.508 6.63418C16.4798 6.63418 16.4515 6.63244 16.4236 6.63209C16.383 6.63209 16.3449 6.64427 16.3101 6.66517C16.246 6.70486 16.2184 6.76302 16.2086 6.78495C16.1901 6.82535 16.1865 6.86017 16.1836 6.87479C16.1553 7.01164 16.1524 7.12516 16.155 7.20142C16.1252 8.07858 16.0955 8.95505 16.0654 9.83221C16.0665 9.84683 16.0694 9.86703 16.0778 9.88967C16.1245 10.0182 16.2942 10.0812 16.4247 10.0829C16.5566 10.0847 16.7143 10.0244 16.7701 9.90812C16.7701 9.90812 16.781 9.88409 16.7864 9.85902C16.8252 9.68039 16.8477 8.2419 16.856 7.61545C17.2135 8.31885 17.493 8.84466 17.6224 9.07658C17.6485 9.12428 17.7047 9.22004 17.808 9.25278C17.8377 9.26253 17.8707 9.26775 17.9044 9.2681C17.9381 9.2681 17.9711 9.26253 18.0008 9.25278C18.1041 9.22004 18.16 9.12428 18.1864 9.07658C18.3155 8.84466 18.5953 8.31885 18.9527 7.61545C18.9611 8.24225 18.9836 9.68039 19.0223 9.85902C19.0278 9.88409 19.0387 9.90812 19.0387 9.90812C19.0945 10.0244 19.2522 10.0847 19.3841 10.0829C19.515 10.0812 19.6843 10.0182 19.731 9.88967C19.7394 9.86703 19.7423 9.84683 19.7434 9.83221C19.7136 8.95505 19.6839 8.07858 19.6538 7.20142Z" fill="white"/>
<path d="M13.2868 9.27759C13.2948 9.27863 13.3028 9.28003 13.31 9.28211C13.31 9.28281 13.31 9.28316 13.3093 9.28386C13.3031 9.29361 13.2821 9.28803 13.2868 9.27759Z" fill="white"/>
<path d="M15.3531 6.73664C15.2788 6.64645 15.1519 6.64297 15.0297 6.63983C14.9141 6.6367 14.7669 6.63287 14.6748 6.73107C14.6237 6.78574 14.6096 6.85016 14.6052 6.88916C14.6031 7.53649 14.6009 8.18348 14.5987 8.83082C14.5998 8.8942 14.5933 9.01363 14.5266 9.14491C14.4562 9.2835 14.3566 9.3622 14.3312 9.38135C14.3312 9.38135 14.1615 9.51019 13.9397 9.52726C13.9176 9.529 13.894 9.52969 13.894 9.52969C13.8882 9.52969 13.8824 9.52969 13.8766 9.53004C13.8708 9.53004 13.865 9.53004 13.8592 9.52969C13.8592 9.52969 13.836 9.529 13.8135 9.52726C13.5917 9.50985 13.422 9.38135 13.422 9.38135C13.3963 9.36185 13.297 9.2835 13.2266 9.14491C13.1599 9.01363 13.1534 8.8942 13.1545 8.83082C13.1523 8.18348 13.1502 7.53649 13.148 6.88916C13.1436 6.85016 13.1299 6.78574 13.0784 6.73107C12.9863 6.63287 12.8391 6.6367 12.7235 6.63983C12.6017 6.64297 12.4745 6.64645 12.4001 6.73664C12.3418 6.80733 12.3465 6.89473 12.3512 6.93268V8.96488C12.3512 9.15397 12.4078 9.40434 12.5966 9.64217C12.8087 9.90925 13.1099 10.0283 13.2027 10.0614C13.3909 10.1286 13.5761 10.1474 13.6326 10.1527C13.7309 10.1621 13.8146 10.1624 13.8766 10.1607C13.9386 10.1624 14.0223 10.1621 14.1206 10.1527C14.1771 10.1471 14.3624 10.1283 14.5505 10.0614C14.6433 10.0283 14.9445 9.90925 15.1566 9.64217C15.3451 9.40434 15.402 9.15397 15.402 8.96488V6.93268C15.4067 6.89473 15.4114 6.80733 15.3531 6.73664Z" fill="white"/>
<path d="M13.46 10.1165C13.4665 10.1175 13.4726 10.1192 13.4784 10.1217L13.4679 10.1279L13.4603 10.1165H13.46Z" fill="white"/>
<path d="M23.7476 7.71436C23.6454 7.38808 23.4366 7.10045 23.1531 6.8957C22.8315 6.66378 22.4328 6.54226 22.0322 6.5332C21.6317 6.54226 21.2329 6.66378 20.9114 6.8957C20.6275 7.10045 20.4187 7.38808 20.3169 7.71436C20.0251 8.65106 20.4641 9.84615 21.5146 10.1104C21.6842 10.1529 21.8586 10.171 22.0322 10.1665C22.2062 10.171 22.3806 10.1529 22.5499 10.1104C23.6004 9.84615 24.0394 8.65106 23.7476 7.71436ZM22.9675 8.76006C22.8576 9.20369 22.551 9.6804 22.0319 9.68562C21.5128 9.6804 21.2061 9.20369 21.0963 8.76006C20.9904 8.33279 21.01 7.82962 21.259 7.44832C21.4316 7.18402 21.7252 7.02767 22.0315 7.02558C22.3382 7.02767 22.6314 7.18437 22.804 7.44832C23.053 7.82962 23.0726 8.33279 22.9668 8.76006H22.9675Z" fill="white"/>
</g>
<defs>
<filter id="filter0_d_110_1020" x="0" y="0" width="37" height="25" filterUnits="userSpaceOnUse" color-interpolation-filters="sRGB">
<feFlood flood-opacity="0" result="BackgroundImageFix"/>
<feColorMatrix in="SourceAlpha" type="matrix" values="0 0 0 0 0 0 0 0 0 0 0 0 0 0 0 0 0 0 127 0" result="hardAlpha"/>
<feOffset dy="4"/>
<feGaussianBlur stdDeviation="2"/>
<feComposite in2="hardAlpha" operator="out"/>
<feColorMatrix type="matrix" values="0 0 0 0 0 0 0 0 0 0 0 0 0 0 0 0 0 0 0.25 0"/>
<feBlend mode="normal" in2="BackgroundImageFix" result="effect1_dropShadow_110_1020"/>
<feBlend mode="normal" in="SourceGraphic" in2="effect1_dropShadow_110_1020" result="shape"/>
</filter>
<clipPath id="clip0_110_1020">
<rect width="29" height="17" fill="white" transform="translate(4)"/>
</clipPath>
</defs>
</svg>
