<svg width="34" height="34" viewBox="0 0 34 34" fill="none" xmlns="http://www.w3.org/2000/svg">
<path d="M17 31.1666C15.0639 31.1666 13.2341 30.7945 11.5105 30.0503C9.78685 29.306 8.2814 28.2908 6.99413 27.0044C5.70779 25.7181 4.69251 24.2131 3.94829 22.4895C3.20407 20.7659 2.83243 18.936 2.83338 16.9999C2.83338 15.0402 3.20549 13.2042 3.94971 11.4919C4.69393 9.77964 5.70921 8.28081 6.99554 6.99542C8.28188 5.70814 9.78638 4.69286 11.509 3.94959C13.2317 3.20631 15.062 2.8342 17 2.83325C18.9598 2.83325 20.7958 3.20536 22.508 3.94959C24.2203 4.69381 25.7192 5.70909 27.0045 6.99542C28.2918 8.28175 29.3071 9.78106 30.0504 11.4933C30.7937 13.2056 31.1658 15.0411 31.1667 16.9999C31.1667 18.936 30.7946 20.7659 30.0504 22.4895C29.3062 24.2131 28.2909 25.7186 27.0045 27.0058C25.7182 28.2922 24.2189 29.3074 22.5066 30.0517C20.7943 30.7959 18.9588 31.1675 17 31.1666ZM17 28.2624C17.6139 27.4124 18.1452 26.527 18.5938 25.6062C19.0424 24.6853 19.4084 23.7055 19.6917 22.6666H14.3084C14.5917 23.7055 14.9577 24.6853 15.4063 25.6062C15.8549 26.527 16.3862 27.4124 17 28.2624ZM13.3167 27.6957C12.8917 26.9166 12.5196 26.1077 12.2004 25.269C11.8812 24.4303 11.6158 23.5629 11.4042 22.6666H7.22504C7.90976 23.8471 8.7659 24.8742 9.79346 25.7478C10.821 26.6214 11.9954 27.2708 13.3167 27.6957ZM20.6834 27.6957C22.0056 27.2708 23.1805 26.6214 24.208 25.7478C25.2356 24.8742 26.0913 23.8471 26.775 22.6666H22.5959C22.3834 23.5638 22.118 24.4318 21.7997 25.2704C21.4814 26.1091 21.1093 26.9175 20.6834 27.6957ZM6.02088 19.8333H10.8375C10.7667 19.361 10.7133 18.8945 10.6775 18.4336C10.6416 17.9727 10.6241 17.4948 10.625 16.9999C10.625 16.5041 10.643 16.0262 10.6789 15.5663C10.7148 15.1063 10.7677 14.6398 10.8375 14.1666H6.02088C5.90282 14.6388 5.81404 15.1054 5.75454 15.5663C5.69504 16.0271 5.66576 16.505 5.66671 16.9999C5.66671 17.4958 5.69646 17.9736 5.75596 18.4336C5.81546 18.8935 5.90376 19.3601 6.02088 19.8333ZM13.6709 19.8333H20.3292C20.4 19.361 20.4534 18.8945 20.4893 18.4336C20.5252 17.9727 20.5427 17.4948 20.5417 16.9999C20.5417 16.5041 20.5238 16.0262 20.4879 15.5663C20.452 15.1063 20.3991 14.6398 20.3292 14.1666H13.6709C13.6 14.6388 13.5467 15.1054 13.5108 15.5663C13.4749 16.0271 13.4574 16.505 13.4584 16.9999C13.4584 17.4958 13.4763 17.9736 13.5122 18.4336C13.5481 18.8935 13.601 19.3601 13.6709 19.8333ZM23.1625 19.8333H27.9792C28.0973 19.361 28.186 18.8945 28.2455 18.4336C28.305 17.9727 28.3343 17.4948 28.3334 16.9999C28.3334 16.5041 28.3036 16.0262 28.2441 15.5663C28.1846 15.1063 28.0963 14.6398 27.9792 14.1666H23.1625C23.2334 14.6388 23.2867 15.1054 23.3226 15.5663C23.3585 16.0271 23.376 16.505 23.375 16.9999C23.375 17.4958 23.3571 17.9736 23.3212 18.4336C23.2853 18.8935 23.2324 19.3601 23.1625 19.8333ZM22.5959 11.3333H26.775C26.0903 10.1527 25.2347 9.12561 24.208 8.252C23.1814 7.37839 22.0065 6.72908 20.6834 6.30409C21.1084 7.08325 21.4805 7.89217 21.7997 8.73084C22.1189 9.5695 22.3843 10.437 22.5959 11.3333ZM14.3084 11.3333H19.6917C19.4084 10.2944 19.0424 9.3145 18.5938 8.39367C18.1452 7.47284 17.6139 6.58742 17 5.73742C16.3862 6.58742 15.8549 7.47284 15.4063 8.39367C14.9577 9.3145 14.5917 10.2944 14.3084 11.3333ZM7.22504 11.3333H11.4042C11.6167 10.436 11.8826 9.56809 12.2018 8.72942C12.521 7.89075 12.8927 7.08231 13.3167 6.30409C11.9945 6.72908 10.8196 7.37839 9.79204 8.252C8.76449 9.12561 7.90882 10.1527 7.22504 11.3333Z" fill="#52B69A"/>
</svg>
