<svg width="30" height="30" viewBox="0 0 30 30" fill="none" xmlns="http://www.w3.org/2000/svg">
<path d="M15 1.25C17.9837 1.25 20.8452 2.43526 22.955 4.54505C25.0647 6.65483 26.25 9.51631 26.25 12.5C26.25 17.1575 22.7 22.0375 15.75 27.25C15.5336 27.4123 15.2705 27.5 15 27.5C14.7295 27.5 14.4664 27.4123 14.25 27.25C7.3 22.0375 3.75 17.1575 3.75 12.5C3.75 9.51631 4.93526 6.65483 7.04505 4.54505C9.15483 2.43526 12.0163 1.25 15 1.25ZM15 8.75C14.0054 8.75 13.0516 9.14509 12.3483 9.84835C11.6451 10.5516 11.25 11.5054 11.25 12.5C11.25 13.4946 11.6451 14.4484 12.3483 15.1517C13.0516 15.8549 14.0054 16.25 15 16.25C15.9946 16.25 16.9484 15.8549 17.6517 15.1517C18.3549 14.4484 18.75 13.4946 18.75 12.5C18.75 11.5054 18.3549 10.5516 17.6517 9.84835C16.9484 9.14509 15.9946 8.75 15 8.75Z" fill="white"/>
</svg>
