<svg width="101" height="52" viewBox="0 0 101 52" fill="none" xmlns="http://www.w3.org/2000/svg">
<rect x="71.1899" y="16.5176" width="12.8024" height="35.4823" fill="#FFA92C"/>
<path d="M13.2062 38.9934V2.71362L2.82936 10.5009C1.04874 11.8372 0 13.9397 0 16.1732V44.8336C0 48.7432 3.15339 51.9126 7.04328 51.9126H27.515C28.9742 51.9126 30.3973 51.4571 31.5877 50.6091L47.8943 38.9934H13.2062Z" fill="#2D3748"/>
<path d="M28.0828 0H16.6111V35.4361H50.1658V0H38.6941V23.9122H28.0828V0Z" fill="#22B573"/>
<path d="M54.5789 0H67.4845H89.874C96.0187 0 101 4.99861 101 11.1647V36.9477C101 38.3415 100.369 39.6598 99.2839 40.5305L88.0451 49.5529V12.5412H67.4845V23.9075C67.4845 25.2806 66.8716 26.5816 65.8142 27.4531L54.5789 35.3365V0Z" fill="#2D3748"/>
</svg>
