<svg width="59" height="32" viewBox="0 0 59 32" fill="none" xmlns="http://www.w3.org/2000/svg">
<rect x="41.5862" y="10.4609" width="7.47863" height="20.7273" fill="#FFA92C"/>
<path d="M7.71449 23.5906V2.39746L1.6528 6.94647C0.612629 7.72706 0 8.95525 0 10.26V27.0022C0 29.286 1.84208 31.1375 4.11439 31.1375H16.0731C16.9255 31.1375 17.7568 30.8714 18.4522 30.376L27.9779 23.5906H7.71449Z" fill="white"/>
<path d="M16.4048 0.812012H9.70349V21.5123H29.3048V0.812012H22.6035V14.7805H16.4048V0.812012Z" fill="#22B573"/>
<path d="M31.8827 0.812012H39.4216H52.5006C56.0901 0.812012 58.9999 3.73199 58.9999 7.33397V22.3953C58.9999 23.2095 58.6311 23.9796 57.9975 24.4883L51.4323 29.7588V8.13804H39.4216V14.7778C39.4216 15.5799 39.0636 16.3399 38.4459 16.849L31.8827 21.4541V0.812012Z" fill="white"/>
</svg>
