<svg width="24" height="24" viewBox="0 0 24 24" fill="none" xmlns="http://www.w3.org/2000/svg">
<path d="M12.0006 6.65404C12.8103 7.28958 13.4647 8.10099 13.9145 9.02684C14.3643 9.95269 14.5975 10.9687 14.5966 11.998C14.5974 13.0274 14.364 14.0435 13.9141 14.9694C13.4641 15.8952 12.8094 16.7066 11.9996 17.342C11.1899 16.7065 10.5354 15.8951 10.0857 14.9692C9.63592 14.0434 9.40267 13.0273 9.40359 11.998C9.40267 10.9687 9.63592 9.95269 10.0857 9.02684C10.5354 8.10099 11.1899 7.28958 11.9996 6.65404H12.0006ZM11.1306 6.07204C10.2737 6.80371 9.58594 7.7127 9.11476 8.73619C8.64359 9.75969 8.40026 10.8733 8.40159 12C8.40036 13.1264 8.64364 14.2396 9.11464 15.2627C9.58563 16.2858 10.2731 17.1945 11.1296 17.926C10.095 18.5068 8.92637 18.8067 7.73993 18.7959C6.55349 18.7851 5.39054 18.4639 4.36669 17.8644C3.34284 17.2648 2.49374 16.4077 1.90379 15.3783C1.31385 14.3489 1.00361 13.183 1.00391 11.9965C1.00421 10.81 1.31504 9.64424 1.9055 8.61511C2.49597 7.58599 3.3455 6.72932 4.36966 6.13027C5.39382 5.53123 6.55693 5.21066 7.74337 5.20045C8.92981 5.19023 10.0983 5.49072 11.1326 6.07204H11.1306ZM12.8726 17.926C13.729 17.1945 14.4165 16.2858 14.8875 15.2627C15.3584 14.2395 15.6018 13.1264 15.6006 12C15.6018 10.8732 15.3583 9.75957 14.887 8.73606C14.4156 7.71256 13.7276 6.80361 12.8706 6.07204C13.9049 5.49072 15.0734 5.19023 16.2598 5.20045C17.4463 5.21066 18.6094 5.53123 19.6335 6.13027C20.6577 6.72932 21.5072 7.58599 22.0977 8.61511C22.6881 9.64424 22.999 10.81 22.9993 11.9965C22.9996 13.183 22.6893 14.3489 22.0994 15.3783C21.5094 16.4077 20.6603 17.2648 19.6365 17.8644C18.6126 18.4639 17.4497 18.7851 16.2633 18.7959C15.0768 18.8067 13.9072 18.5068 12.8726 17.926Z" fill="black"/>
</svg>
