<svg width="310" height="299" viewBox="0 0 310 299" fill="none" xmlns="http://www.w3.org/2000/svg">
<path d="M196.779 252.504C195.903 252.502 195.429 251.48 195.995 250.812C199.696 246.44 201.812 234.694 224.403 234.958C241.456 235.157 265.669 232.232 279.821 246.791C284.575 251.681 283.222 252.702 283.222 252.702L196.779 252.504Z" fill="#15286D"/>
<path d="M248.556 80.7144C248.557 80.6798 248.557 80.6568 248.557 80.6568C248.557 73.1658 242.485 67.0938 234.994 67.0938C227.503 67.0938 221.431 73.1665 221.431 80.6568C221.431 80.6568 221.432 80.6806 221.433 80.7144C221.44 82.371 221.744 83.9563 222.294 85.4221C223.59 89.8599 226.834 96.7339 234.974 103.144H235.014C243.154 96.7339 246.399 89.8599 247.694 85.4221C248.244 83.9563 248.549 82.3703 248.556 80.7144Z" fill="white"/>
<path d="M234.993 88.1074C239.108 88.1074 242.445 84.771 242.445 80.6553C242.445 76.5396 239.108 73.2031 234.993 73.2031C230.877 73.2031 227.541 76.5396 227.541 80.6553C227.541 84.771 230.877 88.1074 234.993 88.1074Z" fill="#DCE7F9" stroke="#9CC1FD" stroke-miterlimit="10"/>
<path d="M45.2869 144.984C46.9426 144.984 48.2848 143.642 48.2848 141.986C48.2848 140.33 46.9426 138.988 45.2869 138.988C43.6312 138.988 42.2891 140.33 42.2891 141.986C42.2891 143.642 43.6312 144.984 45.2869 144.984Z" stroke="white" stroke-miterlimit="10"/>
<path d="M287.714 191.482C289.369 191.482 290.712 190.14 290.712 188.484C290.712 186.829 289.369 185.486 287.714 185.486C286.058 185.486 284.716 186.829 284.716 188.484C284.716 190.14 286.058 191.482 287.714 191.482Z" stroke="white" stroke-miterlimit="10"/>
<path d="M294.169 172.277C294.997 172.277 295.668 171.606 295.668 170.778C295.668 169.95 294.997 169.279 294.169 169.279C293.341 169.279 292.67 169.95 292.67 170.778C292.67 171.606 293.341 172.277 294.169 172.277Z" fill="white" stroke="white" stroke-miterlimit="10"/>
<path d="M5.03018 208.914C5.85801 208.914 6.5291 208.243 6.5291 207.415C6.5291 206.587 5.85801 205.916 5.03018 205.916C4.20234 205.916 3.53125 206.587 3.53125 207.415C3.53125 208.243 4.20234 208.914 5.03018 208.914Z" fill="white" stroke="white" stroke-miterlimit="10"/>
<path d="M189.941 77.9529C190.769 77.9529 191.44 77.2818 191.44 76.454C191.44 75.6262 190.769 74.9551 189.941 74.9551C189.113 74.9551 188.442 75.6262 188.442 76.454C188.442 77.2818 189.113 77.9529 189.941 77.9529Z" fill="white" stroke="white" stroke-miterlimit="10"/>
<path d="M36.1672 251.552C36.2723 252.046 36.9966 251.986 37.0189 251.481C37.6539 236.937 38.9073 183.775 23.0066 188.481C6.24554 193.443 29.9382 222.333 36.1672 251.552Z" fill="url(#paint0_linear_544_3028)"/>
<path d="M36.5593 252.18C36.4089 252.18 36.2822 252.064 36.2706 251.912C33.9438 220.48 26.1043 201.344 26.0251 201.154C25.9639 201.006 26.0337 200.836 26.1813 200.776C26.3268 200.711 26.4981 200.783 26.56 200.932C26.6392 201.123 34.514 220.337 36.848 251.869C36.8596 252.028 36.74 252.167 36.5809 252.179C36.5737 252.18 36.5665 252.18 36.5593 252.18Z" fill="#52B69A"/>
<path d="M35.2096 252.185C35.4911 252.42 35.9022 252.134 35.7805 251.788C33.4817 245.25 22.2376 214.825 14.0511 220.873C5.87254 226.915 29.9518 247.78 35.2096 252.185Z" fill="#B7D1FD"/>
<path d="M35.6423 252.496C35.543 252.496 35.4458 252.445 35.3925 252.353C27.2643 238.461 17.6523 226.77 17.5559 226.654C17.4543 226.531 17.4716 226.348 17.5947 226.246C17.7178 226.144 17.9007 226.161 18.0022 226.285C18.0987 226.402 27.7388 238.127 35.8914 252.06C35.9728 252.198 35.926 252.376 35.7878 252.457C35.7424 252.484 35.692 252.496 35.6423 252.496Z" fill="#52B69A"/>
<path d="M39.3998 252.179C39.3429 252.179 39.2861 252.162 39.2357 252.127C39.1039 252.036 39.0715 251.856 39.1622 251.725C42.1226 247.439 45.9124 236.193 45.9506 236.08C46.0017 235.93 46.1659 235.847 46.317 235.898C46.4682 235.949 46.5503 236.112 46.4992 236.264C46.343 236.729 42.6453 247.701 39.6381 252.054C39.582 252.136 39.492 252.179 39.3998 252.179Z" fill="#52B69A"/>
<path d="M8.6884 251.555C8.55953 251.555 8.44434 251.468 8.40978 251.341C8.37451 251.213 4.85326 238.421 0.0425812 230.557C-0.0409325 230.421 0.00226386 230.242 0.138334 230.159C0.273683 230.074 0.452948 230.118 0.536462 230.254C4.39393 236.56 7.42274 245.982 8.5221 249.65C8.83671 244.167 7.9915 240.238 7.98214 240.195C7.94758 240.039 8.04621 239.885 8.20244 239.851C8.35939 239.817 8.51346 239.915 8.5473 240.071C8.55809 240.118 9.58906 244.9 8.9771 251.293C8.96342 251.432 8.85255 251.542 8.7136 251.554C8.70496 251.555 8.69632 251.555 8.6884 251.555Z" fill="#52B69A"/>
<path d="M179.118 252.858C179.111 252.858 179.102 252.858 179.095 252.857C178.948 252.845 178.834 252.724 178.829 252.577C178.489 241.673 181.462 228.203 181.493 228.069C181.527 227.912 181.68 227.814 181.838 227.849C181.994 227.884 182.092 228.039 182.058 228.195C182.03 228.32 179.434 240.085 179.382 250.475C180.066 248.234 181.511 244.192 184.344 238.58C184.416 238.437 184.591 238.377 184.734 238.452C184.876 238.524 184.934 238.699 184.861 238.841C180.395 247.688 179.412 252.575 179.403 252.624C179.376 252.76 179.256 252.858 179.118 252.858Z" fill="#52B69A"/>
<path d="M288.604 252.963C288.418 253.558 287.543 253.44 287.519 252.818C287.036 240.423 287.184 199.536 304.381 206.514C316.222 211.32 294.043 235.533 288.604 252.963Z" fill="url(#paint1_linear_544_3028)"/>
<path d="M288.006 253.094C287.997 253.094 287.988 253.094 287.979 253.092C287.82 253.078 287.703 252.937 287.718 252.778C289.204 236.612 299.964 212.895 300.073 212.658C300.14 212.511 300.313 212.449 300.456 212.514C300.602 212.58 300.667 212.752 300.6 212.898C300.492 213.135 289.772 236.764 288.294 252.83C288.281 252.981 288.155 253.094 288.006 253.094Z" fill="#52B69A"/>
<path d="M289.126 253.239C288.895 253.502 288.477 253.239 288.619 252.92C291.7 245.997 300.725 227.675 307.726 233.275C315.446 239.45 296.353 244.984 289.126 253.239Z" fill="#B7D1FD"/>
<path d="M288.949 253.239C288.906 253.239 288.862 253.23 288.821 253.21C288.677 253.139 288.618 252.966 288.689 252.822C291.675 246.759 302.474 238.004 302.932 237.635C303.055 237.534 303.239 237.553 303.339 237.678C303.44 237.802 303.42 237.985 303.296 238.085C303.185 238.175 292.138 247.129 289.209 253.077C289.158 253.18 289.055 253.239 288.949 253.239Z" fill="#52B69A"/>
<path d="M169.386 154.41C169.386 154.41 180.593 86.3978 202.813 97.6045C225.032 108.811 174.99 140.86 168.034 179.611C161.079 218.363 169.386 154.41 169.386 154.41Z" fill="#B7D1FD"/>
<path d="M167.373 165.318C167.345 165.318 167.319 165.314 167.291 165.306C167.137 165.261 167.05 165.101 167.095 164.947C174.501 139.72 193.195 113.34 193.383 113.077C193.476 112.946 193.656 112.916 193.787 113.009C193.917 113.102 193.947 113.283 193.854 113.413C193.666 113.676 175.028 139.979 167.65 165.11C167.613 165.237 167.498 165.318 167.373 165.318Z" fill="#52B69A"/>
<path d="M165.998 199.783C165.998 199.783 181.073 144.033 198.485 158.408C213.746 171.007 171.831 190.546 166.513 210.788C161.195 231.03 165.998 199.783 165.998 199.783Z" fill="#B7D1FD"/>
<path d="M167.368 201.825C167.338 201.825 167.306 201.82 167.277 201.81C167.125 201.759 167.043 201.595 167.094 201.444C167.152 201.269 173.115 183.835 189.95 167.893C190.066 167.784 190.249 167.789 190.36 167.904C190.47 168.021 190.465 168.204 190.349 168.314C173.617 184.157 167.701 201.454 167.643 201.627C167.602 201.748 167.49 201.825 167.368 201.825Z" fill="#52B69A"/>
<path d="M253.725 266.027C253.725 266.027 254.017 270.048 253.375 272.029C252.734 274.01 250.87 277.331 252.384 278.846C253.899 280.361 257.454 282.517 259.726 285.197C261.998 287.877 265.902 289.158 270.388 289.042C274.875 288.925 275.806 286.536 274.933 283.624C274.059 280.711 269.806 280.477 266.951 276.748C264.096 273.019 262.639 269.29 262.639 269.29L253.725 266.027Z" fill="#15286D"/>
<path d="M210.386 270.921C210.386 270.921 205.276 277.44 202.109 280.381C198.942 283.322 198.414 286.715 201.28 287.846C204.145 288.977 209.112 289.128 212.204 287.092C215.295 285.056 215.908 282.794 217.19 281.663C218.471 280.532 220.357 279.477 220.281 276.913C220.206 274.349 219.98 270.956 219.376 269.448C218.773 267.939 218.773 267.939 218.773 267.939C218.773 267.939 212.489 268.392 210.386 270.921Z" fill="#15286D"/>
<path d="M231.89 184.15C231.898 183.852 232.099 183.681 232.344 183.469C232.996 182.901 237.336 182.583 240.144 181.533C240.144 181.533 240.516 179.253 240.804 177.941C241.092 176.628 239.971 176.98 239.971 176.98C239.971 176.98 233.408 178.773 232.192 178.939C230.976 179.106 230.592 179.912 230.592 179.912L229.027 184.426C229.027 184.426 229.2 184.417 230.76 184.183C231.896 184.012 231.89 184.15 231.89 184.15Z" fill="#15286D"/>
<path d="M273.742 192.072C272.025 186.625 270.467 182.853 269.943 181.63C269.822 181.347 269.755 181.2 269.755 181.2C269.755 181.2 265.346 181.985 262.507 182.287C259.668 182.589 256.346 182.709 256.346 182.709L258.521 190.018C258.521 190.018 253.688 187.058 251.816 186.213C249.943 185.367 246.561 183.072 245.353 182.226C244.145 181.38 242.951 180.483 240.143 181.533C237.336 182.583 232.995 182.901 232.343 183.468C232.098 183.681 231.898 183.851 231.889 184.149C231.889 184.149 231.895 184.013 230.758 184.183C229.199 184.417 229.025 184.427 229.025 184.427L229.933 181.789C229.933 181.789 228.855 179.803 227.778 179.917C226.7 180.031 223.652 181.629 221.863 183.659C220.075 185.689 220.848 187.72 219.06 188.977C217.271 190.234 210.552 191.926 210.552 191.926C210.552 191.926 211.857 188.01 212.389 185.496C212.921 182.983 213.017 182.355 213.017 182.355C213.017 182.355 205.925 182.154 199.849 180.702C199.849 180.702 199.815 180.791 199.754 180.951C199.196 182.42 196.324 190.12 195.299 195.491C194.161 201.45 194.595 204.429 195.895 205.404C197.195 206.379 197.791 206.596 197.791 206.596C197.791 206.596 198.355 205.66 199.292 204.465C200.436 203.006 202.14 201.162 204.075 200.149C207.596 198.308 211.063 199.499 212.255 200.203C213.446 200.908 214.909 202.154 214.909 202.154C214.909 202.154 218.608 198.864 221.259 198.334C222.611 198.064 224.017 198.041 225.315 197.977C226.562 197.915 227.711 197.814 228.612 197.416C230.45 196.603 233.102 194.305 233.102 194.305C233.102 194.305 235.647 195.047 238.793 194.871C241.939 194.694 246.463 194.27 247.595 194.906C248.497 195.414 251.328 197.424 253.282 198.829C253.779 199.186 254.222 199.506 254.558 199.749C256.22 200.951 258.022 202.011 258.022 202.011C258.022 202.011 261.416 199.113 265.587 198.936C269.704 198.761 272.063 200.515 273.687 202.124C273.709 202.145 273.731 202.167 273.753 202.188C275.379 203.814 275.732 204.273 275.732 204.273C275.732 204.273 275.855 198.776 273.742 192.072Z" fill="#F4C9D3"/>
<path d="M224.708 134.005C224.72 127.86 226.461 126.439 228.53 126.395C230.598 126.351 232.264 127.555 235.036 127.539C237.964 127.524 239.367 125.952 242.94 126.307C246.195 126.63 245.59 134.118 245.59 134.118C245.59 134.118 246.34 133.434 246.986 133.784C247.266 130.319 246.671 128.982 246.671 128.982C246.671 128.982 247.644 129.927 247.616 129.252C247.589 128.577 247.487 124.056 245.88 120.452C244.273 116.847 241.19 114.98 241.19 114.98C241.19 114.98 242.406 114.676 242.189 114.198C241.971 113.721 239.887 114.328 239.887 114.328C239.887 114.328 240.582 113.026 239.887 112.896C239.192 112.765 238.28 114.49 238.28 114.49C238.28 114.49 237.629 114.503 236.109 114.503C234.589 114.503 230.645 114.207 226.965 116.482C223.286 118.758 221.461 121.858 222.22 122.386C222.478 122.567 223.019 122.171 223.019 122.171C222.39 122.825 221.304 124.575 221.857 124.907C222.159 125.089 222.614 124.446 222.614 124.446C222.423 125.306 222.12 126.961 222.16 128.686C222.196 130.259 222.426 132.444 222.592 133.848C223.319 132.521 224.708 134.005 224.708 134.005Z" fill="#15286D"/>
<path d="M234.246 168.098C244.066 168.042 244.508 153.798 244.508 153.798C244.508 153.798 244.442 153.717 244.34 153.589C244.052 153.227 243.461 152.467 243.128 151.897C242.676 151.124 242.43 149.924 242.43 149.924C242.43 149.924 244.123 146.651 244.631 144.337C245.138 142.023 245.251 141.063 245.251 141.063C245.251 141.063 247.904 139.54 247.904 137.112C247.904 134.911 247.475 134.053 246.986 133.787C246.34 133.437 245.59 134.121 245.59 134.121C245.59 134.121 246.195 126.633 242.94 126.31C239.367 125.955 237.964 127.527 235.036 127.543C232.264 127.558 230.598 126.355 228.53 126.399C226.462 126.442 224.72 127.864 224.708 134.008C224.708 134.008 223.32 132.523 222.592 133.851C222.369 134.258 222.207 134.926 222.168 135.984C221.999 140.499 224.708 140.443 224.708 140.443C224.708 140.443 225.441 146.143 226.344 148.006C227.247 149.868 227.642 150.432 227.642 150.432C227.642 150.432 226.739 152.521 225.836 153.311C225.258 153.816 224.638 154.25 224.263 154.499C224.052 154.639 223.917 154.722 223.917 154.722C223.917 154.722 224.426 168.154 234.246 168.098Z" fill="#F4C9D3"/>
<path d="M227.641 150.434C227.641 150.434 228.95 155.283 234.538 155.354C240.126 155.425 242.428 149.926 242.428 149.926L242.717 150.965C242.717 150.965 240.354 158.168 234.914 158.454C229.473 158.739 225.955 153.155 225.955 153.155C226.184 152.931 226.418 152.677 226.613 152.416C226.783 152.188 226.937 151.934 227.072 151.686C227.424 151.04 227.641 150.434 227.641 150.434Z" fill="#15286D"/>
<path d="M234.464 144.99C234.03 144.99 233.734 144.908 233.709 144.902C233.555 144.858 233.467 144.698 233.511 144.545C233.554 144.391 233.716 144.3 233.867 144.345C233.877 144.348 234.912 144.625 235.886 144.01C236.022 143.924 236.201 143.964 236.286 144.1C236.372 144.235 236.331 144.414 236.196 144.499C235.57 144.893 234.936 144.99 234.464 144.99Z" fill="#15286D"/>
<path d="M240.177 138.029C239.425 138.029 238.87 137.778 238.828 137.759C238.683 137.691 238.621 137.52 238.688 137.375C238.755 137.231 238.926 137.166 239.072 137.233C239.137 137.263 240.678 137.949 241.988 136.712C242.104 136.602 242.288 136.607 242.398 136.724C242.508 136.84 242.502 137.023 242.386 137.133C241.64 137.837 240.833 138.029 240.177 138.029Z" fill="#15286D"/>
<path d="M230.129 138.004C228.663 138.004 227.915 137.16 227.876 137.115C227.772 136.994 227.786 136.811 227.907 136.707C228.028 136.603 228.21 136.616 228.314 136.736C228.354 136.78 229.294 137.814 231.205 137.263C231.359 137.218 231.519 137.307 231.563 137.461C231.608 137.615 231.519 137.775 231.365 137.819C230.909 137.95 230.496 138.004 230.129 138.004Z" fill="#15286D"/>
<path d="M238.624 134.861C238.487 134.861 238.351 134.813 238.24 134.716C238.001 134.504 237.978 134.138 238.19 133.898C238.268 133.809 240.148 131.737 243.123 132.711C243.427 132.81 243.593 133.137 243.493 133.441C243.395 133.746 243.07 133.912 242.762 133.812C240.503 133.072 239.072 134.651 239.058 134.666C238.944 134.795 238.785 134.861 238.624 134.861Z" fill="#15286D"/>
<path d="M231.453 134.704C231.32 134.704 231.187 134.659 231.077 134.566C229.723 133.414 227.283 133.923 227.257 133.929C226.945 133.997 226.636 133.799 226.568 133.486C226.501 133.174 226.698 132.866 227.01 132.797C227.132 132.769 230.034 132.156 231.828 133.683C232.072 133.891 232.101 134.256 231.894 134.5C231.78 134.635 231.617 134.704 231.453 134.704Z" fill="#15286D"/>
<path d="M234.402 148.889C233.775 148.889 233.365 148.803 233.325 148.794C233.168 148.76 233.07 148.606 233.104 148.45C233.138 148.293 233.289 148.194 233.448 148.229C233.471 148.233 235.73 148.698 237.886 147.272C238.02 147.185 238.199 147.22 238.287 147.354C238.376 147.488 238.339 147.667 238.206 147.755C236.784 148.695 235.346 148.889 234.402 148.889Z" fill="#15286D"/>
<path d="M223.609 134.582C223.454 134.534 223.293 134.619 223.245 134.771C223.198 134.924 223.283 135.086 223.435 135.134C223.442 135.136 223.752 135.241 224.098 135.513C223.515 136.151 223.427 137.176 223.422 137.225C223.41 137.384 223.529 137.524 223.688 137.536C223.696 137.537 223.704 137.537 223.711 137.537C223.861 137.537 223.987 137.422 224 137.27C224.02 137.009 224.152 136.334 224.505 135.927C224.727 136.207 224.922 136.565 225.003 137.043C225.027 137.184 225.149 137.284 225.288 137.284C225.305 137.284 225.321 137.283 225.338 137.28C225.495 137.254 225.602 137.104 225.575 136.946C225.264 135.122 223.676 134.603 223.609 134.582Z" fill="#15286D"/>
<path d="M246.324 135.497C246.429 135.407 246.549 135.34 246.694 135.315C246.851 135.287 246.957 135.137 246.929 134.979C246.9 134.822 246.748 134.717 246.594 134.745C246.197 134.814 245.913 135.035 245.705 135.317C245.702 135.319 245.7 135.321 245.697 135.323C245.695 135.326 245.695 135.331 245.692 135.333C245.167 136.061 245.155 137.183 245.155 137.249C245.155 137.408 245.285 137.538 245.445 137.538C245.605 137.538 245.734 137.408 245.734 137.249C245.734 137.238 245.746 136.544 245.984 135.989C246.396 136.582 246.355 137.511 246.354 137.521C246.346 137.681 246.468 137.817 246.627 137.826C246.633 137.826 246.638 137.827 246.643 137.827C246.796 137.827 246.924 137.708 246.933 137.554C246.936 137.498 246.99 136.259 246.324 135.497Z" fill="#15286D"/>
<path d="M267.379 170.637C264.207 161.563 260.07 157.171 258.469 156.104C256.868 155.036 248.485 153.826 245.568 153.613C245.286 153.592 244.865 153.584 244.335 153.586C244.438 153.715 244.504 153.795 244.504 153.795C244.504 153.795 244.062 168.039 234.241 168.095C224.42 168.151 223.913 154.719 223.913 154.719C223.913 154.719 224.048 154.637 224.259 154.496C223.312 154.498 221.273 154.559 219.191 155.001C216.345 155.606 212.466 156.673 208.624 158.452C204.782 160.231 203.323 163.682 202.504 165.853C201.686 168.023 200.654 172.72 200.441 174.107C200.228 175.494 199.16 178.376 198.733 179.408C198.42 180.165 199.275 180.711 199.752 180.948C199.813 180.787 199.848 180.698 199.848 180.698C205.923 182.151 213.016 182.351 213.016 182.351C213.016 182.351 212.919 182.979 212.387 185.493C211.855 188.006 210.551 191.922 210.551 191.922C210.551 191.922 217.27 190.23 219.058 188.973C220.846 187.716 220.073 185.686 221.862 183.656C223.65 181.625 226.698 180.027 227.776 179.913C228.854 179.799 229.931 181.785 229.931 181.785L229.024 184.423C229.024 184.423 229.197 184.414 230.757 184.18C231.893 184.009 231.888 184.146 231.888 184.146C231.895 183.848 232.096 183.677 232.341 183.465C232.993 182.897 237.334 182.579 240.142 181.53C242.95 180.48 244.143 181.377 245.351 182.223C246.559 183.069 249.942 185.364 251.814 186.209C253.687 187.055 258.519 190.014 258.519 190.014L256.345 182.706C256.345 182.706 259.667 182.585 262.505 182.283C265.344 181.982 269.754 181.196 269.754 181.196C269.754 181.196 269.82 181.343 269.941 181.626C271.001 180.925 270.278 178.925 267.379 170.637Z" fill="#52B69A"/>
<path d="M253.28 198.823C251.326 197.418 248.495 195.408 247.593 194.9C246.462 194.264 241.937 194.688 238.791 194.865C235.645 195.041 233.1 194.299 233.1 194.299C233.1 194.299 230.449 196.596 228.61 197.41C227.709 197.808 226.56 197.909 225.313 197.971C224.015 198.035 222.609 198.058 221.257 198.328C218.606 198.858 214.907 202.148 214.907 202.148C217.22 204.843 219.619 210.325 219.619 210.325C219.619 210.325 226.372 210.123 232.787 210.662C239.203 211.202 240.755 211.135 247.239 209.11C253.722 207.084 258.02 202.004 258.02 202.004C258.02 202.004 256.217 200.944 254.555 199.742C254.22 199.499 253.777 199.179 253.28 198.823Z" fill="#52B69A"/>
<path d="M214.043 181.71C214.031 181.71 214.019 181.709 214.007 181.708C213.849 181.688 213.735 181.544 213.755 181.385C213.758 181.363 214.022 179.154 213.755 176.476C213.738 176.317 213.855 176.174 214.014 176.158C214.171 176.139 214.315 176.258 214.331 176.418C214.605 179.164 214.342 181.364 214.33 181.456C214.312 181.603 214.186 181.71 214.043 181.71Z" fill="#9CC1FD"/>
<path d="M213.038 164.386C212.921 164.386 212.811 164.315 212.767 164.2C211.881 161.894 209.729 159.368 209.707 159.343C209.602 159.222 209.617 159.039 209.738 158.935C209.858 158.831 210.042 158.844 210.146 158.966C210.237 159.073 212.386 161.594 213.308 163.992C213.365 164.141 213.29 164.309 213.141 164.366C213.108 164.379 213.072 164.386 213.038 164.386Z" fill="#9CC1FD"/>
<path d="M211.726 176.275C211.685 176.275 211.644 176.267 211.605 176.249C209.818 175.432 208.869 173.222 208.828 173.128C208.767 172.981 208.835 172.811 208.983 172.749C209.129 172.687 209.3 172.756 209.362 172.903C209.371 172.924 210.266 175.001 211.846 175.722C211.991 175.789 212.055 175.96 211.989 176.106C211.94 176.213 211.835 176.275 211.726 176.275Z" fill="#9CC1FD"/>
<path d="M214.987 172.967C214.954 172.967 214.921 172.961 214.889 172.95C214.738 172.896 214.66 172.73 214.714 172.58C215.382 170.718 216.061 167.82 216.067 167.791C216.103 167.635 216.257 167.536 216.415 167.575C216.571 167.611 216.668 167.766 216.631 167.922C216.625 167.951 215.938 170.882 215.258 172.775C215.216 172.894 215.105 172.967 214.987 172.967Z" fill="#9CC1FD"/>
<path d="M234.481 170.07C234.231 170.07 233.976 170.061 233.714 170.041C223.261 169.252 222.256 155.789 222.247 155.653C222.236 155.494 222.357 155.356 222.517 155.345C222.675 155.325 222.814 155.456 222.825 155.615C222.828 155.648 223.062 158.951 224.537 162.299C226.494 166.739 229.596 169.149 233.758 169.464C243.688 170.206 245.581 155.294 245.6 155.144C245.619 154.985 245.755 154.871 245.922 154.891C246.08 154.91 246.194 155.054 246.175 155.212C246.156 155.364 244.288 170.07 234.481 170.07Z" fill="#9CC1FD"/>
<path d="M258.237 174C258.35 173.888 258.351 173.704 258.238 173.591C258.127 173.478 257.942 173.476 257.829 173.589C257.775 173.642 256.705 174.709 255.846 175.734C255.776 175.191 255.707 174.678 255.64 174.238C255.254 171.678 254.477 168.066 254.469 168.03C254.436 167.875 254.285 167.779 254.125 167.808C253.968 167.842 253.87 167.997 253.903 168.152C253.911 168.188 254.685 171.782 255.068 174.324C255.161 174.94 255.26 175.694 255.357 176.484V176.486C255.66 178.955 255.94 181.772 255.943 181.81C255.958 181.959 256.084 182.071 256.23 182.071C256.241 182.071 256.25 182.071 256.259 182.069C256.418 182.054 256.534 181.912 256.519 181.753C256.516 181.726 256.374 180.298 256.184 178.588C256.642 178.156 257.314 177.691 257.32 177.686C257.452 177.595 257.486 177.414 257.395 177.283C257.304 177.15 257.124 177.118 256.993 177.208C256.968 177.226 256.531 177.528 256.105 177.884C256.054 177.435 256.001 176.98 255.946 176.532C256.806 175.426 258.223 174.015 258.237 174Z" fill="#9CC1FD"/>
<path d="M256.519 162.349C256.491 162.349 256.462 162.345 256.433 162.336C256.281 162.29 256.195 162.128 256.242 161.974C256.271 161.88 256.972 159.643 258.624 158.239C258.746 158.135 258.929 158.151 259.032 158.272C259.136 158.393 259.121 158.577 259 158.68C257.475 159.976 256.802 162.124 256.795 162.146C256.757 162.269 256.643 162.349 256.519 162.349Z" fill="#9CC1FD"/>
<path d="M212.304 180.782C212.3 180.782 212.297 180.782 212.293 180.782C206.232 180.538 200.049 179.232 199.987 179.219C199.83 179.186 199.731 179.032 199.764 178.875C199.797 178.719 199.948 178.621 200.107 178.652C200.168 178.665 206.305 179.961 212.315 180.203C212.475 180.209 212.6 180.344 212.593 180.504C212.587 180.66 212.458 180.782 212.304 180.782Z" fill="#9CC1FD"/>
<path d="M256.837 180.783C256.683 180.783 256.555 180.662 256.548 180.508C256.54 180.349 256.664 180.212 256.823 180.205C256.884 180.202 262.965 179.903 268.643 178.816C268.8 178.786 268.951 178.889 268.982 179.046C269.011 179.203 268.908 179.354 268.751 179.385C263.033 180.48 256.913 180.781 256.851 180.784C256.846 180.783 256.842 180.783 256.837 180.783Z" fill="#9CC1FD"/>
<path d="M199.278 193.575C199.278 193.575 203.161 193.197 205.498 192.922C207.835 192.647 210.548 191.923 210.548 191.923L211.167 189.979C211.167 189.979 205.773 191.891 199.278 193.575Z" fill="#15286D"/>
<path d="M224.491 184.405C224.491 184.405 225.811 184.59 227.052 184.59C228.293 184.59 229.023 184.425 229.023 184.425L229.274 183.695C229.274 183.695 227.923 184.143 227.58 184.143C227.236 184.141 227.236 184.141 227.236 184.141L227.897 183.006C227.897 183.006 227.289 183.692 224.491 184.405Z" fill="#15286D"/>
<path d="M268.437 192.854C268.437 192.854 266.27 192.388 263.624 191.778C261.334 191.25 258.519 190.018 258.519 190.018L257.998 188.268C257.998 188.268 260.106 189.339 263.12 190.507C266.404 191.778 268.437 192.854 268.437 192.854Z" fill="#15286D"/>
<path d="M243.329 183.067C243.217 183.067 243.11 183.001 243.063 182.89L242.848 182.384C242.786 182.237 242.854 182.067 243.002 182.005C243.151 181.944 243.319 182.01 243.381 182.158L243.596 182.664C243.658 182.811 243.59 182.982 243.442 183.044C243.406 183.059 243.367 183.067 243.329 183.067Z" fill="#15286D"/>
<path d="M245.088 185.929C244.928 185.929 244.798 185.799 244.798 185.639V185.108C244.798 184.948 244.928 184.818 245.088 184.818C245.248 184.818 245.377 184.948 245.377 185.108V185.639C245.377 185.799 245.248 185.929 245.088 185.929Z" fill="#15286D"/>
<path d="M245.654 189.729C245.494 189.729 245.364 189.6 245.364 189.44V188.868C245.364 188.708 245.494 188.578 245.654 188.578C245.814 188.578 245.943 188.708 245.943 188.868V189.44C245.944 189.6 245.814 189.729 245.654 189.729Z" fill="#15286D"/>
<path d="M245.654 192.711C245.631 192.711 245.607 192.708 245.583 192.702C245.428 192.663 245.334 192.506 245.373 192.35L245.537 191.705C245.576 191.551 245.732 191.456 245.889 191.495C246.044 191.535 246.138 191.692 246.098 191.847L245.935 192.493C245.902 192.623 245.784 192.711 245.654 192.711Z" fill="#15286D"/>
<path d="M244.143 191.098C244.109 190.942 243.957 190.846 243.799 190.875C243.764 190.882 240.354 191.619 238.506 191.947C236.832 192.244 235.351 192.414 234.234 192.451L234.228 192.445C234.228 192.445 234.223 192.45 234.222 192.452C233.17 192.486 232.442 192.402 232.192 192.193C232.139 192.149 232.138 192.119 232.138 192.103C232.135 191.368 232.963 191.129 234.838 190.656C235.23 190.557 235.656 190.449 236.114 190.324C239.186 189.486 241.238 188.543 241.258 188.534C241.265 188.53 241.27 188.524 241.277 188.519C241.295 188.509 241.311 188.498 241.326 188.484C241.339 188.472 241.352 188.46 241.362 188.447C241.374 188.432 241.383 188.416 241.391 188.398C241.399 188.382 241.407 188.367 241.411 188.349C241.416 188.331 241.419 188.313 241.42 188.294C241.421 188.275 241.422 188.257 241.42 188.237C241.419 188.229 241.421 188.221 241.42 188.213C241.418 188.201 241.41 188.192 241.406 188.18C241.403 188.17 241.403 188.159 241.399 188.149C241.395 188.141 241.39 188.137 241.385 188.131C241.375 188.112 241.362 188.096 241.349 188.08C241.337 188.067 241.326 188.056 241.313 188.045C241.298 188.033 241.282 188.025 241.266 188.017C241.248 188.008 241.231 188 241.212 187.995C241.197 187.99 241.182 187.989 241.167 187.987C241.145 187.985 241.123 187.984 241.101 187.987C241.093 187.987 241.086 187.985 241.079 187.987C241.053 187.992 238.492 188.504 234.93 188.582C233.123 188.621 232.016 188.494 231.37 188.36C232.879 187.888 236.054 186.838 238.75 185.578C238.768 185.569 238.781 185.555 238.796 185.543C240.074 185.474 241.062 185.406 241.156 185.4C241.316 185.389 241.437 185.251 241.425 185.091C241.415 184.933 241.307 184.799 241.116 184.823C241.061 184.826 235.6 185.201 233.412 185.1C231.927 185.032 231.873 184.123 231.873 184.015C231.873 183.857 231.746 183.727 231.587 183.725C231.587 183.725 231.585 183.725 231.583 183.725C231.425 183.725 231.296 183.852 231.294 184.01C231.294 184.026 231.298 185.582 233.385 185.679C233.658 185.691 233.976 185.697 234.326 185.697C235.179 185.697 236.218 185.663 237.228 185.62C233.915 187.026 230.395 188.052 230.331 188.071L228.417 188.591C228.262 188.633 228.172 188.792 228.213 188.946C228.248 189.075 228.365 189.16 228.493 189.16C228.518 189.16 228.544 189.157 228.568 189.15L230.373 188.659C230.707 188.82 231.723 189.167 234.274 189.167C234.486 189.167 234.709 189.165 234.943 189.16C236.39 189.129 237.672 189.026 238.696 188.914C237.931 189.182 237.009 189.479 235.96 189.765C235.507 189.889 235.084 189.995 234.695 190.094C232.803 190.571 231.552 190.887 231.559 192.106C231.56 192.312 231.65 192.496 231.82 192.638C232.151 192.914 232.854 193.019 233.696 193.031C233.511 193.237 233.304 193.466 233.123 193.672C233.016 193.792 233.028 193.975 233.148 194.081C233.268 194.186 233.45 194.175 233.557 194.056C233.875 193.695 234.269 193.26 234.488 193.021C235.967 192.954 237.654 192.689 238.607 192.519C240.466 192.189 243.887 191.451 243.921 191.444C244.077 191.408 244.176 191.254 244.143 191.098Z" fill="#15286D"/>
<path d="M278.388 208.259C277.518 205.909 275.732 204.272 275.732 204.272L273.688 202.123C272.064 200.513 269.704 198.76 265.588 198.934C261.416 199.111 258.023 202.009 258.023 202.009C258.023 202.009 253.725 207.089 247.242 209.115C240.759 211.141 239.206 211.208 232.791 210.668C226.375 210.128 219.622 210.33 219.622 210.33C219.622 210.33 217.223 204.847 214.911 202.153C214.911 202.153 213.448 200.907 212.256 200.202C211.065 199.498 207.598 198.306 204.076 200.148C202.141 201.161 200.438 203.006 199.294 204.464L197.793 206.595C197.793 206.595 195.529 210.521 197.793 220.095C200.056 229.669 198.316 231.061 201.884 242.028C205.453 252.995 205.279 252.211 206.323 258.478C207.367 264.745 207.454 269.01 208.847 270.315C210.239 271.62 214.678 270.75 216.854 269.967C219.03 269.183 221.554 267.268 221.467 265.528C221.379 263.788 219.639 261.09 219.378 258.478C219.117 255.867 217.724 237.154 217.724 237.154C217.724 237.154 219.204 239.156 220.161 239.94C221.119 240.723 221.119 240.723 221.119 240.723L248.534 240.866C248.534 240.866 251.755 239.069 252.886 238.373C254.017 237.677 255.758 236.545 255.758 236.545C255.758 236.545 255.323 242.899 255.236 247.686C255.149 252.473 254.279 257.347 253.757 259.958C253.235 262.569 252.277 265.789 252.277 265.789C252.277 265.789 254.192 268.226 260.981 269.88C267.77 271.534 267.856 269.967 267.943 267.792C268.031 265.616 270.206 259.61 270.989 257.869C271.773 256.129 271.338 250.384 271.947 246.729C272.556 243.074 274.036 237.677 275.342 233.064C276.647 228.452 277.866 219.748 277.779 217.05C277.692 214.351 279.259 210.609 278.388 208.259Z" fill="#9CC1FD"/>
<path d="M237.729 211.658C237.725 211.658 237.723 211.658 237.72 211.658C237.563 211.658 237.435 211.781 237.43 211.938C237.425 212.079 237.281 215.314 234.108 215.314C234.088 215.314 234.067 215.313 234.046 215.313C233.925 213.439 233.792 212.218 233.79 212.197C233.772 212.038 233.629 211.934 233.47 211.94C233.311 211.958 233.196 212.102 233.214 212.26C233.219 212.301 233.661 216.35 233.661 221.112C233.661 225.874 232.773 233.65 232.764 233.728C232.746 233.887 232.859 234.031 233.018 234.049C233.029 234.05 233.04 234.051 233.052 234.051C233.197 234.051 233.322 233.942 233.338 233.794C233.347 233.716 234.239 225.908 234.239 221.112C234.239 219.182 234.167 217.375 234.08 215.893C234.09 215.893 234.1 215.894 234.109 215.894C236.034 215.894 236.995 214.845 237.462 213.951C237.972 212.976 238.007 211.997 238.008 211.956C238.014 211.796 237.889 211.664 237.729 211.658Z" fill="#52B69A"/>
<path d="M221.971 220.591C221.819 220.539 221.654 220.619 221.603 220.771C221.597 220.79 221.075 222.295 220.371 223.672C220.187 222.422 219.955 221.159 219.658 220.022C220.004 218.092 220.201 215.601 220.212 215.471C220.224 215.312 220.104 215.172 219.945 215.16C219.788 215.151 219.647 215.267 219.634 215.426C219.633 215.452 219.502 217.098 219.273 218.74C219.258 218.699 219.245 218.656 219.231 218.616C218.731 217.228 217.925 215.916 217.418 215.164C217.306 214.997 217.046 215.098 217.076 215.297C217.352 217.161 218.007 221.845 217.934 223.884C217.84 226.458 217.725 237.158 217.725 237.158C217.725 237.158 218.794 238.627 219.478 239.285C220.162 239.943 221.119 240.726 221.119 240.726C221.119 240.726 221.472 233.862 220.958 228.742C220.849 227.653 220.711 226.187 220.507 224.635C221.415 223.088 222.12 221.056 222.153 220.959C222.203 220.808 222.122 220.643 221.971 220.591Z" fill="#6B91DD"/>
<path d="M216.42 216.435C216.353 216.435 216.286 216.412 216.231 216.366C214.444 214.833 213.187 211.537 213.135 211.397C213.079 211.247 213.154 211.08 213.303 211.024C213.455 210.97 213.621 211.043 213.677 211.192C213.689 211.225 214.935 214.49 216.609 215.926C216.73 216.03 216.744 216.213 216.64 216.335C216.583 216.402 216.501 216.435 216.42 216.435Z" fill="#52B69A"/>
<path d="M242.456 220.355C242.371 220.355 242.287 220.318 242.23 220.246C242.13 220.121 242.15 219.938 242.276 219.839C242.337 219.79 248.395 214.954 251.153 212.032C251.664 211.491 252.155 210.944 252.623 210.421C254.345 208.503 255.705 206.986 256.892 206.986C256.894 206.986 256.896 206.986 256.898 206.986C257.298 206.988 257.653 207.162 257.953 207.503C259.322 209.055 259.47 209.687 259.486 209.798C259.508 209.956 259.399 210.103 259.24 210.126C259.084 210.148 258.935 210.04 258.912 209.881C258.912 209.881 258.775 209.313 257.518 207.886C257.327 207.67 257.129 207.567 256.895 207.567C256.893 207.567 256.891 207.567 256.891 207.567C255.963 207.567 254.55 209.141 253.055 210.809C252.582 211.336 252.088 211.886 251.574 212.431C248.787 215.383 242.696 220.243 242.635 220.292C242.584 220.335 242.52 220.355 242.456 220.355Z" fill="#52B69A"/>
<path d="M260.879 215.756C260.841 215.756 260.804 215.749 260.768 215.734C260.62 215.672 260.551 215.503 260.611 215.355C260.641 215.282 261.367 213.558 262.46 212.841C262.593 212.753 262.772 212.79 262.86 212.924C262.948 213.057 262.911 213.237 262.777 213.324C261.831 213.945 261.153 215.561 261.146 215.578C261.1 215.688 260.992 215.756 260.879 215.756Z" fill="#52B69A"/>
<path d="M258.623 217.626C258.286 216.887 258.153 216.12 258.106 215.517C258.083 215.218 257.678 215.145 257.553 215.418C257.178 216.233 256.658 217.577 256.129 219.596C255.059 219.875 254.155 221.063 254.109 221.124C254.013 221.251 254.039 221.433 254.167 221.528C254.219 221.568 254.28 221.587 254.341 221.587C254.428 221.587 254.516 221.546 254.573 221.472C254.796 221.174 255.356 220.567 255.957 220.279C255.672 221.449 255.388 222.819 255.129 224.42C254.133 230.571 250.432 239.784 250.432 239.784C250.432 239.784 254.151 237.755 255.761 236.552C255.761 236.552 255.986 232.022 256.789 228.246C257.593 224.469 258.214 222.81 258.625 221.524C259.034 220.238 259.337 219.193 258.623 217.626Z" fill="#6B91DD"/>
<path d="M210.07 269.062C209.942 269.062 209.86 269.06 209.835 269.059C209.676 269.055 209.55 268.922 209.554 268.762C209.558 268.605 209.687 268.48 209.843 268.48C209.852 268.479 209.873 268.481 209.999 268.482C210.947 268.482 216.191 268.363 218.959 265.819C219.077 265.711 219.259 265.718 219.369 265.836C219.477 265.954 219.469 266.137 219.352 266.246C216.456 268.906 211.251 269.062 210.07 269.062Z" fill="#52B69A"/>
<path d="M207.333 258.335C207.294 258.335 207.254 258.327 207.215 258.309C207.07 258.245 207.004 258.073 207.069 257.927C207.11 257.836 208.079 255.694 209.718 254.916C209.862 254.849 210.035 254.909 210.104 255.054C210.172 255.199 210.11 255.371 209.966 255.44C208.523 256.124 207.608 258.142 207.598 258.163C207.549 258.271 207.444 258.335 207.333 258.335Z" fill="#52B69A"/>
<path d="M207.889 254.357C207.767 254.357 207.655 254.28 207.614 254.159C207.563 254.007 207.645 253.843 207.796 253.793C207.82 253.785 210.177 252.974 210.948 251.002C211.006 250.854 211.174 250.78 211.323 250.838C211.472 250.897 211.546 251.065 211.488 251.214C210.616 253.441 208.088 254.307 207.981 254.342C207.95 254.352 207.919 254.357 207.889 254.357Z" fill="#52B69A"/>
<path d="M216.419 221.983C216.328 221.983 216.237 221.94 216.181 221.859C214.646 219.638 214.228 216.779 214.211 216.659C214.189 216.5 214.299 216.353 214.458 216.331C214.614 216.309 214.763 216.419 214.785 216.577C214.789 216.606 215.203 219.425 216.658 221.53C216.749 221.661 216.716 221.841 216.584 221.932C216.534 221.967 216.476 221.983 216.419 221.983Z" fill="#52B69A"/>
<path d="M256.428 245.757C256.4 245.757 256.372 245.752 256.344 245.744C256.19 245.698 256.105 245.536 256.151 245.383C256.189 245.258 257.106 242.279 259.001 240.513C259.118 240.405 259.3 240.41 259.411 240.528C259.519 240.645 259.513 240.829 259.395 240.938C257.616 242.595 256.714 245.522 256.706 245.551C256.668 245.676 256.552 245.757 256.428 245.757Z" fill="#52B69A"/>
<path d="M267.81 261.382C267.718 261.382 267.627 261.339 267.571 261.257C267.494 261.145 265.671 258.479 265.671 256.608C265.671 256.448 265.801 256.318 265.961 256.318C266.121 256.318 266.25 256.448 266.25 256.608C266.25 258.3 268.031 260.902 268.049 260.927C268.139 261.06 268.106 261.24 267.974 261.331C267.923 261.365 267.867 261.382 267.81 261.382Z" fill="#52B69A"/>
<path d="M265.634 268.699C265.624 268.699 265.615 268.699 265.605 268.698C259.852 268.144 254.239 264.948 254.183 264.916C254.045 264.837 253.996 264.66 254.076 264.521C254.156 264.382 254.333 264.333 254.471 264.414C254.526 264.445 260.035 267.58 265.66 268.122C265.819 268.137 265.936 268.279 265.921 268.438C265.907 268.588 265.781 268.699 265.634 268.699Z" fill="#52B69A"/>
<path d="M227.596 221.524C227.535 221.524 227.474 221.505 227.422 221.465C222.554 217.794 219.962 212.127 219.936 212.071C219.871 211.925 219.935 211.753 220.081 211.688C220.227 211.622 220.4 211.686 220.464 211.832C220.49 211.888 223.024 217.424 227.77 221.004C227.898 221.1 227.924 221.282 227.827 221.409C227.77 221.485 227.684 221.524 227.596 221.524Z" fill="#52B69A"/>
<path d="M74.3125 20.2812V17.7297C74.3125 17.7297 77.6329 9.31352 87.0915 7.30055C96.5502 5.2883 154.407 0.055741 154.407 0.055741C154.407 0.055741 162.859 -0.950743 167.488 5.58996C172.116 12.1307 172.016 23.6016 172.016 23.6016L171.921 263.395C171.921 263.395 171.385 276.465 166.137 279.492C160.89 282.518 148.357 281.03 148.357 281.03L86.6351 271.788L79.7092 264.738L74.3125 20.2812Z" fill="#F5F9FF"/>
<path d="M72.2879 71.0176V25.7179C72.2879 25.7179 71.8955 13.8424 82.9682 11.5962C94.041 9.34996 146.678 3.41185 146.678 3.41185C146.678 3.41185 154.22 1.32544 158.714 7.10301C163.207 12.8798 162.405 23.4717 162.405 23.4717V259.646C162.405 259.646 163.501 270.314 159.233 275.214C154.965 280.115 146.745 279.466 146.745 279.466L83.4751 269.207C83.4751 269.207 75.9221 264.465 74.1835 260.038C72.4448 255.612 72.2871 234.902 72.2871 234.902L72.2879 71.0176Z" fill="white"/>
<path d="M157.678 249.819L75.7319 237.944V41.3941L157.678 32.7051V249.819Z" fill="#C3D7FD"/>
<g opacity="0.4">
<path d="M149.576 75.0956L83.9703 76.4498C82.156 76.4873 80.665 75.0265 80.665 73.2122V46.4655C80.665 44.8032 81.9235 43.4108 83.5779 43.2438L149.184 36.6066C151.092 36.4137 152.748 37.9111 152.748 39.8284V71.858C152.747 73.6197 151.338 75.0589 149.576 75.0956Z" fill="url(#paint2_linear_544_3028)"/>
</g>
<g opacity="0.4">
<path d="M149.576 75.0956L83.9703 76.4498C82.156 76.4873 80.665 75.0265 80.665 73.2122V46.4655C80.665 44.8032 81.9235 43.4108 83.5779 43.2438L149.184 36.6066C151.092 36.4137 152.748 37.9111 152.748 39.8284V71.858C152.747 73.6197 151.338 75.0589 149.576 75.0956Z" fill="url(#paint3_linear_544_3028)"/>
</g>
<g opacity="0.14">
<path d="M148.251 115.287L84.9595 113.827C82.5722 113.773 80.665 111.821 80.665 109.433V83.6516C80.665 81.2477 82.5967 79.2894 84.9998 79.2563L148.291 78.3852C150.742 78.3514 152.747 80.329 152.747 82.7805V110.893C152.747 113.359 150.717 115.344 148.251 115.287Z" fill="url(#paint4_linear_544_3028)"/>
</g>
<g opacity="0.4">
<path d="M147.984 156.654L84.8998 152.944C82.5218 152.805 80.665 150.835 80.665 148.453V122.005C80.665 119.489 82.7291 117.461 85.2453 117.507L148.33 118.643C150.783 118.687 152.748 120.688 152.748 123.141V152.163C152.747 154.752 150.568 156.806 147.984 156.654Z" fill="url(#paint5_linear_544_3028)"/>
</g>
<g opacity="0.26">
<path d="M146.322 200.913L85.9012 194.719C82.9264 194.414 80.665 191.908 80.665 188.918V161.962C80.665 158.601 83.5002 155.935 86.8551 156.142L147.276 159.871C150.351 160.061 152.747 162.609 152.747 165.691V195.112C152.747 198.567 149.76 201.265 146.322 200.913Z" fill="url(#paint6_linear_544_3028)"/>
</g>
<g opacity="0.1">
<path d="M145.919 244.681L85.7673 235.886C82.8371 235.458 80.665 232.944 80.665 229.983V203.372C80.665 199.821 83.7486 197.056 87.2792 197.442L147.431 204.022C150.457 204.353 152.747 206.908 152.747 209.952V238.778C152.747 242.416 149.518 245.207 145.919 244.681Z" fill="url(#paint7_linear_544_3028)"/>
</g>
<path d="M106.662 22.963C106.153 22.963 105.714 22.5807 105.656 22.0631C105.593 21.5065 105.993 21.0047 106.549 20.9421L123.053 19.0746C123.606 19.0134 124.111 19.4115 124.174 19.968C124.237 20.5245 123.837 21.0263 123.281 21.089L106.777 22.9565C106.738 22.9608 106.7 22.963 106.662 22.963Z" fill="#15286D"/>
<path d="M100.41 23.8677C101.078 23.8677 101.62 23.3259 101.62 22.6575C101.62 21.9891 101.078 21.4473 100.41 21.4473C99.7415 21.4473 99.1997 21.9891 99.1997 22.6575C99.1997 23.3259 99.7415 23.8677 100.41 23.8677Z" fill="#15286D"/>
<path d="M168.581 79.1885C168.02 79.1885 167.567 78.735 167.567 78.1748V60.7637C167.567 60.2036 168.02 59.75 168.581 59.75C169.141 59.75 169.594 60.2036 169.594 60.7637V78.1748C169.594 78.7342 169.141 79.1885 168.581 79.1885Z" fill="#AEADB3"/>
<path d="M115.205 270.311C119.085 270.311 122.231 265.723 122.231 260.065C122.231 254.406 119.085 249.818 115.205 249.818C111.325 249.818 108.179 254.406 108.179 260.065C108.179 265.723 111.325 270.311 115.205 270.311Z" fill="#EBF1FE"/>
<path d="M115.205 250.977C118.386 250.977 121.073 255.139 121.073 260.065C121.073 264.991 118.386 269.153 115.205 269.153C112.024 269.153 109.338 264.991 109.338 260.065C109.338 255.139 112.025 250.977 115.205 250.977ZM115.205 249.818C111.325 249.818 108.179 254.406 108.179 260.065C108.179 265.723 111.325 270.311 115.205 270.311C119.086 270.311 122.231 265.723 122.231 260.065C122.232 254.406 119.086 249.818 115.205 249.818Z" fill="#DCE7F9"/>
<path d="M113.871 59.2577C112.092 59.2577 110.646 57.4485 110.646 55.2245C110.646 53.0006 112.092 51.1914 113.871 51.1914C115.649 51.1914 117.096 53.0006 117.096 55.2245C117.096 57.4485 115.65 59.2577 113.871 59.2577ZM113.871 51.7695C112.412 51.7695 111.225 53.3196 111.225 55.2238C111.225 57.1281 112.412 58.6781 113.871 58.6781C115.33 58.6781 116.517 57.1281 116.517 55.2238C116.517 53.3196 115.33 51.7695 113.871 51.7695Z" fill="white"/>
<path d="M113.871 65.6224C109.339 65.6224 105.652 60.9564 105.652 55.2214C105.652 49.4863 109.339 44.8203 113.871 44.8203C118.402 44.8203 122.089 49.4863 122.089 55.2214C122.089 60.9564 118.403 65.6224 113.871 65.6224ZM113.871 45.3984C109.659 45.3984 106.232 49.8045 106.232 55.2206C106.232 60.6368 109.659 65.0429 113.871 65.0429C118.083 65.0429 121.51 60.6368 121.51 55.2206C121.51 49.8045 118.083 45.3984 113.871 45.3984Z" fill="white"/>
<path d="M113.872 56.7513C114.533 56.7513 115.069 56.0676 115.069 55.2243C115.069 54.3809 114.533 53.6973 113.872 53.6973C113.21 53.6973 112.674 54.3809 112.674 55.2243C112.674 56.0676 113.21 56.7513 113.872 56.7513Z" fill="white"/>
<path d="M89.0318 143.98C88.8755 143.98 88.7474 143.856 88.7423 143.699C88.7373 143.539 88.864 143.406 89.0231 143.401C89.3485 143.391 90.2773 143.282 90.6603 142.899C90.7733 142.786 90.9562 142.786 91.0699 142.899C91.1829 143.012 91.1829 143.196 91.0699 143.309C90.4558 143.923 89.1829 143.976 89.0397 143.981C89.0368 143.98 89.0346 143.98 89.0318 143.98Z" fill="#15286D"/>
<path d="M86.7749 138.411C86.7749 138.411 89.2126 136.323 92.1831 135.442C95.1536 134.562 96.6763 134.455 96.6763 134.455L96.6511 133.912C96.6511 133.912 93.3487 133.018 90.4402 134.173C87.5316 135.328 86.9347 135.768 86.9347 135.768C86.9347 135.768 86.7641 137.183 86.7749 138.411Z" fill="#15286D"/>
<path d="M96.3761 84.6707C96.3624 84.5937 96.3545 84.5102 96.3394 84.4346C96.2789 84.1351 96.2055 83.8514 96.1184 83.5908C96.0399 83.3547 95.9485 83.1149 95.8484 82.8716C94.2688 79.0076 90.2825 74.2013 90.7245 68.0738C90.7245 68.0738 90.7951 67.2034 90.7454 65.999C90.6641 64.0033 90.2537 61.0904 88.6497 59.693C86.0773 57.4525 81.5136 57.0378 78.443 57.7016C75.3724 58.3654 71.4725 56.374 68.8173 59.693C66.1622 63.0119 65.4984 68.4057 63.5063 70.2315C61.5149 72.0573 52.2211 75.9572 53.4652 87.7406C54.2831 95.4807 58.5732 99.7111 63.4912 101.21C66.0599 101.993 68.8 102.031 71.3062 101.433C78.6086 99.6895 82.3429 97.2835 89.0643 96.8688C89.2854 96.8551 89.4999 96.8313 89.7101 96.7997C95.3675 95.9516 97.1047 88.827 96.3761 84.6707Z" fill="#15286D"/>
<path d="M114.683 68.5628C114.683 68.5628 114.531 67.7996 113.828 66.12C113.125 64.4404 112.24 62.7917 112.24 62.7917C112.24 62.7917 113.537 58.9522 114.191 56.886C114.845 54.8197 114.088 54.1307 113.812 54.269C113.536 54.4072 113.261 55.4742 112.056 57.4374C110.851 59.4 109.374 61.2935 109.374 61.2935C109.374 61.2935 109.374 61.2935 108.165 61.3899C106.955 61.4864 106.471 62.3576 104.681 63.5188C102.89 64.6801 101.536 65.7931 100.229 67.0516C99.2072 68.0358 95.4736 72.3223 93.8897 74.1495C92.9019 71.2273 91.5823 67.989 90.7442 65.999C90.7932 67.2035 90.7234 68.0739 90.7234 68.0739C90.254 74.5873 94.7896 79.6082 96.1172 83.5916C96.2043 83.853 96.277 84.1359 96.3382 84.4354C97.4181 82.624 102.341 74.3526 103.404 72.385C104.598 70.1726 106.059 69.9508 106.7 69.9508C107.342 69.9508 108.78 70.3489 108.78 70.3489C108.78 70.3489 109.356 71.7874 109.82 71.876C110.284 71.9645 110.705 71.6103 110.705 71.6103C110.705 71.6103 111.59 72.8493 112.231 72.3626C112.872 71.876 112.165 69.9731 112.165 69.9731C112.165 69.9731 112.386 70.0394 112.829 70.2165C113.271 70.3936 115.174 71.7212 115.838 70.7032C116.501 69.6852 114.683 68.5628 114.683 68.5628Z" fill="#F4C9D3"/>
<path d="M96.3389 84.4325C96.354 84.5073 96.3627 84.5909 96.3756 84.6686L97.565 82.3713C97.565 82.3713 96.7255 78.7787 95.6795 76.346C94.6334 73.9134 94.4469 73.5059 94.4469 73.5059L93.8911 74.1466C93.8911 74.1466 94.6586 76.5426 95.3008 79.1092C95.5909 80.2697 95.755 81.6758 95.8486 82.8702C95.948 83.1135 96.0394 83.354 96.1186 83.5894C96.205 83.8493 96.2784 84.133 96.3389 84.4325Z" fill="#15286D"/>
<path d="M108.781 70.3477C108.781 70.3477 109.39 70.3995 109.701 70.3995C110.012 70.3995 110.234 70.3736 110.234 70.3736C110.234 70.3736 110.334 70.6882 110.445 70.9438C110.556 71.1994 110.706 71.609 110.706 71.609C110.706 71.609 109.504 71.3736 108.781 70.3477Z" fill="#15286D"/>
<path d="M112.167 69.9697C112.167 69.9697 111.879 69.8753 111.491 69.9697C111.102 70.064 110.236 70.3714 110.236 70.3714C110.236 70.3714 110.635 70.686 111.369 70.83C112.102 70.9747 112.441 70.9761 112.441 70.9761L112.167 69.9697Z" fill="#15286D"/>
<path d="M111.71 63.6451C111.558 64.3629 111.746 64.4219 111.602 65.1109C111.457 65.7999 111.257 66.8769 111.669 67.221C112.08 67.5652 112.568 67.7545 112.568 67.7545C112.568 67.7545 111.924 66.2326 111.802 65.7884C111.679 65.3442 112.061 64.8244 112.246 64.3557C112.432 63.8834 112.594 63.4601 112.594 63.4601L112.242 62.7891C112.242 62.7891 111.836 63.0432 111.71 63.6451Z" fill="#15286D"/>
<path d="M104.073 289.876C103.539 287.174 102.371 286.573 100.07 286.507C97.7681 286.44 97.7681 286.44 97.7681 286.44C97.7681 286.44 96.6673 284.639 96.3001 283.672C96.0194 282.932 94.2764 282.232 93.4729 281.943C93.4787 282.284 93.4859 282.711 93.4952 283.26C93.5391 285.847 93.0568 287.381 91.3908 288.17C89.7249 288.959 84.9898 287.293 83.938 286.285C83.7961 286.149 83.6953 285.959 83.6219 285.736C83.3202 285.802 82.8566 286.024 82.7248 286.773C82.5247 287.907 81.8573 290.676 81.7572 292.677C81.6572 294.678 80.4232 297.714 82.4577 298.247C84.4923 298.781 89.3959 299.472 92.2972 298.542C95.1993 297.614 98.0345 296.413 99.7357 295.712C101.438 295.013 104.606 292.577 104.073 289.876Z" fill="#15286D"/>
<path d="M76.9873 293.378C76.9203 291.944 75.4862 291.21 74.019 291.076C72.5517 290.943 71.2169 290.576 70.4164 288.641C69.6158 286.707 68.3487 284.939 66.5474 284.272C66.4567 284.238 66.3415 284.204 66.2126 284.168C66.4106 284.894 66.4912 285.36 66.2255 285.89C65.7432 286.855 63.9455 288.608 59.6057 287.338C56.2133 286.344 55.0484 284.972 54.8043 283.104C54.4501 283.946 53.7763 285.667 53.3716 287.474C52.8043 290.009 52.0037 293.011 51.8374 293.312C51.6704 293.612 51.0196 295.847 51.2284 296.68C51.4371 297.514 52.8713 297.814 55.4732 298.014C58.075 298.214 64.479 298.315 67.5143 298.482C70.5495 298.649 73.8181 298.515 75.4531 297.614C77.0874 296.713 77.0535 294.813 76.9873 293.378Z" fill="#15286D"/>
<path d="M59.6044 287.334C63.945 288.606 65.7419 286.852 66.2243 285.887C66.4892 285.357 66.4093 284.891 66.2113 284.165C66.0494 283.571 65.8082 282.803 65.6109 281.678C65.1725 279.179 64.9975 275.015 64.9975 275.015C64.9975 275.015 62.8053 274.62 60.3942 274.488C57.9831 274.356 55.2207 274.488 55.2207 274.488C55.2207 274.488 55.0011 278.653 54.7822 281.415C54.734 282.018 54.7347 282.577 54.8031 283.099C55.0471 284.969 56.212 286.341 59.6044 287.334Z" fill="#F4C9D3"/>
<path d="M60.0925 283.677C60.0378 283.677 59.983 283.662 59.9341 283.63C58.6792 282.807 59.032 281.486 59.3941 280.904C59.4784 280.768 59.6555 280.727 59.7915 280.81C59.9276 280.894 59.9701 281.072 59.8866 281.208C59.811 281.332 59.1767 282.441 60.2523 283.146C60.3862 283.233 60.4229 283.413 60.3358 283.547C60.2789 283.631 60.1868 283.677 60.0925 283.677Z" fill="#15286D"/>
<path d="M91.3912 288.169C93.0571 287.38 93.5395 285.846 93.4956 283.259C93.4862 282.71 93.479 282.283 93.4732 281.943C93.4516 280.678 93.4516 280.673 93.4516 280.673C93.4516 280.673 92.3998 280.585 90.5582 281.418C90.5006 281.444 90.4329 281.463 90.3695 281.486C90.1672 281.56 89.9448 281.62 89.6964 281.664C87.5423 282.045 83.9383 281.418 83.9383 281.418C83.9383 281.418 83.1528 284.303 83.6222 285.735C83.6957 285.958 83.7964 286.148 83.9383 286.285C84.9901 287.292 89.7252 288.958 91.3912 288.169Z" fill="#F4C9D3"/>
<path d="M89.8635 285.689C89.7893 285.689 89.7152 285.66 89.659 285.604C88.7065 284.651 89.5834 283.288 89.6216 283.231C89.7087 283.097 89.8865 283.059 90.0219 283.147C90.1558 283.234 90.1932 283.414 90.1061 283.548C90.0795 283.589 89.4502 284.576 90.0687 285.194C90.1817 285.307 90.1817 285.49 90.0687 285.604C90.0118 285.661 89.9376 285.689 89.8635 285.689Z" fill="#15286D"/>
<path d="M101.23 166.02L93.2709 152.664L67.3083 154.754C67.3083 154.754 63.0793 162.6 61.1318 170.725C59.1844 178.849 59.3291 184.839 60.3377 188.873C61.3464 192.906 60.5897 193.831 61.3464 196.183C62.1031 198.536 61.0102 199.628 61.3464 201.729C61.6826 203.83 61.0102 205.931 61.0944 209.039C61.1786 212.149 60.602 219.858 59.6135 224.598C58.625 229.338 57.7819 233.867 57.1498 237.238C56.5177 240.609 53.5681 251.985 53.463 256.199C53.3579 260.413 53.18 266.045 53.18 266.045C53.18 266.045 52.2045 265.687 52.0418 267.346C51.8791 269.004 51.6516 270.63 51.3917 271.508C51.1318 272.387 51.0339 273.98 52.3024 274.175C53.571 274.37 55.2233 274.492 55.2233 274.492C55.2233 274.492 57.985 274.36 60.3968 274.492C62.8086 274.624 65.0001 275.018 65.0001 275.018C65.0001 275.018 67.6841 275.55 67.7402 274.433C67.7964 273.317 67.8245 271.996 68.021 270.871C68.2175 269.747 68.4429 268.117 68.021 268.004C67.5991 267.892 67.5991 267.892 67.5991 267.892C67.5991 267.892 69.0887 262.973 69.5667 260.612C70.0448 258.251 70.0376 251.204 70.0376 251.204C70.0376 251.204 72.1916 246.261 72.4458 244.867C72.6999 243.474 72.7417 239.418 73.3752 238.742C74.0088 238.066 76.2903 234.644 76.5855 231.899C76.8814 229.153 80.1989 213.203 80.1989 213.203C80.1989 213.203 79.6647 227.8 80.1989 234.564C80.7331 241.329 80.9109 245.513 81.0002 249.963C81.0895 254.412 81.7122 262.156 82.0686 266.162C82.4249 270.167 82.5092 271.394 82.5092 271.394C82.5092 271.394 81.4127 271.156 81.2219 273.683C81.0311 276.21 80.638 279.408 81.6611 280.322C82.6841 281.236 83.9397 281.42 83.9397 281.42C83.9397 281.42 87.5438 282.047 89.6978 281.666L90.371 281.488C90.4336 281.465 90.502 281.446 90.5596 281.42C92.4012 280.587 93.4531 280.675 93.4531 280.675C93.4531 280.675 96.0046 280.475 96.0046 278.994C96.0046 277.514 95.8656 275.904 96.0046 274.613C96.1435 273.323 96.1118 272.945 95.8289 272.63C95.546 272.315 95.546 272.315 95.546 272.315C95.546 272.315 96.4272 267.751 96.6792 265.768C96.9311 263.785 97.1385 256.125 96.6792 252.054C96.2198 247.983 96.9664 246.286 97.7123 243.505C98.4589 240.723 98.3228 237.194 97.9837 235.158C97.6446 233.123 97.3761 229.595 98.2565 224.912C99.137 220.23 100.155 212.02 100.358 210.12C100.562 208.22 102.703 190.388 103.03 186.735C103.357 183.083 103.466 180.085 103.466 180.085L101.23 166.02Z" fill="#52B69A"/>
<path d="M72.2049 186.905C70.6217 187.339 68.6246 186.906 68.6044 186.902C68.4496 186.866 68.2934 186.965 68.2589 187.122C68.2243 187.278 68.3229 187.432 68.4792 187.467C68.5368 187.48 69.4518 187.679 70.5627 187.679C71.1394 187.679 71.7693 187.625 72.3582 187.464C72.5123 187.422 72.603 187.263 72.5612 187.109C72.5188 186.954 72.3611 186.864 72.2049 186.905Z" fill="#EBF1FE"/>
<path d="M66.4274 190.833C66.4598 190.965 66.5786 191.053 66.7082 191.053C66.7312 191.053 66.7542 191.05 66.778 191.045C67.0077 190.988 72.4353 189.646 74.7334 188.451C74.8752 188.377 74.9306 188.202 74.8565 188.061C74.7831 187.919 74.6088 187.862 74.4663 187.938C72.2294 189.101 66.6952 190.469 66.6398 190.483C66.4842 190.521 66.3892 190.677 66.4274 190.833Z" fill="#EBF1FE"/>
<path d="M64.3462 164.344L69.6623 165.612C69.5197 166.365 69.4081 167.173 69.3937 167.916C69.3908 168.075 69.5176 168.208 69.6781 168.211C69.6795 168.211 69.6817 168.211 69.6839 168.211C69.8415 168.211 69.9704 168.085 69.9733 167.926C69.987 167.186 70.1065 166.365 70.2555 165.605C71.1453 165.252 76.393 163.24 80.7509 163.159C85.5371 163.079 95.198 164.406 95.2952 164.419C95.4543 164.444 95.5997 164.332 95.6221 164.173C95.6444 164.013 95.5335 163.867 95.3751 163.846C95.2772 163.831 85.5565 162.475 80.7401 162.58C76.7005 162.656 71.9323 164.345 70.3988 164.929C70.6515 163.82 70.9229 162.975 70.9279 162.959C70.9769 162.808 70.8941 162.644 70.7422 162.594C70.5881 162.542 70.4268 162.628 70.3772 162.78C70.3549 162.849 70.0446 163.815 69.7782 165.044L64.4808 163.779C64.326 163.742 64.1691 163.838 64.1324 163.995C64.0942 164.15 64.1907 164.306 64.3462 164.344Z" fill="#EBF1FE"/>
<path d="M62.0723 204.95C61.9189 204.996 61.8325 205.158 61.8786 205.311C62.3804 206.974 63.7476 209.625 63.8052 209.737C63.857 209.836 63.9578 209.893 64.0629 209.893C64.1076 209.893 64.1529 209.883 64.1961 209.861C64.3379 209.787 64.3934 209.612 64.3199 209.471C64.3063 209.444 62.9196 206.756 62.433 205.144C62.3869 204.99 62.2249 204.904 62.0723 204.95Z" fill="#EBF1FE"/>
<path d="M79.6617 201.734C79.2189 197.387 78.3953 189.296 74.1829 184.577C69.4845 179.315 69.9892 172.372 69.995 172.303C70.0079 172.144 69.8891 172.004 69.73 171.991C69.5688 171.982 69.4305 172.097 69.4176 172.256C69.4118 172.328 68.8834 179.511 73.7509 184.964C77.8381 189.542 78.6494 197.511 79.0857 201.792C79.1613 202.534 79.2268 203.177 79.2959 203.691C79.3377 204.001 79.3766 204.319 79.414 204.639C79.2592 205.432 77.1498 216.225 76.4003 220.722C75.8676 223.916 74.9612 227.374 74.2326 230.153C73.9 231.421 73.6127 232.516 73.4298 233.33C73.0137 235.185 71.8092 238.063 70.9302 240.164C70.6112 240.925 70.3362 241.584 70.1555 242.055C68.9849 245.116 68.4521 247.596 68.5716 249.429C68.7286 251.824 68.0475 257.885 67.4852 260.031C66.9122 262.219 66.504 266.119 66.486 266.283C66.4694 266.442 66.5846 266.585 66.7444 266.602C66.7545 266.602 66.7646 266.603 66.7747 266.603C66.9208 266.603 67.0468 266.492 67.0626 266.343C67.067 266.303 67.4838 262.323 68.0461 260.178C68.6177 257.996 69.3096 251.83 69.1505 249.391C69.0367 247.643 69.5572 245.244 70.6969 242.263C70.8755 241.795 71.149 241.142 71.4651 240.388C72.3528 238.267 73.5681 235.362 73.9957 233.458C74.1764 232.653 74.4622 231.563 74.7934 230.301C75.5256 227.51 76.4356 224.038 76.9727 220.817C77.5522 217.338 78.9489 210.077 79.6199 206.617C79.864 209.28 79.9705 211.671 79.972 211.704C79.9785 211.859 80.1073 211.98 80.2614 211.98C80.2657 211.98 80.27 211.98 80.2744 211.98C80.4342 211.974 80.558 211.838 80.5515 211.678C80.5494 211.634 80.3521 207.169 79.8712 203.614C79.8013 203.105 79.7366 202.467 79.6617 201.734Z" fill="#EBF1FE"/>
<path d="M66.8521 267.495C66.7895 267.478 65.2791 267.067 62.0443 267.015C58.8744 266.963 54.3575 266.039 54.3121 266.03C54.153 265.996 54.0018 266.098 53.9694 266.255C53.937 266.411 54.0378 266.565 54.1948 266.597C54.2409 266.607 58.8104 267.543 62.035 267.594C65.1833 267.645 66.6822 268.05 66.6974 268.054C66.7233 268.06 66.7492 268.064 66.7744 268.064C66.9011 268.064 67.0177 267.98 67.053 267.851C67.0962 267.697 67.0055 267.538 66.8521 267.495Z" fill="#EBF1FE"/>
<path d="M56.1075 266.056C56.1154 266.057 56.124 266.057 56.132 266.057C56.281 266.057 56.4077 265.943 56.4199 265.792C56.4293 265.682 56.6467 263.105 56.6006 262.24C56.592 262.082 56.4552 261.965 56.2961 261.967C56.1363 261.975 56.0139 262.112 56.0225 262.271C56.0657 263.097 55.8454 265.717 55.8433 265.744C55.8303 265.902 55.9484 266.042 56.1075 266.056Z" fill="#EBF1FE"/>
<path d="M57.762 265.776C57.7901 265.784 57.8181 265.788 57.8455 265.788C57.97 265.788 58.0852 265.708 58.1227 265.582L58.798 263.332C58.8441 263.178 58.7569 263.017 58.6043 262.971C58.4495 262.926 58.2897 263.011 58.2436 263.165L57.5683 265.415C57.5215 265.569 57.6086 265.73 57.762 265.776Z" fill="#EBF1FE"/>
<path d="M91.8628 269.594V272.881C91.8628 273.04 91.9924 273.17 92.1522 273.17C92.312 273.17 92.4416 273.04 92.4416 272.881V269.594C92.4416 269.434 92.312 269.305 92.1522 269.305C91.9924 269.305 91.8628 269.434 91.8628 269.594Z" fill="#EBF1FE"/>
<path d="M94.8388 272.902C94.8229 272.912 93.2376 273.837 89.2109 274.668C87.2534 275.073 85.6875 274.719 84.6033 274.259C84.7264 273.616 85.0533 271.699 85.2361 268.62C85.46 264.858 84.7912 258.773 84.7847 258.712C84.7674 258.553 84.6249 258.445 84.4651 258.456C84.306 258.474 84.1915 258.617 84.2095 258.775C84.216 258.836 84.879 264.872 84.658 268.586C84.491 271.393 84.1972 273.251 84.0612 274C83.5104 273.71 83.1418 273.424 82.9856 273.291V272.205C82.9856 272.045 82.856 271.915 82.6962 271.915C82.5363 271.915 82.4067 272.045 82.4067 272.205V273.42C82.4067 273.498 82.4377 273.573 82.4931 273.627C82.581 273.713 84.37 275.428 87.4845 275.428C88.0547 275.428 88.6703 275.37 89.3276 275.234C90.923 274.904 92.1375 274.563 93.0367 274.264C93.4334 277.24 92.9971 279.412 92.9928 279.434C92.9604 279.591 93.0605 279.744 93.2174 279.777C93.2376 279.781 93.257 279.783 93.2765 279.783C93.4104 279.783 93.5313 279.689 93.5594 279.552C93.5796 279.457 94.0339 277.208 93.5947 274.07C94.6329 273.692 95.1008 273.419 95.1354 273.398C95.2729 273.315 95.3168 273.138 95.2347 273.001C95.1541 272.866 94.9777 272.82 94.8388 272.902Z" fill="#EBF1FE"/>
<path d="M95.7421 246.82C95.5967 246.75 95.4247 246.813 95.357 246.957C95.3224 247.03 94.5154 248.763 94.7004 250.889C94.8811 252.973 94.6514 259.216 94.3397 262.996C94.0294 266.769 93.2195 272.421 93.2115 272.478C93.1885 272.636 93.2987 272.783 93.457 272.806C93.4714 272.808 93.4851 272.809 93.4988 272.809C93.6406 272.809 93.7645 272.705 93.7853 272.56C93.7933 272.504 94.6054 266.835 94.9178 263.043C95.231 259.241 95.4614 252.95 95.2778 250.839C95.1072 248.876 95.8739 247.222 95.8818 247.205C95.9488 247.061 95.8861 246.888 95.7421 246.82Z" fill="#EBF1FE"/>
<path d="M100.083 172.234C100.059 172.076 99.9106 171.96 99.7529 171.991C99.5953 172.015 99.4858 172.163 99.5096 172.321C99.5168 172.367 100.206 176.966 100.298 180.814C100.39 184.674 100.299 188.151 100.298 188.186C100.294 188.345 100.42 188.479 100.579 188.482C100.582 188.482 100.585 188.482 100.587 188.482C100.744 188.482 100.872 188.358 100.877 188.2C100.877 188.166 100.97 184.675 100.877 180.8C100.785 176.915 100.09 172.28 100.083 172.234Z" fill="#EBF1FE"/>
<path d="M65.5807 160.354C65.5937 160.354 65.6074 160.354 65.621 160.351C65.639 160.349 67.2647 160.123 68.6441 159.969C68.6153 160.074 68.5894 160.171 68.5685 160.251L68.2791 161.349C68.256 161.436 68.2748 161.529 68.3295 161.6C68.3842 161.671 68.4691 161.712 68.5591 161.712H69.9472C70.0782 161.712 70.1927 161.625 70.2265 161.498C70.2323 161.475 70.837 159.235 71.4058 157.615C71.9825 155.971 72.2136 155.335 72.2143 155.333C72.269 155.183 72.1913 155.017 72.0408 154.962C71.8896 154.909 71.724 154.986 71.6693 155.135C71.6693 155.135 71.4375 155.773 70.8586 157.423C70.3871 158.766 69.8925 160.528 69.7255 161.133H68.9342L69.1272 160.397C69.1725 160.226 69.2373 159.989 69.3122 159.718C69.7118 158.279 70.436 155.778 70.4447 155.749C70.4893 155.595 70.4008 155.434 70.2474 155.39C70.0905 155.341 69.9335 155.433 69.8882 155.588C69.8802 155.616 69.2179 157.903 68.809 159.367C67.3777 159.521 65.5591 159.774 65.5397 159.777C65.3813 159.798 65.2711 159.945 65.2927 160.104C65.3143 160.25 65.4389 160.354 65.5807 160.354Z" fill="#EBF1FE"/>
<path d="M71.3402 161.314C71.3957 161.382 71.4785 161.422 71.5663 161.422H72.8672C72.9832 161.422 73.0883 161.353 73.1336 161.246C73.1401 161.231 73.5584 160.248 74.0688 159.167H82.0034C87.0372 159.167 92.7428 160.124 92.7996 160.134C92.8162 160.137 92.8328 160.138 92.8486 160.138C92.9876 160.138 93.1099 160.039 93.1337 159.897C93.1603 159.74 93.0545 159.59 92.8968 159.564C92.8392 159.554 87.0869 158.589 82.0041 158.589H74.3467C74.5361 158.201 74.7297 157.821 74.9133 157.486C75.7074 156.039 76.2553 155.2 76.2611 155.191C76.3482 155.058 76.3115 154.878 76.1775 154.79C76.0436 154.701 75.8637 154.74 75.7765 154.874C75.7535 154.908 75.2121 155.739 74.4058 157.206C74.1495 157.673 73.8744 158.227 73.6189 158.764V158.765C73.1991 159.647 72.8305 160.489 72.6772 160.844H71.9378C72.0674 160.355 72.3431 159.409 72.7888 158.322C73.436 156.747 74.4043 155.202 74.4144 155.187C74.4994 155.052 74.459 154.872 74.3237 154.787C74.1883 154.703 74.0091 154.743 73.9241 154.877C73.8838 154.942 72.9198 156.479 72.2531 158.102C71.5857 159.726 71.2956 161.015 71.2841 161.07C71.2646 161.155 71.2848 161.245 71.3402 161.314Z" fill="#EBF1FE"/>
<path d="M61.8611 190.094C61.9331 190.094 62.0051 190.068 62.0605 190.015L66.1275 186.141C66.2182 186.054 66.2434 185.92 66.1894 185.807C66.1721 185.771 64.4694 182.13 64.2844 178.171C64.0987 174.193 65.6127 168.052 65.6278 167.99C65.6545 167.884 65.6192 167.773 65.5364 167.701C65.4543 167.631 65.3391 167.611 65.2376 167.652C65.2232 167.657 63.7596 168.247 62.2851 168.607C62.1296 168.645 62.0346 168.801 62.072 168.957C62.1102 169.112 62.265 169.207 62.4219 169.17C63.409 168.93 64.3701 168.597 64.9381 168.387C64.8769 168.652 64.7963 169.013 64.7077 169.434C63.2117 169.9 61.6876 170.142 61.6717 170.145C61.5141 170.169 61.4054 170.317 61.4298 170.476C61.4522 170.619 61.5753 170.721 61.7157 170.721C61.7308 170.721 61.7452 170.72 61.7603 170.717C61.8222 170.707 63.1491 170.497 64.5738 170.081C64.1368 172.265 63.5846 175.626 63.7049 178.198C63.8733 181.799 65.216 185.047 65.5782 185.863L61.8503 189.414L61.1498 188.809C61.0288 188.706 60.8452 188.719 60.7416 188.84C60.6372 188.961 60.6509 189.143 60.7718 189.249L61.671 190.024C61.7272 190.071 61.7941 190.094 61.8611 190.094Z" fill="#EBF1FE"/>
<path d="M82.9731 190.095C83.0041 190.095 83.0351 190.09 83.0646 190.08L91.7795 187.175C91.8774 187.143 91.9501 187.062 91.971 186.961C91.9825 186.905 93.1388 181.348 93.1388 175.861V168.406C93.1388 168.321 93.1028 168.241 93.0394 168.187C92.9753 168.132 92.8904 168.105 92.8083 168.119C92.7543 168.126 87.359 168.892 83.3597 168.892C79.3662 168.892 75.0667 168.129 75.0242 168.12C74.9378 168.106 74.8507 168.129 74.7845 168.186C74.7182 168.242 74.6815 168.326 74.6837 168.413C74.6851 168.477 74.8464 174.869 75.4231 179.193C76.0041 183.55 76.2942 185.681 76.2942 185.681C76.3057 185.765 76.3525 185.838 76.4231 185.884L82.814 190.049C82.8623 190.08 82.9177 190.095 82.9731 190.095ZM75.2733 168.75C76.3885 168.932 79.9803 169.47 83.3605 169.47C86.8263 169.47 91.318 168.905 92.5606 168.738V169.847C91.6773 170.034 88.2115 170.708 83.9076 170.772C79.5966 170.843 76.1603 170.065 75.3115 169.854C75.2935 169.383 75.2805 169.002 75.2733 168.75ZM75.9976 179.116C75.6275 176.339 75.4295 172.699 75.3352 170.455C76.3871 170.704 79.5023 171.354 83.4001 171.354C83.57 171.354 83.7428 171.353 83.9155 171.35C88.0934 171.288 91.493 170.658 92.5599 170.438V175.861C92.5599 180.764 91.6247 185.729 91.4368 186.679L83.0142 189.487L76.8514 185.472C76.7794 184.947 76.4951 182.849 75.9976 179.116Z" fill="#EBF1FE"/>
<path d="M101.505 115.787C99.7056 112.366 98.3255 108.646 98.3255 108.646C98.3255 108.646 98.5054 103.726 97.0051 101.386C95.8186 99.5348 92.9403 97.799 89.7113 96.7969C89.5011 96.8286 89.2865 96.8523 89.0655 96.866C82.3441 97.2807 78.6097 99.6875 71.3073 101.43C68.8019 102.028 66.0611 101.991 63.4923 101.207C62.8177 104.021 62.0474 109.735 63.3635 118.998C65.3548 133.019 68.781 140.429 68.781 145.528C68.781 150.626 66.0726 155.805 66.0726 155.805C66.0726 155.805 72.1036 154.429 78.4643 154.069C84.825 153.709 94.3053 154.789 94.3053 154.789L97.1253 153.469C97.1253 153.469 98.0252 143.088 99.8856 137.448C101.746 131.808 104.746 128.807 104.986 125.507C105.225 122.207 103.305 119.207 101.505 115.787Z" fill="#FFFEFF"/>
<path d="M83.3595 113.546C83.2141 113.546 83.0881 113.436 83.0722 113.288C82.7742 110.607 83.5121 107.265 83.5438 107.123C83.5783 106.967 83.7324 106.868 83.8901 106.904C84.0463 106.938 84.1442 107.094 84.1097 107.25C84.1025 107.284 83.3609 110.64 83.6482 113.224C83.6655 113.383 83.551 113.527 83.3926 113.544C83.3811 113.545 83.3703 113.546 83.3595 113.546Z" fill="#52B69A"/>
<path d="M85.8859 144.287C85.8679 144.287 85.8499 144.286 85.8312 144.282C85.7261 144.261 83.2272 143.781 81.4108 143.012C81.2632 142.949 81.1948 142.779 81.2567 142.632C81.3193 142.485 81.4885 142.416 81.6361 142.478C83.3957 143.223 85.914 143.708 85.9392 143.713C86.0962 143.742 86.1998 143.894 86.1696 144.051C86.1437 144.19 86.022 144.287 85.8859 144.287Z" fill="#52B69A"/>
<path d="M85.4201 142.548C84.3869 142.548 83.8031 142.25 83.7793 142.237C83.6375 142.163 83.5821 141.988 83.6569 141.847C83.7311 141.706 83.9053 141.65 84.0457 141.724C84.0572 141.73 84.5475 141.97 85.4201 141.97C85.5799 141.97 85.7095 142.1 85.7095 142.26C85.7095 142.419 85.5799 142.548 85.4201 142.548Z" fill="#52B69A"/>
<path d="M69.0365 149.159C68.971 149.159 68.9055 149.137 68.8508 149.092C68.7284 148.99 68.7111 148.807 68.8133 148.684C68.8925 148.589 70.7687 146.345 72.3152 145.291C72.4476 145.201 72.6283 145.234 72.7176 145.367C72.8076 145.499 72.7738 145.679 72.6413 145.769C71.1625 146.777 69.2777 149.032 69.259 149.054C69.2021 149.124 69.1193 149.159 69.0365 149.159Z" fill="#52B69A"/>
<path d="M74.9459 102.549C74.8357 102.549 74.7306 102.485 74.6824 102.38C74.6161 102.234 74.6802 102.062 74.8256 101.996C74.8616 101.979 78.4448 100.334 79.6435 99.0685C79.7537 98.9533 79.9373 98.9476 80.0532 99.0577C80.1691 99.1679 80.1741 99.3508 80.064 99.4674C78.7875 100.814 75.218 102.453 75.0668 102.523C75.0265 102.54 74.9855 102.549 74.9459 102.549Z" fill="#52B69A"/>
<path d="M98.2766 122.953C98.4458 119.958 98.6373 116.565 98.6373 115.123V110.588C98.6373 110.429 98.5077 110.299 98.3479 110.299C98.1881 110.299 98.0585 110.429 98.0585 110.588V115.123C98.0585 116.549 97.867 119.934 97.6985 122.921C97.5804 125.011 97.4688 126.984 97.4372 128.031C97.404 129.119 97.4674 130.414 97.5502 131.546C96.6625 131.376 94.3486 131.019 91.8331 131.324C89.1844 131.645 87.0152 132.997 86.129 133.625C85.8914 130.621 85.4601 125.511 84.8827 120.073C83.9886 111.652 87.8626 103.405 87.9022 103.323C87.9713 103.178 87.9101 103.005 87.7654 102.937C87.62 102.867 87.4479 102.93 87.3795 103.074C87.3392 103.157 83.3946 111.547 84.3068 120.134C85.2096 128.635 85.7553 136.344 85.7604 136.421C85.7683 136.536 85.8446 136.635 85.9533 136.673C86.4148 136.834 86.8266 136.928 86.8266 136.928L86.9 136.07C87.6963 135.503 89.2679 134.624 91.7849 134.198C93.9505 133.832 95.6049 133.965 96.661 134.159L96.7021 134.933C96.7971 134.975 98.183 134.539 98.2665 134.477C98.3493 134.415 98.3932 134.313 98.381 134.21C98.3767 134.174 97.9404 130.538 98.016 128.05C98.0484 127.009 98.1593 125.039 98.2766 122.953ZM91.6891 133.625C88.7496 134.122 87.0462 135.198 86.296 135.792C86.2701 135.44 86.2319 134.933 86.183 134.303C86.7186 133.899 89.0577 132.242 91.9029 131.898C94.4818 131.586 96.903 132.007 97.597 132.146C97.6546 132.839 97.7143 133.435 97.7554 133.817C96.8806 133.551 94.7805 133.101 91.6891 133.625Z" fill="#52B69A"/>
<path d="M86.9385 135.763C86.9385 135.763 89.1221 134.235 91.7427 133.907C94.3633 133.58 96.6556 133.907 96.6556 133.907C96.6556 133.907 96.8738 140.131 98.0746 143.733C99.2755 147.336 103.533 162.293 104.735 168.298C105.936 174.303 108.593 180.277 108.653 181.959C108.713 183.64 108.893 188.685 107.571 190.126C106.25 191.568 103.007 193.55 102.347 193.55C101.686 193.55 101.026 191.508 103.368 189.826C105.71 188.144 104.929 185.562 104.929 184.962C104.929 184.361 102.407 180.337 101.806 178.055C101.206 175.773 101.566 174.091 100.785 172.65C100.005 171.208 89.4346 149.948 88.1135 146.585C86.7924 143.221 86.5447 140.195 86.9385 135.763Z" fill="#F4C9D3"/>
<path d="M106.137 188.109C106.107 188.109 106.076 188.104 106.046 188.094C105.705 187.983 105.393 188.09 105.391 188.091C105.24 188.144 105.075 188.068 105.02 187.919C104.965 187.769 105.04 187.604 105.189 187.548C105.21 187.541 105.689 187.366 106.229 187.545C106.381 187.595 106.463 187.759 106.412 187.911C106.371 188.033 106.258 188.109 106.137 188.109Z" fill="#15286D"/>
<path d="M105.287 184.429C105.236 184.429 105.184 184.416 105.137 184.387C105.001 184.304 104.957 184.126 105.04 183.989C105.071 183.939 105.801 182.754 106.83 182.375C106.981 182.32 107.146 182.398 107.202 182.547C107.257 182.697 107.18 182.863 107.03 182.919C106.193 183.227 105.542 184.28 105.535 184.291C105.48 184.38 105.385 184.429 105.287 184.429Z" fill="#15286D"/>
<defs>
<linearGradient id="paint0_linear_544_3028" x1="17.1154" y1="220.04" x2="37.3391" y2="220.04" gradientUnits="userSpaceOnUse">
<stop stop-color="white" stop-opacity="0"/>
<stop offset="1"/>
</linearGradient>
<linearGradient id="paint1_linear_544_3028" x1="287.398" y1="229.536" x2="307.811" y2="229.536" gradientUnits="userSpaceOnUse">
<stop stop-color="white" stop-opacity="0"/>
<stop offset="1"/>
</linearGradient>
<linearGradient id="paint2_linear_544_3028" x1="100.802" y1="86.7083" x2="134.898" y2="27.6518" gradientUnits="userSpaceOnUse">
<stop stop-color="#B5C2F7" stop-opacity="0.6974"/>
<stop offset="1" stop-color="#5C71E6"/>
</linearGradient>
<linearGradient id="paint3_linear_544_3028" x1="100.802" y1="86.7083" x2="134.898" y2="27.6518" gradientUnits="userSpaceOnUse">
<stop stop-color="#B5C2F7" stop-opacity="0.6974"/>
<stop offset="1" stop-color="#5C71E6"/>
</linearGradient>
<linearGradient id="paint4_linear_544_3028" x1="101.331" y1="123.903" x2="133.091" y2="68.893" gradientUnits="userSpaceOnUse">
<stop stop-color="#B5C2F7" stop-opacity="0.6974"/>
<stop offset="1" stop-color="#5C71E6"/>
</linearGradient>
<linearGradient id="paint5_linear_544_3028" x1="101.648" y1="163.166" x2="132.879" y2="109.072" gradientUnits="userSpaceOnUse">
<stop stop-color="#B5C2F7" stop-opacity="0.6974"/>
<stop offset="1" stop-color="#5C71E6"/>
</linearGradient>
<linearGradient id="paint6_linear_544_3028" x1="101.743" y1="204.455" x2="132.737" y2="150.771" gradientUnits="userSpaceOnUse">
<stop stop-color="#B5C2F7" stop-opacity="0.6974"/>
<stop offset="1" stop-color="#5C71E6"/>
</linearGradient>
<linearGradient id="paint7_linear_544_3028" x1="102.347" y1="245.946" x2="132.025" y2="194.542" gradientUnits="userSpaceOnUse">
<stop stop-color="#B5C2F7" stop-opacity="0.6974"/>
<stop offset="1" stop-color="#5C71E6"/>
</linearGradient>
</defs>
</svg>
