<svg width="49" height="25" viewBox="0 0 49 25" fill="none" xmlns="http://www.w3.org/2000/svg">
<rect x="33.8823" y="7.63647" width="6.09321" height="16.404" fill="#1A202C"/>
<path d="M6.28537 18.0274V1.25464L1.34661 4.85482C0.499139 5.4726 0 6.44461 0 7.47719V20.7274C0 22.5348 1.50083 24.0001 3.3522 24.0001H13.0956C13.79 24.0001 14.4673 23.7895 15.0339 23.3975L22.7949 18.0274H6.28537Z" fill="#2D3748"/>
<path d="M13.3656 0H7.90576V16.3827H23.8759V0H18.416V11.055H13.3656V0Z" fill="#1A202C"/>
<path d="M25.9766 0H32.1189H42.775C45.6995 0 48.0703 2.31093 48.0703 5.16161V17.0815C48.0703 17.7259 47.7698 18.3353 47.2536 18.7379L41.9045 22.9091V5.79798H32.1189V11.0528C32.1189 11.6876 31.8272 12.2891 31.3239 12.692L25.9766 16.3366V0Z" fill="#2D3748"/>
</svg>
