<svg width="50" height="14" viewBox="0 0 50 14" fill="none" xmlns="http://www.w3.org/2000/svg">
<g clip-path="url(#clip0_928_2536)">
<path d="M8.19269 1.38513C8.01735 1.11237 7.78935 0.874903 7.52002 0.685575C7.24869 0.506516 6.95069 0.367889 6.63669 0.272904C6.29535 0.165725 5.94335 0.0938448 5.58602 0.0591882C5.16869 0.0193972 4.74935 0.000785324 4.32935 0.00271069H0.694685C0.346685 -0.028737 0.0380182 0.217068 0.00535153 0.551441C0.00535153 0.557217 0.00401819 0.563635 0.00401819 0.569411V6.28326C0.508018 7.32425 1.34469 8.18232 2.39202 8.73233V7.59187C2.35869 7.2222 2.64269 6.89617 3.02669 6.86408H3.02802H4.11869C5.60669 6.86408 6.74202 6.56437 7.52469 5.96494C8.30735 5.36551 8.70469 4.47663 8.71669 3.29894C8.71802 2.95944 8.67669 2.62121 8.59335 2.29133C8.51002 1.97108 8.37535 1.66495 8.19335 1.38513H8.19269ZM6.06269 4.30655C5.93602 4.51642 5.74735 4.68585 5.52135 4.79303C5.27602 4.90598 5.01135 4.97337 4.74002 4.99263C4.44202 5.02857 4.14269 5.04589 3.84202 5.04525H2.79535C2.54469 5.04525 2.38802 4.84951 2.38802 4.56263V2.21817C2.37469 2.02563 2.52602 1.85877 2.72602 1.84529C2.74935 1.84401 2.77202 1.84465 2.79468 1.84721H3.84135C4.18069 1.84721 4.50069 1.85684 4.80069 1.87545C5.06869 1.88765 5.33135 1.9499 5.57469 2.05772C5.79869 2.15399 5.98602 2.31508 6.10869 2.51981C6.24802 2.79385 6.31135 3.09742 6.29402 3.40163C6.30135 3.71739 6.22069 4.02866 6.06135 4.30463V4.30784L6.06269 4.30655ZM2.39535 9.07569C1.49935 8.76442 0.683352 8.27024 0.00401819 7.62717V10.374C-0.0273151 10.5884 0.128018 10.7867 0.350685 10.8162C0.356018 10.8169 0.362018 10.8175 0.367352 10.8182H2.01002C2.44602 10.8182 2.39535 10.3702 2.39535 10.3702V9.07569ZM24.974 2.99473H23.5567C23.2774 2.97741 23.0254 3.15582 22.9607 3.41832L21.314 7.78505C21.314 7.78505 19.86 3.8066 19.7514 3.49854C19.688 3.20588 19.422 2.99473 19.1114 2.99088H17.8067C17.3414 2.99088 17.3414 3.34066 17.4034 3.47736C17.4654 3.61406 19.25 8.32351 19.9474 10.1257C20.0574 10.3477 20.134 10.5833 20.176 10.8252C20.1307 11.0646 20.0367 11.2931 19.9 11.4972C19.8467 11.5838 19.786 11.666 19.718 11.7423C21.0627 11.3573 22.626 9.9543 23.4107 8.43904C24.2034 6.33974 25.246 3.54026 25.2934 3.39714C25.344 3.177 25.344 2.99473 24.9734 2.99473H24.974ZM18.6567 12.1691C18.5354 12.1659 18.414 12.1569 18.2934 12.1409C18.144 12.1197 17.8607 12.1409 17.8607 12.386V13.436C17.8607 13.8384 18.064 13.8667 18.1694 13.8942C18.506 13.9655 18.85 14.0008 19.194 13.9995C19.6014 14.0098 20.0054 13.9295 20.3754 13.7652C20.7134 13.601 21.014 13.3725 21.2587 13.0933C21.536 12.7878 21.7707 12.4496 21.9567 12.0857C22.158 11.6987 22.3494 11.2706 22.5307 10.8015L22.7414 10.245C22.32 10.6474 20.4587 12.3373 18.656 12.1698L18.6567 12.1691ZM16.512 4.25072C16.4347 4.07422 16.3294 3.90993 16.1994 3.76424C16.068 3.62946 15.9187 3.51202 15.756 3.41446C15.58 3.29894 15.3927 3.20075 15.196 3.12052C14.996 3.04608 14.7907 2.98639 14.582 2.94211C14.3427 2.89141 14.0994 2.85739 13.8554 2.8407C13.5934 2.81503 13.3007 2.8022 12.976 2.8022C10.81 2.8022 9.57669 3.46003 9.27602 4.7757C9.22735 4.9631 9.34535 5.15307 9.54002 5.20056C9.55869 5.20506 9.57735 5.20827 9.59602 5.20955H10.93C11.2934 5.20955 11.2934 5.10109 11.4314 4.80009C11.492 4.63643 11.6007 4.49267 11.744 4.38742C12.0847 4.17563 12.488 4.07615 12.8927 4.10375C13.27 4.06652 13.6494 4.15701 13.9647 4.35918C14.2054 4.57546 14.348 4.87518 14.3607 5.19222C14.3607 5.62607 14.2227 5.91295 13.6627 5.91295C12.336 5.86738 10.9114 6.01115 10.108 6.45526C9.30335 6.92826 8.82335 7.77992 8.85069 8.68741C8.84135 9.03462 8.91469 9.37926 9.06535 9.69502C9.20669 9.9697 9.41202 10.2091 9.66535 10.3946C9.93069 10.6032 10.2374 10.7578 10.5667 10.8496C10.9387 10.9465 11.3227 10.9934 11.708 10.9895C12.2267 10.9972 12.7427 10.9266 13.238 10.7796C13.676 10.607 14.09 10.3824 14.47 10.1115V10.3567C14.47 10.598 14.546 10.8149 14.8334 10.8149H16.378C16.6907 10.8149 16.7634 10.6012 16.7634 10.3355V5.75507C16.7654 5.46947 16.7447 5.18388 16.7014 4.90149C16.6674 4.67751 16.6034 4.4593 16.512 4.25072ZM14.4 8.7503C14.4 8.7503 14 9.55511 12.5827 9.55511C12.2427 9.56987 11.9067 9.48066 11.6234 9.29968C11.37 9.11035 11.2327 8.80999 11.26 8.50193C11.228 8.08541 11.4667 7.69263 11.86 7.5155C12.4334 7.30371 13.0454 7.20487 13.6594 7.22477C14.0187 7.17278 14.354 7.41089 14.408 7.75681C14.4134 7.78954 14.4154 7.82228 14.4154 7.85501L14.4007 8.75095L14.4 8.7503Z" fill="#1A202C"/>
<path d="M49.7261 5.80522C50.0914 6.37064 50.0914 7.08688 49.7261 7.65293C49.3628 8.18498 47.3814 10.2214 46.7274 10.8754C46.1601 11.4421 45.3934 12.0158 44.6341 12.0158H28.8994C26.7694 12.0158 26.6421 11.3163 26.6421 9.75544V3.39081C26.6421 1.79147 27.1328 1.32617 28.5901 1.32617H44.6701C45.4228 1.32617 46.0948 1.69713 46.8508 2.44609C47.5121 3.0866 49.4641 5.42721 49.7261 5.80522Z" fill="#33CCCC"/>
<path d="M30.2155 3.78592V3.74741C30.2155 3.54075 30.2155 3.3418 29.8521 3.3418H28.5328C28.2241 3.3418 28.2095 3.50289 28.2095 3.75447V5.43403C28.7301 4.73641 29.4181 4.17099 30.2155 3.78592Z" fill="white"/>
<path d="M39.0515 9.85868V9.76755V5.71593C39.0515 4.02032 38.2735 3.17188 36.7182 3.17188C36.2855 3.17701 35.8622 3.29831 35.4968 3.52165C35.0942 3.76361 34.7348 4.06589 34.4322 4.41759C34.2948 4.03765 34.0288 3.71355 33.6762 3.49726C33.2755 3.28483 32.8215 3.1815 32.3642 3.20011C31.6915 3.20268 31.0382 3.41896 30.5068 3.81623C30.3908 3.9279 28.2062 5.56575 28.2062 7.27355V9.86638C28.2062 9.94661 28.1628 10.2617 28.5295 10.2617H29.8995C30.3248 10.2617 30.2848 9.99217 30.2848 9.8805V5.68191C30.5135 5.38477 30.9828 4.6743 31.7568 4.6743C32.0088 4.65248 32.2535 4.76351 32.3968 4.96504C32.5522 5.26347 32.6202 5.59784 32.5928 5.93093V9.20277V9.87473C32.5928 9.95495 32.5495 10.2701 32.9162 10.2701H34.2722C34.6975 10.2701 34.6575 10.0005 34.6575 9.88885V9.79771V5.66908C34.9048 5.37193 35.3842 4.66147 36.1295 4.66147C36.3842 4.64157 36.6315 4.75196 36.7802 4.9522C36.9382 5.24999 37.0075 5.58436 36.9802 5.91809V9.18994V9.86189C36.9802 9.94211 36.9368 10.2572 37.3035 10.2572H38.6735C39.1022 10.2361 39.0515 9.97035 39.0515 9.86189V9.85868Z" fill="white"/>
<path d="M46.6075 8.21293C46.1295 9.44966 44.8728 10.2448 43.5035 10.1762C41.4102 10.1762 40.0142 8.80466 40.0142 6.74708C40.0142 4.68951 41.4682 3.24805 43.4308 3.24805C45.3935 3.24805 46.7022 4.55666 46.7855 6.66686C46.7855 6.93641 46.7162 7.17452 46.3642 7.17452H41.9228C41.9522 8.30471 42.5155 8.92404 43.5182 8.92404C44.0622 8.93687 44.5642 8.64486 44.8048 8.17507C44.8988 8.04286 45.0562 7.9652 45.2228 7.96841H46.3675C46.4935 7.96263 46.6008 8.05634 46.6068 8.17828C46.6075 8.19496 46.6068 8.21101 46.6035 8.22769L46.6068 8.21357L46.6075 8.21293ZM43.4382 4.55281C42.6055 4.55281 42.0422 5.10924 41.9188 6.02571H44.8995C44.8235 5.22412 44.3722 4.55281 43.4382 4.55281Z" fill="white"/>
</g>
<defs>
<clipPath id="clip0_928_2536">
<rect width="50" height="14" fill="white"/>
</clipPath>
</defs>
</svg>
