<svg width="15" height="15" viewBox="0 0 15 15" fill="none" xmlns="http://www.w3.org/2000/svg">
<path d="M13.0295 9.28477L10.2691 8.04786L10.2615 8.04434C10.1182 7.98305 9.9619 7.95845 9.8067 7.97277C9.65151 7.9871 9.50233 8.03989 9.37266 8.12637C9.35739 8.13645 9.34272 8.14741 9.32872 8.15918L7.90254 9.375C6.99903 8.93614 6.06622 8.01035 5.62735 7.11856L6.84493 5.67071C6.85665 5.65606 6.86778 5.64141 6.87833 5.62559C6.96295 5.49627 7.0143 5.34804 7.02779 5.19409C7.04128 5.04014 7.01651 4.88523 6.95567 4.74317V4.73614L5.71524 1.9711C5.63481 1.78551 5.49652 1.63091 5.32101 1.53038C5.1455 1.42984 4.94218 1.38877 4.74141 1.41328C3.94745 1.51776 3.21867 1.90768 2.69118 2.51022C2.16369 3.11275 1.87357 3.8867 1.87501 4.6875C1.87501 9.33985 5.66016 13.125 10.3125 13.125C11.1133 13.1264 11.8873 12.8363 12.4898 12.3088C13.0923 11.7813 13.4822 11.0526 13.5867 10.2586C13.6113 10.0579 13.5703 9.85462 13.4699 9.67912C13.3694 9.50362 13.215 9.36529 13.0295 9.28477ZM10.3125 12.1875C8.32405 12.1853 6.41765 11.3945 5.0116 9.98841C3.60555 8.58235 2.81468 6.67596 2.81251 4.6875C2.8103 4.11533 3.01644 3.56191 3.39243 3.13061C3.76842 2.69931 4.28854 2.41961 4.85567 2.34375C4.85544 2.34609 4.85544 2.34845 4.85567 2.35078L6.08614 5.10469L4.87501 6.5543C4.86271 6.56845 4.85155 6.58353 4.84161 6.59942C4.75343 6.73472 4.70171 6.89051 4.69144 7.05168C4.68117 7.21285 4.71272 7.37394 4.78301 7.51934C5.31387 8.60508 6.40782 9.69082 7.50528 10.2211C7.65174 10.2907 7.81377 10.3212 7.97552 10.3095C8.13727 10.2978 8.29322 10.2443 8.42813 10.1543C8.44317 10.1442 8.45765 10.1332 8.47149 10.1215L9.8959 8.90625L12.6498 10.1397H12.6563C12.5813 10.7076 12.302 11.2288 11.8707 11.6057C11.4393 11.9826 10.8854 12.1894 10.3125 12.1875Z" fill="black"/>
</svg>
