<svg width="32" height="40" viewBox="0 0 32 40" fill="none" xmlns="http://www.w3.org/2000/svg">
<path d="M16.0002 21.8337C19.0377 21.8337 21.5002 19.3712 21.5002 16.3337C21.5002 13.2961 19.0377 10.8337 16.0002 10.8337C12.9626 10.8337 10.5002 13.2961 10.5002 16.3337C10.5002 19.3712 12.9626 21.8337 16.0002 21.8337Z" fill="#007AC1"/>
<path d="M16.0002 38.3337C23.3335 31.0003 30.6668 24.4338 30.6668 16.3337C30.6668 8.23348 24.1003 1.66699 16.0002 1.66699C7.89999 1.66699 1.3335 8.23348 1.3335 16.3337C1.3335 24.4338 8.66683 31.0003 16.0002 38.3337Z" fill="#007AC1"/>
<path d="M16.0002 21.8337C19.0377 21.8337 21.5002 19.3712 21.5002 16.3337C21.5002 13.2961 19.0377 10.8337 16.0002 10.8337C12.9626 10.8337 10.5002 13.2961 10.5002 16.3337C10.5002 19.3712 12.9626 21.8337 16.0002 21.8337Z" stroke="white" stroke-width="2" stroke-linecap="round" stroke-linejoin="round"/>
<path d="M16.0002 38.3337C23.3335 31.0003 30.6668 24.4338 30.6668 16.3337C30.6668 8.23348 24.1003 1.66699 16.0002 1.66699C7.89999 1.66699 1.3335 8.23348 1.3335 16.3337C1.3335 24.4338 8.66683 31.0003 16.0002 38.3337Z" stroke="white" stroke-width="2" stroke-linecap="round" stroke-linejoin="round"/>
</svg>
