<svg width="106" height="106" viewBox="0 0 106 106" fill="none" xmlns="http://www.w3.org/2000/svg">
<g filter="url(#filter0_d_1126_8590)">
<circle cx="53" cy="52" r="50" fill="#1A202C"/>
</g>
<path d="M79.25 52.0002C79.2515 52.6368 79.0883 53.263 78.7762 53.8179C78.464 54.3727 78.0136 54.8374 77.4687 55.1666L43.7 75.8244C43.1307 76.173 42.4786 76.3634 41.8111 76.3757C41.1436 76.3881 40.485 76.222 39.9031 75.8947C39.3268 75.5725 38.8467 75.1026 38.5123 74.5333C38.1778 73.964 38.001 73.3159 38 72.6557V31.3447C38.001 30.6845 38.1778 30.0364 38.5123 29.4671C38.8467 28.8978 39.3268 28.4279 39.9031 28.1057C40.485 27.7784 41.1436 27.6123 41.8111 27.6247C42.4786 27.637 43.1307 27.8273 43.7 28.176L77.4687 48.8338C78.0136 49.163 78.464 49.6277 78.7762 50.1825C79.0883 50.7374 79.2515 51.3636 79.25 52.0002Z" fill="#52B69A"/>
<defs>
<filter id="filter0_d_1126_8590" x="0.5" y="0.75" width="105" height="105" filterUnits="userSpaceOnUse" color-interpolation-filters="sRGB">
<feFlood flood-opacity="0" result="BackgroundImageFix"/>
<feColorMatrix in="SourceAlpha" type="matrix" values="0 0 0 0 0 0 0 0 0 0 0 0 0 0 0 0 0 0 127 0" result="hardAlpha"/>
<feOffset dy="1.25"/>
<feGaussianBlur stdDeviation="1.25"/>
<feComposite in2="hardAlpha" operator="out"/>
<feColorMatrix type="matrix" values="0 0 0 0 0 0 0 0 0 0 0 0 0 0 0 0 0 0 0.1 0"/>
<feBlend mode="normal" in2="BackgroundImageFix" result="effect1_dropShadow_1126_8590"/>
<feBlend mode="normal" in="SourceGraphic" in2="effect1_dropShadow_1126_8590" result="shape"/>
</filter>
</defs>
</svg>
