<svg width="30" height="30" viewBox="0 0 30 30" fill="none" xmlns="http://www.w3.org/2000/svg">
<path d="M12.5005 3.125C14.248 3.12493 15.9607 3.61327 17.4453 4.5349C18.93 5.45654 20.1275 6.77479 20.9028 8.34088C21.678 9.90697 22.0001 11.6586 21.8328 13.398C21.6654 15.1374 21.0152 16.7955 19.9555 18.185L25.8842 24.1162C26.1084 24.3412 26.2386 24.643 26.2483 24.9605C26.258 25.2779 26.1465 25.5871 25.9364 25.8253C25.7264 26.0636 25.4335 26.2129 25.1174 26.243C24.8012 26.2731 24.4855 26.1818 24.2342 25.9875L24.1167 25.8838L18.1855 19.955C17.0017 20.8576 15.6201 21.4654 14.1548 21.728C12.6895 21.9906 11.1828 21.9005 9.75923 21.4651C8.3357 21.0298 7.0363 20.2617 5.96855 19.2244C4.9008 18.1872 4.09541 16.9106 3.61902 15.5002C3.14262 14.0899 3.00892 12.5864 3.22898 11.1141C3.44903 9.64187 4.01652 8.24318 4.88448 7.03378C5.75243 5.82439 6.89591 4.83907 8.22029 4.15936C9.54466 3.47964 11.0119 3.12508 12.5005 3.125ZM12.5005 5.625C10.6771 5.625 8.92844 6.34933 7.63912 7.63864C6.34981 8.92795 5.62548 10.6766 5.62548 12.5C5.62548 14.3234 6.34981 16.072 7.63912 17.3614C8.92844 18.6507 10.6771 19.375 12.5005 19.375C14.3238 19.375 16.0725 18.6507 17.3618 17.3614C18.6512 16.072 19.3755 14.3234 19.3755 12.5C19.3755 10.6766 18.6512 8.92795 17.3618 7.63864C16.0725 6.34933 14.3238 5.625 12.5005 5.625Z" fill="#4A5568"/>
</svg>
