<svg width="24" height="24" viewBox="0 0 24 24" fill="none" xmlns="http://www.w3.org/2000/svg">
<path d="M16 1C16.2652 1 16.5196 1.10536 16.7071 1.29289C16.8946 1.48043 17 1.73478 17 2V2.999L22 3V9L19.98 8.999L22.747 16.595C22.935 17.103 23.0178 17.6439 22.9905 18.1849C22.9632 18.7259 22.8263 19.2557 22.588 19.7422C22.3498 20.2287 22.0153 20.6617 21.6047 21.015C21.1941 21.3684 20.7161 21.6346 20.1995 21.7977C19.683 21.9607 19.1387 22.0171 18.5996 21.9635C18.0606 21.9099 17.5381 21.7473 17.0638 21.4857C16.5895 21.2241 16.1732 20.8689 15.8403 20.4416C15.5074 20.0143 15.2647 19.5239 15.127 19H10.874C10.6466 19.8776 10.128 20.6521 9.40302 21.1965C8.67805 21.7409 7.78972 22.023 6.88349 21.9966C5.97726 21.9702 5.10683 21.6369 4.41475 21.0513C3.72268 20.4657 3.24995 19.6624 3.074 18.773C2.74994 18.604 2.47845 18.3493 2.28908 18.0367C2.09971 17.7241 1.99973 17.3655 2 17V12H11C11 12.2449 11.09 12.4813 11.2527 12.6644C11.4155 12.8474 11.6398 12.9643 11.883 12.993L12 13H14C14.2449 13 14.4813 12.91 14.6644 12.7473C14.8474 12.5845 14.9643 12.3603 14.993 12.117L15 12V3H12V1H16ZM7 16C6.46957 16 5.96086 16.2107 5.58579 16.5858C5.21071 16.9609 5 17.4696 5 18C5 18.5304 5.21071 19.0391 5.58579 19.4142C5.96086 19.7893 6.46957 20 7 20C7.53043 20 8.03914 19.7893 8.41421 19.4142C8.78929 19.0391 9 18.5304 9 18C9 17.4696 8.78929 16.9609 8.41421 16.5858C8.03914 16.2107 7.53043 16 7 16ZM19 16C18.4696 16 17.9609 16.2107 17.5858 16.5858C17.2107 16.9609 17 17.4696 17 18C17 18.5304 17.2107 19.0391 17.5858 19.4142C17.9609 19.7893 18.4696 20 19 20C19.5304 20 20.0391 19.7893 20.4142 19.4142C20.7893 19.0391 21 18.5304 21 18C21 17.4696 20.7893 16.9609 20.4142 16.5858C20.0391 16.2107 19.5304 16 19 16ZM10 3C10.2652 3 10.5196 3.10536 10.7071 3.29289C10.8946 3.48043 11 3.73478 11 4V11H2V4C2 3.73478 2.10536 3.48043 2.29289 3.29289C2.48043 3.10536 2.73478 3 3 3H10ZM20 5H17V7H20V5ZM9 5H4V6H9V5Z" fill="#52B69A"/>
</svg>
