<svg width="26" height="25" viewBox="0 0 26 25" fill="none" xmlns="http://www.w3.org/2000/svg">
<g clip-path="url(#clip0_396_2575)">
<path d="M21.2029 12.8906H21.1365L19.8299 8.97363L18.0174 3.53613C17.9397 3.30278 17.7906 3.09978 17.5911 2.95588C17.3917 2.81199 17.152 2.73449 16.906 2.73438H13.781C13.4702 2.73438 13.1722 2.85784 12.9524 3.07761C12.7326 3.29738 12.6092 3.59545 12.6092 3.90625C12.6092 4.21705 12.7326 4.51512 12.9524 4.73489C13.1722 4.95466 13.4702 5.07812 13.781 5.07812H16.0613L17.406 9.11133L12.035 16.0156H8.62479C8.43894 15.1017 7.9322 14.2843 7.1962 13.7115C6.4602 13.1386 5.54351 12.848 4.61188 12.8921C3.68025 12.9363 2.79517 13.3124 2.11667 13.9523C1.43817 14.5923 1.01104 15.4538 0.912497 16.3813C0.813955 17.3088 1.05051 18.2409 1.57939 19.0091C2.10827 19.7773 2.89457 20.3309 3.79612 20.5699C4.69767 20.8088 5.65496 20.7173 6.4949 20.3119C7.33485 19.9065 8.00202 19.2139 8.37577 18.3594H12.6092C12.7876 18.3594 12.9636 18.3186 13.1239 18.2403C13.2841 18.1619 13.4244 18.048 13.534 17.9072L18.2967 11.7842L18.9139 13.6396C18.1619 14.1875 17.6302 14.9857 17.4143 15.8907C17.1985 16.7956 17.3128 17.7479 17.7365 18.5762C18.1603 19.4044 18.8658 20.0542 19.726 20.4086C20.5862 20.763 21.5446 20.7987 22.4288 20.5094C23.3131 20.2201 24.065 19.6247 24.5493 18.8303C25.0336 18.036 25.2185 17.0948 25.0707 16.1763C24.9229 15.2578 24.4521 14.4221 23.743 13.8198C23.034 13.2175 22.1333 12.888 21.2029 12.8906ZM4.79667 18.3594C4.48763 18.3594 4.18554 18.2677 3.92859 18.096C3.67164 17.9244 3.47137 17.6803 3.35311 17.3948C3.23484 17.1093 3.2039 16.7951 3.26419 16.492C3.32448 16.189 3.47329 15.9105 3.69181 15.692C3.91033 15.4735 4.18874 15.3247 4.49184 15.2644C4.79493 15.2041 5.1091 15.2351 5.39461 15.3533C5.68012 15.4716 5.92415 15.6718 6.09584 15.9288C6.26753 16.1857 6.35917 16.4878 6.35917 16.7969C6.35917 17.2113 6.19455 17.6087 5.90152 17.9017C5.6085 18.1948 5.21107 18.3594 4.79667 18.3594ZM21.2029 18.3594C20.8939 18.3594 20.5918 18.2677 20.3348 18.096C20.0779 17.9244 19.8776 17.6803 19.7594 17.3948C19.6411 17.1093 19.6102 16.7951 19.6704 16.492C19.7307 16.189 19.8795 15.9105 20.0981 15.692C20.3166 15.4735 20.595 15.3247 20.8981 15.2644C21.2012 15.2041 21.5154 15.2351 21.8009 15.3533C22.0864 15.4716 22.3304 15.6718 22.5021 15.9288C22.6738 16.1857 22.7654 16.4878 22.7654 16.7969C22.7654 17.2113 22.6008 17.6087 22.3078 17.9017C22.0147 18.1948 21.6173 18.3594 21.2029 18.3594Z" fill="#459F86"/>
</g>
<defs>
<clipPath id="clip0_396_2575">
<rect width="25" height="25" fill="white" transform="translate(0.5)"/>
</clipPath>
</defs>
</svg>
