<svg width="25" height="31" viewBox="0 0 25 31" fill="none" xmlns="http://www.w3.org/2000/svg">
<path d="M3.57143 2.25098C1.60156 2.25098 0 3.93262 0 6.00098V24.751C0 26.8193 1.60156 28.501 3.57143 28.501H21.4286C23.3984 28.501 25 26.8193 25 24.751V6.00098C25 3.93262 23.3984 2.25098 21.4286 2.25098H3.57143ZM20.1507 7.17285L14.3583 14.1221L21.1719 23.5791H15.8371L11.6629 17.8428L6.88058 23.5791H4.22991L10.4241 16.1436L3.88951 7.17285H9.35826L13.1362 12.417L17.5 7.17285H20.1507ZM18.0413 21.915L8.56027 8.74902H6.98103L16.5681 21.915H18.0357H18.0413Z" fill="white"/>
</svg>
