<svg width="50" height="14" viewBox="0 0 50 14" fill="none" xmlns="http://www.w3.org/2000/svg">
<g clip-path="url(#clip0_305_3271)">
<path d="M14.2493 6.98251C14.2531 8.36784 13.8381 9.72246 13.0575 10.8763C12.2768 12.0295 11.165 12.9297 9.86371 13.4621C8.56246 13.9945 7.12934 14.1357 5.74621 13.8674C4.36309 13.599 3.09184 12.934 2.09371 11.9558C1.09559 10.9776 0.414962 9.73044 0.138712 8.37214C-0.138163 7.01383 0.00183672 5.60517 0.540587 4.32547C1.07934 3.04515 1.99246 1.95089 3.16434 1.18147C4.33621 0.410821 5.71496 1.40519e-05 7.12434 1.40519e-05C8.05871 -0.00182813 8.98496 0.177478 9.84871 0.528107C10.7125 0.878123 11.4981 1.39209 12.16 2.04054C12.8218 2.68899 13.3468 3.45903 13.705 4.30704C14.0637 5.15506 14.2481 6.06388 14.2487 6.98251H14.2493ZM7.94246 2.42494C7.67621 2.40038 7.40184 2.39056 7.12434 2.39056C6.84684 2.39056 6.57746 2.40038 6.30996 2.42494V6.14862H7.94371L7.94246 2.42494ZM11.7118 4.59504C11.1162 4.40345 10.5081 4.25301 9.89121 4.14555V7.26989C9.89121 9.52043 8.91746 10.7043 7.12684 10.7043C5.33621 10.7043 4.36246 9.52043 4.36246 7.26989V4.14555C3.74559 4.25362 3.13746 4.40345 2.54184 4.59504V7.28893C2.58121 8.4581 3.08184 9.56649 3.93746 10.3801C4.79309 11.1937 5.93746 11.6482 7.12809 11.6482C8.31871 11.6482 9.46309 11.1931 10.3187 10.3801C11.1743 9.56649 11.675 8.4581 11.7143 7.28893L11.7118 4.59504Z" fill="#7000FF"/>
<path d="M37.2779 7.21671C37.2779 8.1243 36.7567 8.5437 35.9792 8.5437C35.2017 8.5437 34.6998 8.13228 34.6998 7.21671V4.2207H33.0248V7.27443C33.0248 9.26399 34.7192 10.0439 35.9923 10.0439C37.2654 10.0439 38.9617 9.26399 38.9617 7.27443V4.2207H37.2867L37.2785 7.21671H37.2779Z" fill="#7000FF"/>
<path d="M31.6076 5.61155V4.2207H26.1626V5.61155H29.3857L26.0326 8.548V9.93885H31.8107V8.548H28.2607L31.607 5.61155H31.6076Z" fill="#7000FF"/>
<path d="M47.3483 4.11328C46.2864 4.11328 45.4864 4.53698 45.0908 5.18298C44.6864 4.53698 43.8089 4.11328 42.8983 4.11328C41.1077 4.11328 40.1758 5.23456 40.1758 6.61927V9.94012H41.8514V6.85384C41.8514 6.19127 42.2052 5.60914 43.0177 5.60914C43.1833 5.59931 43.3489 5.62449 43.5039 5.68282C43.6589 5.74116 43.7995 5.83081 43.9164 5.94626C44.0333 6.0617 44.1239 6.20048 44.1827 6.35338C44.2408 6.50628 44.2658 6.66901 44.2552 6.83173V9.94257H45.9308V6.82928C45.9308 6.16486 46.3289 5.60729 47.1327 5.60729C47.9364 5.60729 48.3245 6.18942 48.3245 6.852V9.93827H49.9995V6.62357C49.9995 5.23886 49.1345 4.11758 47.3339 4.11758L47.3483 4.11328Z" fill="#7000FF"/>
<path d="M23.252 7.21671C23.252 8.1243 22.7308 8.5437 21.9602 8.5437C21.1895 8.5437 20.6745 8.13228 20.6745 7.21671V4.2207H18.9989V7.27443C18.9989 9.26399 20.687 10.0439 21.9664 10.0439C23.2458 10.0439 24.9295 9.26399 24.9295 7.27443V4.2207H23.2539L23.252 7.21671Z" fill="#7000FF"/>
</g>
<defs>
<clipPath id="clip0_305_3271">
<rect width="50" height="14" fill="white"/>
</clipPath>
</defs>
</svg>
