<svg width="25" height="25" viewBox="0 0 25 25" fill="none" xmlns="http://www.w3.org/2000/svg">
<path fill-rule="evenodd" clip-rule="evenodd" d="M6.24935 3.90626C5.90402 3.90626 5.57282 4.04344 5.32864 4.28763C5.08445 4.53182 4.94727 4.86301 4.94727 5.20834C4.94727 5.55367 5.08445 5.88486 5.32864 6.12905C5.57282 6.37324 5.90402 6.51042 6.24935 6.51042C6.59468 6.51042 6.92587 6.37324 7.17006 6.12905C7.41425 5.88486 7.55143 5.55367 7.55143 5.20834C7.55143 4.86301 7.41425 4.53182 7.17006 4.28763C6.92587 4.04344 6.59468 3.90626 6.24935 3.90626ZM3.38477 5.20834C3.38454 4.51676 3.63452 3.84846 4.08855 3.32679C4.54258 2.80513 5.17 2.46532 5.85499 2.37012C6.53998 2.27491 7.23628 2.43072 7.81537 2.80879C8.39445 3.18687 8.81721 3.76167 9.0056 4.42709H17.1868C18.361 4.42709 19.487 4.89351 20.3173 5.72375C21.1475 6.55399 21.6139 7.68004 21.6139 8.85417C21.6139 10.0283 21.1475 11.1544 20.3173 11.9846C19.487 12.8148 18.361 13.2813 17.1868 13.2813H7.81185C7.05211 13.2813 6.3235 13.5831 5.78628 14.1203C5.24907 14.6575 4.94727 15.3861 4.94727 16.1458C4.94727 16.9056 5.24907 17.6342 5.78628 18.1714C6.3235 18.7086 7.05211 19.0104 7.81185 19.0104H18.9473L18.1973 18.2604C18.1205 18.1889 18.0589 18.1026 18.0162 18.0068C17.9735 17.911 17.9506 17.8075 17.9487 17.7026C17.9469 17.5977 17.9662 17.4935 18.0055 17.3963C18.0448 17.299 18.1032 17.2106 18.1774 17.1364C18.2516 17.0622 18.34 17.0038 18.4373 16.9645C18.5345 16.9252 18.6387 16.9059 18.7436 16.9077C18.8485 16.9096 18.952 16.9325 19.0478 16.9752C19.1437 17.0179 19.2299 17.0795 19.3014 17.1563L21.3848 19.2396C21.5311 19.3861 21.6132 19.5846 21.6132 19.7917C21.6132 19.9987 21.5311 20.1973 21.3848 20.3438L19.3014 22.4271C19.2299 22.5038 19.1437 22.5654 19.0478 22.6081C18.952 22.6508 18.8485 22.6738 18.7436 22.6756C18.6387 22.6775 18.5345 22.6582 18.4373 22.6189C18.34 22.5796 18.2516 22.5211 18.1774 22.4469C18.1032 22.3727 18.0448 22.2844 18.0055 22.1871C17.9662 22.0898 17.9469 21.9856 17.9487 21.8807C17.9506 21.7758 17.9735 21.6724 18.0162 21.5765C18.0589 21.4807 18.1205 21.3944 18.1973 21.3229L18.9473 20.5729H7.81185C6.63771 20.5729 5.51167 20.1065 4.68143 19.2763C3.85119 18.446 3.38477 17.32 3.38477 16.1458C3.38477 14.9717 3.85119 13.8457 4.68143 13.0154C5.51167 12.1852 6.63771 11.7188 7.81185 11.7188H17.1868C17.9466 11.7188 18.6752 11.417 19.2124 10.8797C19.7496 10.3425 20.0514 9.61391 20.0514 8.85417C20.0514 8.09444 19.7496 7.36582 19.2124 6.82861C18.6752 6.29139 17.9466 5.98959 17.1868 5.98959H9.0056C8.81576 6.65353 8.39256 7.22659 7.81385 7.60335C7.23514 7.9801 6.53985 8.13522 5.85588 8.04015C5.17191 7.94509 4.54527 7.60623 4.09124 7.08593C3.63721 6.56563 3.38634 5.89888 3.38477 5.20834Z" fill="#459F86"/>
</svg>
